<mxfile host="Electron" modified="2023-06-08T08:45:12.550Z" agent="Mozilla/5.0 (Macintosh; Intel Mac OS X 10_15_7) AppleWebKit/537.36 (KHTML, like Gecko) draw.io/21.2.8 Chrome/112.0.5615.165 Electron/24.2.0 Safari/537.36" etag="8XqD0KKz9xglXlTs2SIs" version="21.2.8" type="device" pages="4">
  <diagram name="运行模式" id="AfX_6bxvb7xSRYTHp1Dx">
    <mxGraphModel dx="808" dy="685" grid="1" gridSize="10" guides="1" tooltips="1" connect="1" arrows="1" fold="1" page="1" pageScale="1" pageWidth="827" pageHeight="1169" background="#ffffff" math="0" shadow="0">
      <root>
        <mxCell id="0" />
        <mxCell id="1" parent="0" />
        <mxCell id="ryzz0wERoGVAgpZ8lWwu-1" value="Run" style="rounded=1;whiteSpace=wrap;html=1;fillColor=#dae8fc;strokeColor=#6c8ebf;" parent="1" vertex="1">
          <mxGeometry x="380" y="100" width="120" height="60" as="geometry" />
        </mxCell>
        <mxCell id="ryzz0wERoGVAgpZ8lWwu-3" style="edgeStyle=orthogonalEdgeStyle;rounded=0;orthogonalLoop=1;jettySize=auto;html=1;" parent="1" source="ryzz0wERoGVAgpZ8lWwu-2" target="ryzz0wERoGVAgpZ8lWwu-1" edge="1">
          <mxGeometry relative="1" as="geometry" />
        </mxCell>
        <mxCell id="ryzz0wERoGVAgpZ8lWwu-2" value="command" style="sketch=0;outlineConnect=0;fontColor=#232F3E;gradientColor=none;fillColor=#B0084D;strokeColor=none;dashed=0;verticalLabelPosition=bottom;verticalAlign=top;align=center;html=1;fontSize=12;fontStyle=0;aspect=fixed;pointerEvents=1;shape=mxgraph.aws4.run_command;" parent="1" vertex="1">
          <mxGeometry x="180" y="102.5" width="78" height="55" as="geometry" />
        </mxCell>
        <mxCell id="ryzz0wERoGVAgpZ8lWwu-16" style="edgeStyle=orthogonalEdgeStyle;rounded=0;orthogonalLoop=1;jettySize=auto;html=1;" parent="1" source="ryzz0wERoGVAgpZ8lWwu-4" target="ryzz0wERoGVAgpZ8lWwu-11" edge="1">
          <mxGeometry relative="1" as="geometry" />
        </mxCell>
        <mxCell id="ryzz0wERoGVAgpZ8lWwu-4" value="Run" style="rounded=1;whiteSpace=wrap;html=1;fillColor=#dae8fc;strokeColor=#6c8ebf;" parent="1" vertex="1">
          <mxGeometry x="380" y="350" width="120" height="60" as="geometry" />
        </mxCell>
        <mxCell id="ryzz0wERoGVAgpZ8lWwu-5" style="edgeStyle=orthogonalEdgeStyle;rounded=0;orthogonalLoop=1;jettySize=auto;html=1;" parent="1" source="ryzz0wERoGVAgpZ8lWwu-6" target="ryzz0wERoGVAgpZ8lWwu-4" edge="1">
          <mxGeometry relative="1" as="geometry">
            <Array as="points">
              <mxPoint x="410" y="360" />
              <mxPoint x="410" y="360" />
            </Array>
          </mxGeometry>
        </mxCell>
        <mxCell id="ryzz0wERoGVAgpZ8lWwu-6" value="command" style="sketch=0;outlineConnect=0;fontColor=#232F3E;gradientColor=none;fillColor=#B0084D;strokeColor=none;dashed=0;verticalLabelPosition=bottom;verticalAlign=top;align=center;html=1;fontSize=12;fontStyle=0;aspect=fixed;pointerEvents=1;shape=mxgraph.aws4.run_command;" parent="1" vertex="1">
          <mxGeometry x="180" y="352.5" width="78" height="55" as="geometry" />
        </mxCell>
        <mxCell id="ryzz0wERoGVAgpZ8lWwu-11" value="Pipeline" style="swimlane;childLayout=stackLayout;horizontal=1;fillColor=none;horizontalStack=1;resizeParent=1;resizeParentMax=0;resizeLast=0;collapsible=0;strokeColor=none;stackBorder=10;stackSpacing=-12;resizable=1;align=center;points=[];whiteSpace=wrap;html=1;" parent="1" vertex="1">
          <mxGeometry x="204" y="470" width="296" height="100" as="geometry" />
        </mxCell>
        <mxCell id="ryzz0wERoGVAgpZ8lWwu-12" value="Runtime" style="shape=step;perimeter=stepPerimeter;fixedSize=1;points=[];whiteSpace=wrap;html=1;fillColor=#f8cecc;strokeColor=#b85450;" parent="ryzz0wERoGVAgpZ8lWwu-11" vertex="1">
          <mxGeometry x="10" y="33" width="100" height="57" as="geometry" />
        </mxCell>
        <mxCell id="ryzz0wERoGVAgpZ8lWwu-13" value="Module" style="shape=step;perimeter=stepPerimeter;fixedSize=1;points=[];whiteSpace=wrap;html=1;fillColor=#f8cecc;strokeColor=#b85450;" parent="ryzz0wERoGVAgpZ8lWwu-11" vertex="1">
          <mxGeometry x="98" y="33" width="100" height="57" as="geometry" />
        </mxCell>
        <mxCell id="ryzz0wERoGVAgpZ8lWwu-14" value="Task" style="shape=step;perimeter=stepPerimeter;fixedSize=1;points=[];whiteSpace=wrap;html=1;fillColor=#f8cecc;strokeColor=#b85450;" parent="ryzz0wERoGVAgpZ8lWwu-11" vertex="1">
          <mxGeometry x="186" y="33" width="100" height="57" as="geometry" />
        </mxCell>
      </root>
    </mxGraphModel>
  </diagram>
  <diagram id="l7UU3PPrYhsJfO_-RJ4n" name="module">
    <mxGraphModel dx="808" dy="685" grid="1" gridSize="10" guides="1" tooltips="1" connect="1" arrows="1" fold="1" page="1" pageScale="1" pageWidth="827" pageHeight="1169" background="#ffffff" math="0" shadow="0">
      <root>
        <mxCell id="0" />
        <mxCell id="1" parent="0" />
        <mxCell id="0CtG71umcOvWxRqQn79L-1" value="" style="edgeStyle=orthogonalEdgeStyle;rounded=0;orthogonalLoop=1;jettySize=auto;html=1;" parent="1" source="0CtG71umcOvWxRqQn79L-3" target="0CtG71umcOvWxRqQn79L-4" edge="1">
          <mxGeometry relative="1" as="geometry" />
        </mxCell>
        <mxCell id="0CtG71umcOvWxRqQn79L-2" value="" style="edgeStyle=orthogonalEdgeStyle;rounded=0;orthogonalLoop=1;jettySize=auto;html=1;" parent="1" source="0CtG71umcOvWxRqQn79L-3" target="0CtG71umcOvWxRqQn79L-7" edge="1">
          <mxGeometry relative="1" as="geometry">
            <Array as="points">
              <mxPoint x="250" y="190" />
              <mxPoint x="250" y="310" />
            </Array>
          </mxGeometry>
        </mxCell>
        <mxCell id="0CtG71umcOvWxRqQn79L-3" value="BaseModule" style="rounded=1;whiteSpace=wrap;html=1;" parent="1" vertex="1">
          <mxGeometry x="80" y="160" width="120" height="60" as="geometry" />
        </mxCell>
        <mxCell id="OFvHK8oLk8vFniNFE01D-13" value="" style="edgeStyle=orthogonalEdgeStyle;rounded=0;orthogonalLoop=1;jettySize=auto;html=1;" parent="1" source="0CtG71umcOvWxRqQn79L-4" target="OFvHK8oLk8vFniNFE01D-12" edge="1">
          <mxGeometry relative="1" as="geometry" />
        </mxCell>
        <mxCell id="0CtG71umcOvWxRqQn79L-4" value="CustomModule" style="whiteSpace=wrap;html=1;rounded=1;" parent="1" vertex="1">
          <mxGeometry x="280" y="160" width="120" height="60" as="geometry" />
        </mxCell>
        <mxCell id="0CtG71umcOvWxRqQn79L-5" value="" style="edgeStyle=orthogonalEdgeStyle;rounded=0;orthogonalLoop=1;jettySize=auto;html=1;" parent="1" source="0CtG71umcOvWxRqQn79L-7" target="0CtG71umcOvWxRqQn79L-8" edge="1">
          <mxGeometry relative="1" as="geometry" />
        </mxCell>
        <mxCell id="0CtG71umcOvWxRqQn79L-6" value="" style="edgeStyle=orthogonalEdgeStyle;rounded=0;orthogonalLoop=1;jettySize=auto;html=1;" parent="1" source="0CtG71umcOvWxRqQn79L-7" target="0CtG71umcOvWxRqQn79L-9" edge="1">
          <mxGeometry relative="1" as="geometry">
            <Array as="points">
              <mxPoint x="430" y="310" />
              <mxPoint x="430" y="389" />
            </Array>
          </mxGeometry>
        </mxCell>
        <mxCell id="OFvHK8oLk8vFniNFE01D-7" value="" style="edgeStyle=orthogonalEdgeStyle;rounded=0;orthogonalLoop=1;jettySize=auto;html=1;" parent="1" source="0CtG71umcOvWxRqQn79L-7" target="OFvHK8oLk8vFniNFE01D-6" edge="1">
          <mxGeometry relative="1" as="geometry">
            <Array as="points">
              <mxPoint x="430" y="310" />
              <mxPoint x="430" y="470" />
            </Array>
          </mxGeometry>
        </mxCell>
        <mxCell id="OFvHK8oLk8vFniNFE01D-9" value="" style="edgeStyle=orthogonalEdgeStyle;rounded=0;orthogonalLoop=1;jettySize=auto;html=1;" parent="1" source="0CtG71umcOvWxRqQn79L-7" target="OFvHK8oLk8vFniNFE01D-8" edge="1">
          <mxGeometry relative="1" as="geometry">
            <Array as="points">
              <mxPoint x="430" y="310" />
              <mxPoint x="430" y="550" />
            </Array>
          </mxGeometry>
        </mxCell>
        <mxCell id="OFvHK8oLk8vFniNFE01D-11" value="" style="edgeStyle=orthogonalEdgeStyle;rounded=0;orthogonalLoop=1;jettySize=auto;html=1;" parent="1" source="0CtG71umcOvWxRqQn79L-7" target="OFvHK8oLk8vFniNFE01D-10" edge="1">
          <mxGeometry relative="1" as="geometry">
            <Array as="points">
              <mxPoint x="430" y="310" />
              <mxPoint x="430" y="630" />
            </Array>
          </mxGeometry>
        </mxCell>
        <mxCell id="OFvHK8oLk8vFniNFE01D-33" value="" style="edgeStyle=orthogonalEdgeStyle;rounded=0;orthogonalLoop=1;jettySize=auto;html=1;" parent="1" source="0CtG71umcOvWxRqQn79L-7" target="OFvHK8oLk8vFniNFE01D-32" edge="1">
          <mxGeometry relative="1" as="geometry">
            <Array as="points">
              <mxPoint x="430" y="310" />
              <mxPoint x="430" y="750" />
            </Array>
          </mxGeometry>
        </mxCell>
        <mxCell id="OFvHK8oLk8vFniNFE01D-35" value="" style="edgeStyle=orthogonalEdgeStyle;rounded=0;orthogonalLoop=1;jettySize=auto;html=1;" parent="1" source="0CtG71umcOvWxRqQn79L-7" target="OFvHK8oLk8vFniNFE01D-34" edge="1">
          <mxGeometry relative="1" as="geometry">
            <Array as="points">
              <mxPoint x="430" y="310" />
              <mxPoint x="430" y="880" />
            </Array>
          </mxGeometry>
        </mxCell>
        <mxCell id="0CtG71umcOvWxRqQn79L-7" value="BaseTaskModule" style="whiteSpace=wrap;html=1;rounded=1;" parent="1" vertex="1">
          <mxGeometry x="280" y="280" width="120" height="60" as="geometry" />
        </mxCell>
        <mxCell id="0CtG71umcOvWxRqQn79L-8" value="CheckFileExistModule" style="whiteSpace=wrap;html=1;rounded=1;" parent="1" vertex="1">
          <mxGeometry x="480" y="280" width="120" height="60" as="geometry" />
        </mxCell>
        <mxCell id="0CtG71umcOvWxRqQn79L-9" value="CustomScriptsModule" style="whiteSpace=wrap;html=1;rounded=1;" parent="1" vertex="1">
          <mxGeometry x="480" y="360" width="120" height="57" as="geometry" />
        </mxCell>
        <mxCell id="OFvHK8oLk8vFniNFE01D-1" value="Module" style="swimlane;childLayout=stackLayout;horizontal=1;fillColor=none;horizontalStack=1;resizeParent=1;resizeParentMax=0;resizeLast=0;collapsible=0;strokeColor=none;stackBorder=10;stackSpacing=-12;resizable=1;align=center;points=[];whiteSpace=wrap;html=1;" parent="1" vertex="1">
          <mxGeometry x="380" y="1660" width="384" height="100" as="geometry" />
        </mxCell>
        <mxCell id="OFvHK8oLk8vFniNFE01D-2" value="IsSkip" style="shape=step;perimeter=stepPerimeter;fixedSize=1;points=[];whiteSpace=wrap;html=1;" parent="OFvHK8oLk8vFniNFE01D-1" vertex="1">
          <mxGeometry x="10" y="33" width="100" height="57" as="geometry" />
        </mxCell>
        <mxCell id="M94yxz_HIj0C63uavS_3-2" value="Init" style="shape=step;perimeter=stepPerimeter;fixedSize=1;points=[];whiteSpace=wrap;html=1;" parent="OFvHK8oLk8vFniNFE01D-1" vertex="1">
          <mxGeometry x="98" y="33" width="100" height="57" as="geometry" />
        </mxCell>
        <mxCell id="M94yxz_HIj0C63uavS_3-3" value="Run" style="shape=step;perimeter=stepPerimeter;fixedSize=1;points=[];whiteSpace=wrap;html=1;" parent="OFvHK8oLk8vFniNFE01D-1" vertex="1">
          <mxGeometry x="186" y="33" width="100" height="57" as="geometry" />
        </mxCell>
        <mxCell id="M94yxz_HIj0C63uavS_3-4" value="PostHook" style="shape=step;perimeter=stepPerimeter;fixedSize=1;points=[];whiteSpace=wrap;html=1;" parent="OFvHK8oLk8vFniNFE01D-1" vertex="1">
          <mxGeometry x="274" y="33" width="100" height="57" as="geometry" />
        </mxCell>
        <mxCell id="OFvHK8oLk8vFniNFE01D-6" value="GreetingsModule" style="whiteSpace=wrap;html=1;rounded=1;" parent="1" vertex="1">
          <mxGeometry x="480" y="440" width="120" height="60" as="geometry" />
        </mxCell>
        <mxCell id="OFvHK8oLk8vFniNFE01D-70" style="edgeStyle=orthogonalEdgeStyle;rounded=0;orthogonalLoop=1;jettySize=auto;html=1;entryX=-0.005;entryY=-0.133;entryDx=0;entryDy=0;entryPerimeter=0;" parent="1" source="OFvHK8oLk8vFniNFE01D-8" target="OFvHK8oLk8vFniNFE01D-115" edge="1">
          <mxGeometry relative="1" as="geometry">
            <mxPoint x="660" y="190" as="targetPoint" />
          </mxGeometry>
        </mxCell>
        <mxCell id="OFvHK8oLk8vFniNFE01D-8" value="ArtifactModule" style="whiteSpace=wrap;html=1;rounded=1;" parent="1" vertex="1">
          <mxGeometry x="480" y="520" width="120" height="60" as="geometry" />
        </mxCell>
        <mxCell id="OFvHK8oLk8vFniNFE01D-219" style="edgeStyle=orthogonalEdgeStyle;rounded=0;orthogonalLoop=1;jettySize=auto;html=1;entryX=-0.017;entryY=0.678;entryDx=0;entryDy=0;entryPerimeter=0;" parent="1" source="OFvHK8oLk8vFniNFE01D-10" target="OFvHK8oLk8vFniNFE01D-163" edge="1">
          <mxGeometry relative="1" as="geometry" />
        </mxCell>
        <mxCell id="OFvHK8oLk8vFniNFE01D-10" value="KubeModule" style="whiteSpace=wrap;html=1;rounded=1;" parent="1" vertex="1">
          <mxGeometry x="480" y="620" width="120" height="60" as="geometry" />
        </mxCell>
        <mxCell id="OFvHK8oLk8vFniNFE01D-12" value="KubeCustomModule" style="whiteSpace=wrap;html=1;rounded=1;" parent="1" vertex="1">
          <mxGeometry x="480" y="160" width="120" height="60" as="geometry" />
        </mxCell>
        <mxCell id="OFvHK8oLk8vFniNFE01D-32" value="ChownModule" style="whiteSpace=wrap;html=1;rounded=1;" parent="1" vertex="1">
          <mxGeometry x="480" y="720" width="120" height="60" as="geometry" />
        </mxCell>
        <mxCell id="OFvHK8oLk8vFniNFE01D-34" value="ChownWorkDirModule" style="whiteSpace=wrap;html=1;rounded=1;" parent="1" vertex="1">
          <mxGeometry x="480" y="850" width="120" height="60" as="geometry" />
        </mxCell>
        <mxCell id="OFvHK8oLk8vFniNFE01D-66" value="" style="html=1;shadow=0;dashed=0;shape=mxgraph.bootstrap.rrect;rSize=5;strokeColor=#DFDFDF;html=1;whiteSpace=wrap;fillColor=#FFFFFF;fontColor=#000000;" parent="1" vertex="1">
          <mxGeometry x="670" y="280" width="200" height="210" as="geometry" />
        </mxCell>
        <mxCell id="OFvHK8oLk8vFniNFE01D-67" value="RepositoryModule" style="strokeColor=inherit;fillColor=inherit;gradientColor=inherit;fontColor=inherit;html=1;shadow=0;dashed=0;shape=mxgraph.bootstrap.topButton;rSize=5;perimeter=none;whiteSpace=wrap;resizeWidth=1;align=left;spacing=10;" parent="OFvHK8oLk8vFniNFE01D-66" vertex="1">
          <mxGeometry width="200" height="30" relative="1" as="geometry" />
        </mxCell>
        <mxCell id="OFvHK8oLk8vFniNFE01D-68" value="ArchiveModule" style="strokeColor=inherit;fillColor=inherit;gradientColor=inherit;fontColor=inherit;html=1;shadow=0;dashed=0;perimeter=none;whiteSpace=wrap;resizeWidth=1;align=left;spacing=10;" parent="OFvHK8oLk8vFniNFE01D-66" vertex="1">
          <mxGeometry width="200" height="30" relative="1" as="geometry">
            <mxPoint y="30" as="offset" />
          </mxGeometry>
        </mxCell>
        <mxCell id="OFvHK8oLk8vFniNFE01D-69" value="CopyImagesToLocalModule" style="strokeColor=inherit;fillColor=inherit;gradientColor=inherit;fontColor=inherit;html=1;shadow=0;dashed=0;shape=mxgraph.bootstrap.bottomButton;rSize=5;perimeter=none;whiteSpace=wrap;resizeWidth=1;resizeHeight=0;align=left;spacing=10;" parent="OFvHK8oLk8vFniNFE01D-66" vertex="1">
          <mxGeometry y="1" width="200" height="30" relative="1" as="geometry">
            <mxPoint y="-30" as="offset" />
          </mxGeometry>
        </mxCell>
        <mxCell id="OFvHK8oLk8vFniNFE01D-116" value="ArtifactBinariesModule" style="strokeColor=inherit;fillColor=inherit;gradientColor=inherit;fontColor=inherit;html=1;shadow=0;dashed=0;perimeter=none;whiteSpace=wrap;resizeWidth=1;align=left;spacing=10;" parent="OFvHK8oLk8vFniNFE01D-66" vertex="1">
          <mxGeometry y="59.9964705882353" width="200" height="30" as="geometry" />
        </mxCell>
        <mxCell id="OFvHK8oLk8vFniNFE01D-117" value="K3sArtifactBinariesModule" style="strokeColor=inherit;fillColor=inherit;gradientColor=inherit;fontColor=inherit;html=1;shadow=0;dashed=0;perimeter=none;whiteSpace=wrap;resizeWidth=1;align=left;spacing=10;" parent="OFvHK8oLk8vFniNFE01D-66" vertex="1">
          <mxGeometry y="89.9964705882353" width="200" height="30" as="geometry" />
        </mxCell>
        <mxCell id="OFvHK8oLk8vFniNFE01D-115" value="K8eArtifactBinariesModule" style="strokeColor=inherit;fillColor=inherit;gradientColor=inherit;fontColor=inherit;html=1;shadow=0;dashed=0;perimeter=none;whiteSpace=wrap;resizeWidth=1;align=left;spacing=10;" parent="OFvHK8oLk8vFniNFE01D-66" vertex="1">
          <mxGeometry y="119.9964705882353" width="200" height="30" as="geometry" />
        </mxCell>
        <mxCell id="OFvHK8oLk8vFniNFE01D-114" value="ChownOutputModule" style="strokeColor=inherit;fillColor=inherit;gradientColor=inherit;fontColor=inherit;html=1;shadow=0;dashed=0;perimeter=none;whiteSpace=wrap;resizeWidth=1;align=left;spacing=10;" parent="OFvHK8oLk8vFniNFE01D-66" vertex="1">
          <mxGeometry y="149.9964705882353" width="200" height="30" as="geometry" />
        </mxCell>
        <mxCell id="OFvHK8oLk8vFniNFE01D-218" value="" style="group" parent="1" vertex="1" connectable="0">
          <mxGeometry x="910" y="280" width="600" height="812" as="geometry" />
        </mxCell>
        <mxCell id="OFvHK8oLk8vFniNFE01D-118" value="`" style="html=1;shadow=0;dashed=0;shape=mxgraph.bootstrap.rrect;rSize=5;strokeColor=#DFDFDF;html=1;whiteSpace=wrap;fillColor=#FFFFFF;fontColor=#000000;container=0;" parent="OFvHK8oLk8vFniNFE01D-218" vertex="1">
          <mxGeometry width="600" height="812" as="geometry" />
        </mxCell>
        <mxCell id="OFvHK8oLk8vFniNFE01D-124" value="NodeBinariesModule" style="strokeColor=inherit;fillColor=inherit;gradientColor=inherit;fontColor=inherit;html=1;shadow=0;dashed=0;perimeter=none;whiteSpace=wrap;resizeWidth=1;align=left;spacing=10;" parent="OFvHK8oLk8vFniNFE01D-218" vertex="1">
          <mxGeometry x="400" y="1" width="200" height="30" as="geometry" />
        </mxCell>
        <mxCell id="OFvHK8oLk8vFniNFE01D-125" value="K3sNodeBinariesModule" style="strokeColor=inherit;fillColor=inherit;gradientColor=inherit;fontColor=inherit;html=1;shadow=0;dashed=0;perimeter=none;whiteSpace=wrap;resizeWidth=1;align=left;spacing=10;" parent="OFvHK8oLk8vFniNFE01D-218" vertex="1">
          <mxGeometry y="31" width="200" height="30" as="geometry" />
        </mxCell>
        <mxCell id="OFvHK8oLk8vFniNFE01D-126" value="K8eNodeBinariesModule" style="strokeColor=inherit;fillColor=inherit;gradientColor=inherit;fontColor=inherit;html=1;shadow=0;dashed=0;perimeter=none;whiteSpace=wrap;resizeWidth=1;align=left;spacing=10;" parent="OFvHK8oLk8vFniNFE01D-218" vertex="1">
          <mxGeometry x="200" y="31" width="200" height="30" as="geometry" />
        </mxCell>
        <mxCell id="OFvHK8oLk8vFniNFE01D-129" value="RegistryPackageModule" style="strokeColor=inherit;fillColor=inherit;gradientColor=inherit;fontColor=inherit;html=1;shadow=0;dashed=0;perimeter=none;whiteSpace=wrap;resizeWidth=1;align=left;spacing=10;" parent="OFvHK8oLk8vFniNFE01D-218" vertex="1">
          <mxGeometry x="400" y="31" width="200" height="30" as="geometry" />
        </mxCell>
        <mxCell id="OFvHK8oLk8vFniNFE01D-130" value="CriBinariesModule" style="strokeColor=inherit;fillColor=inherit;gradientColor=inherit;fontColor=inherit;html=1;shadow=0;dashed=0;perimeter=none;whiteSpace=wrap;resizeWidth=1;align=left;spacing=10;" parent="OFvHK8oLk8vFniNFE01D-218" vertex="1">
          <mxGeometry y="61" width="200" height="30" as="geometry" />
        </mxCell>
        <mxCell id="OFvHK8oLk8vFniNFE01D-131" value="InstallConfirmModule" style="strokeColor=inherit;fillColor=inherit;gradientColor=inherit;fontColor=inherit;html=1;shadow=0;dashed=0;perimeter=none;whiteSpace=wrap;resizeWidth=1;align=left;spacing=10;" parent="OFvHK8oLk8vFniNFE01D-218" vertex="1">
          <mxGeometry x="200" y="61" width="200" height="30" as="geometry" />
        </mxCell>
        <mxCell id="OFvHK8oLk8vFniNFE01D-132" value="DeleteClusterConfirmModule" style="strokeColor=inherit;fillColor=inherit;gradientColor=inherit;fontColor=inherit;html=1;shadow=0;dashed=0;perimeter=none;whiteSpace=wrap;resizeWidth=1;align=left;spacing=10;" parent="OFvHK8oLk8vFniNFE01D-218" vertex="1">
          <mxGeometry x="400" y="61" width="200" height="30" as="geometry" />
        </mxCell>
        <mxCell id="OFvHK8oLk8vFniNFE01D-133" value="DeleteNodeConfirmModule" style="strokeColor=inherit;fillColor=inherit;gradientColor=inherit;fontColor=inherit;html=1;shadow=0;dashed=0;perimeter=none;whiteSpace=wrap;resizeWidth=1;align=left;spacing=10;" parent="OFvHK8oLk8vFniNFE01D-218" vertex="1">
          <mxGeometry y="91" width="200" height="30" as="geometry" />
        </mxCell>
        <mxCell id="OFvHK8oLk8vFniNFE01D-134" value="UpgradeConfirmModule" style="strokeColor=inherit;fillColor=inherit;gradientColor=inherit;fontColor=inherit;html=1;shadow=0;dashed=0;perimeter=none;whiteSpace=wrap;resizeWidth=1;align=left;spacing=10;" parent="OFvHK8oLk8vFniNFE01D-218" vertex="1">
          <mxGeometry x="200" y="91" width="200" height="30" as="geometry" />
        </mxCell>
        <mxCell id="OFvHK8oLk8vFniNFE01D-135" value="MigrateCriConfirmModule" style="strokeColor=inherit;fillColor=inherit;gradientColor=inherit;fontColor=inherit;html=1;shadow=0;dashed=0;perimeter=none;whiteSpace=wrap;resizeWidth=1;align=left;spacing=10;" parent="OFvHK8oLk8vFniNFE01D-218" vertex="1">
          <mxGeometry x="400" y="91" width="200" height="30" as="geometry" />
        </mxCell>
        <mxCell id="OFvHK8oLk8vFniNFE01D-136" value="ConfigureOSModule" style="strokeColor=inherit;fillColor=inherit;gradientColor=inherit;fontColor=inherit;html=1;shadow=0;dashed=0;perimeter=none;whiteSpace=wrap;resizeWidth=1;align=left;spacing=10;" parent="OFvHK8oLk8vFniNFE01D-218" vertex="1">
          <mxGeometry y="121" width="200" height="30" as="geometry" />
        </mxCell>
        <mxCell id="OFvHK8oLk8vFniNFE01D-137" value="ClearNodeOSModule" style="strokeColor=inherit;fillColor=inherit;gradientColor=inherit;fontColor=inherit;html=1;shadow=0;dashed=0;perimeter=none;whiteSpace=wrap;resizeWidth=1;align=left;spacing=10;" parent="OFvHK8oLk8vFniNFE01D-218" vertex="1">
          <mxGeometry x="200" y="121" width="200" height="30" as="geometry" />
        </mxCell>
        <mxCell id="OFvHK8oLk8vFniNFE01D-138" value="ClearOSEnvironmentModule" style="strokeColor=inherit;fillColor=inherit;gradientColor=inherit;fontColor=inherit;html=1;shadow=0;dashed=0;perimeter=none;whiteSpace=wrap;resizeWidth=1;align=left;spacing=10;" parent="OFvHK8oLk8vFniNFE01D-218" vertex="1">
          <mxGeometry x="400" y="121" width="200" height="30" as="geometry" />
        </mxCell>
        <mxCell id="OFvHK8oLk8vFniNFE01D-139" value="RepositoryOnlineModule" style="strokeColor=inherit;fillColor=inherit;gradientColor=inherit;fontColor=inherit;html=1;shadow=0;dashed=0;perimeter=none;whiteSpace=wrap;resizeWidth=1;align=left;spacing=10;" parent="OFvHK8oLk8vFniNFE01D-218" vertex="1">
          <mxGeometry y="151" width="200" height="30" as="geometry" />
        </mxCell>
        <mxCell id="OFvHK8oLk8vFniNFE01D-140" value="RepositoryModule" style="strokeColor=inherit;fillColor=inherit;gradientColor=inherit;fontColor=inherit;html=1;shadow=0;dashed=0;perimeter=none;whiteSpace=wrap;resizeWidth=1;align=left;spacing=10;" parent="OFvHK8oLk8vFniNFE01D-218" vertex="1">
          <mxGeometry x="200" y="151" width="200" height="30" as="geometry" />
        </mxCell>
        <mxCell id="OFvHK8oLk8vFniNFE01D-141" value="AddonsModule" style="strokeColor=inherit;fillColor=inherit;gradientColor=inherit;fontColor=inherit;html=1;shadow=0;dashed=0;perimeter=none;whiteSpace=wrap;resizeWidth=1;align=left;spacing=10;" parent="OFvHK8oLk8vFniNFE01D-218" vertex="1">
          <mxGeometry y="1" width="200" height="30" as="geometry" />
        </mxCell>
        <mxCell id="OFvHK8oLk8vFniNFE01D-143" value="NodePreCheckModule" style="strokeColor=inherit;fillColor=inherit;gradientColor=inherit;fontColor=inherit;html=1;shadow=0;dashed=0;perimeter=none;whiteSpace=wrap;resizeWidth=1;align=left;spacing=10;" parent="OFvHK8oLk8vFniNFE01D-218" vertex="1">
          <mxGeometry x="400" y="151" width="200" height="30" as="geometry" />
        </mxCell>
        <mxCell id="OFvHK8oLk8vFniNFE01D-148" value="ClusterPreCheckModule" style="strokeColor=inherit;fillColor=inherit;gradientColor=inherit;fontColor=inherit;html=1;shadow=0;dashed=0;perimeter=none;whiteSpace=wrap;resizeWidth=1;align=left;spacing=10;" parent="OFvHK8oLk8vFniNFE01D-218" vertex="1">
          <mxGeometry y="181" width="200" height="30" as="geometry" />
        </mxCell>
        <mxCell id="OFvHK8oLk8vFniNFE01D-149" value="RegistryCertsModule" style="strokeColor=inherit;fillColor=inherit;gradientColor=inherit;fontColor=inherit;html=1;shadow=0;dashed=0;perimeter=none;whiteSpace=wrap;resizeWidth=1;align=left;spacing=10;" parent="OFvHK8oLk8vFniNFE01D-218" vertex="1">
          <mxGeometry x="200" y="181" width="200" height="30" as="geometry" />
        </mxCell>
        <mxCell id="OFvHK8oLk8vFniNFE01D-150" value="InstallRegistryModule" style="strokeColor=inherit;fillColor=inherit;gradientColor=inherit;fontColor=inherit;html=1;shadow=0;dashed=0;perimeter=none;whiteSpace=wrap;resizeWidth=1;align=left;spacing=10;" parent="OFvHK8oLk8vFniNFE01D-218" vertex="1">
          <mxGeometry x="400" y="181" width="200" height="30" as="geometry" />
        </mxCell>
        <mxCell id="OFvHK8oLk8vFniNFE01D-151" value="CheckCertsModule" style="strokeColor=inherit;fillColor=inherit;gradientColor=inherit;fontColor=inherit;html=1;shadow=0;dashed=0;perimeter=none;whiteSpace=wrap;resizeWidth=1;align=left;spacing=10;" parent="OFvHK8oLk8vFniNFE01D-218" vertex="1">
          <mxGeometry y="211" width="200" height="30" as="geometry" />
        </mxCell>
        <mxCell id="OFvHK8oLk8vFniNFE01D-152" value="PrintClusterCertsModule" style="strokeColor=inherit;fillColor=inherit;gradientColor=inherit;fontColor=inherit;html=1;shadow=0;dashed=0;perimeter=none;whiteSpace=wrap;resizeWidth=1;align=left;spacing=10;" parent="OFvHK8oLk8vFniNFE01D-218" vertex="1">
          <mxGeometry x="200" y="211" width="200" height="30" as="geometry" />
        </mxCell>
        <mxCell id="OFvHK8oLk8vFniNFE01D-153" value="RenewCertsModule" style="strokeColor=inherit;fillColor=inherit;gradientColor=inherit;fontColor=inherit;html=1;shadow=0;dashed=0;perimeter=none;whiteSpace=wrap;resizeWidth=1;align=left;spacing=10;" parent="OFvHK8oLk8vFniNFE01D-218" vertex="1">
          <mxGeometry x="400" y="211" width="200" height="30" as="geometry" />
        </mxCell>
        <mxCell id="OFvHK8oLk8vFniNFE01D-154" value="AutoRenewCertsModule" style="strokeColor=inherit;fillColor=inherit;gradientColor=inherit;fontColor=inherit;html=1;shadow=0;dashed=0;perimeter=none;whiteSpace=wrap;resizeWidth=1;align=left;spacing=10;" parent="OFvHK8oLk8vFniNFE01D-218" vertex="1">
          <mxGeometry y="241" width="200" height="30" as="geometry" />
        </mxCell>
        <mxCell id="OFvHK8oLk8vFniNFE01D-155" value="UninstallAutoRenewCertsModule" style="strokeColor=inherit;fillColor=inherit;gradientColor=inherit;fontColor=inherit;html=1;shadow=0;dashed=0;perimeter=none;whiteSpace=wrap;resizeWidth=1;align=left;spacing=10;" parent="OFvHK8oLk8vFniNFE01D-218" vertex="1">
          <mxGeometry x="200" y="241" width="200" height="30" as="geometry" />
        </mxCell>
        <mxCell id="OFvHK8oLk8vFniNFE01D-156" value="InstallContainerModule" style="strokeColor=inherit;fillColor=inherit;gradientColor=inherit;fontColor=inherit;html=1;shadow=0;dashed=0;perimeter=none;whiteSpace=wrap;resizeWidth=1;align=left;spacing=10;" parent="OFvHK8oLk8vFniNFE01D-218" vertex="1">
          <mxGeometry x="400" y="241" width="200" height="30" as="geometry" />
        </mxCell>
        <mxCell id="OFvHK8oLk8vFniNFE01D-157" value="UninstallContainerModule" style="strokeColor=inherit;fillColor=inherit;gradientColor=inherit;fontColor=inherit;html=1;shadow=0;dashed=0;perimeter=none;whiteSpace=wrap;resizeWidth=1;align=left;spacing=10;" parent="OFvHK8oLk8vFniNFE01D-218" vertex="1">
          <mxGeometry y="271" width="200" height="30" as="geometry" />
        </mxCell>
        <mxCell id="OFvHK8oLk8vFniNFE01D-158" value="CriMigrateModule" style="strokeColor=inherit;fillColor=inherit;gradientColor=inherit;fontColor=inherit;html=1;shadow=0;dashed=0;perimeter=none;whiteSpace=wrap;resizeWidth=1;align=left;spacing=10;" parent="OFvHK8oLk8vFniNFE01D-218" vertex="1">
          <mxGeometry x="200" y="271" width="200" height="30" as="geometry" />
        </mxCell>
        <mxCell id="OFvHK8oLk8vFniNFE01D-159" value="PreCheckModule" style="strokeColor=inherit;fillColor=inherit;gradientColor=inherit;fontColor=inherit;html=1;shadow=0;dashed=0;perimeter=none;whiteSpace=wrap;resizeWidth=1;align=left;spacing=10;" parent="OFvHK8oLk8vFniNFE01D-218" vertex="1">
          <mxGeometry x="400" y="271" width="200" height="30" as="geometry" />
        </mxCell>
        <mxCell id="OFvHK8oLk8vFniNFE01D-160" value="CertsModule" style="strokeColor=inherit;fillColor=inherit;gradientColor=inherit;fontColor=inherit;html=1;shadow=0;dashed=0;perimeter=none;whiteSpace=wrap;resizeWidth=1;align=left;spacing=10;" parent="OFvHK8oLk8vFniNFE01D-218" vertex="1">
          <mxGeometry y="301" width="200" height="30" as="geometry" />
        </mxCell>
        <mxCell id="OFvHK8oLk8vFniNFE01D-161" value="InstallETCDBinaryModule" style="strokeColor=inherit;fillColor=inherit;gradientColor=inherit;fontColor=inherit;html=1;shadow=0;dashed=0;perimeter=none;whiteSpace=wrap;resizeWidth=1;align=left;spacing=10;" parent="OFvHK8oLk8vFniNFE01D-218" vertex="1">
          <mxGeometry x="200" y="301" width="200" height="30" as="geometry" />
        </mxCell>
        <mxCell id="OFvHK8oLk8vFniNFE01D-162" value="ConfigureModule" style="strokeColor=inherit;fillColor=inherit;gradientColor=inherit;fontColor=inherit;html=1;shadow=0;dashed=0;perimeter=none;whiteSpace=wrap;resizeWidth=1;align=left;spacing=10;" parent="OFvHK8oLk8vFniNFE01D-218" vertex="1">
          <mxGeometry x="400" y="301" width="200" height="30" as="geometry" />
        </mxCell>
        <mxCell id="OFvHK8oLk8vFniNFE01D-163" value="BackupModule" style="strokeColor=inherit;fillColor=inherit;gradientColor=inherit;fontColor=inherit;html=1;shadow=0;dashed=0;perimeter=none;whiteSpace=wrap;resizeWidth=1;align=left;spacing=10;" parent="OFvHK8oLk8vFniNFE01D-218" vertex="1">
          <mxGeometry y="331" width="200" height="30" as="geometry" />
        </mxCell>
        <mxCell id="OFvHK8oLk8vFniNFE01D-164" value="PullModule" style="strokeColor=inherit;fillColor=inherit;gradientColor=inherit;fontColor=inherit;html=1;shadow=0;dashed=0;perimeter=none;whiteSpace=wrap;resizeWidth=1;align=left;spacing=10;" parent="OFvHK8oLk8vFniNFE01D-218" vertex="1">
          <mxGeometry x="200" y="331" width="200" height="30" as="geometry" />
        </mxCell>
        <mxCell id="OFvHK8oLk8vFniNFE01D-165" value="CopyImagesToRegistryModule" style="strokeColor=inherit;fillColor=inherit;gradientColor=inherit;fontColor=inherit;html=1;shadow=0;dashed=0;perimeter=none;whiteSpace=wrap;resizeWidth=1;align=left;spacing=10;" parent="OFvHK8oLk8vFniNFE01D-218" vertex="1">
          <mxGeometry x="400" y="331" width="200" height="30" as="geometry" />
        </mxCell>
        <mxCell id="OFvHK8oLk8vFniNFE01D-166" value="StatusModule" style="strokeColor=inherit;fillColor=inherit;gradientColor=inherit;fontColor=inherit;html=1;shadow=0;dashed=0;perimeter=none;whiteSpace=wrap;resizeWidth=1;align=left;spacing=10;" parent="OFvHK8oLk8vFniNFE01D-218" vertex="1">
          <mxGeometry y="361" width="200" height="30" as="geometry" />
        </mxCell>
        <mxCell id="OFvHK8oLk8vFniNFE01D-167" value="InstallKubeBinariesModule" style="strokeColor=inherit;fillColor=inherit;gradientColor=inherit;fontColor=inherit;html=1;shadow=0;dashed=0;perimeter=none;whiteSpace=wrap;resizeWidth=1;align=left;spacing=10;" parent="OFvHK8oLk8vFniNFE01D-218" vertex="1">
          <mxGeometry x="200" y="361" width="200" height="30" as="geometry" />
        </mxCell>
        <mxCell id="OFvHK8oLk8vFniNFE01D-168" value="InitClusterModule" style="strokeColor=inherit;fillColor=inherit;gradientColor=inherit;fontColor=inherit;html=1;shadow=0;dashed=0;perimeter=none;whiteSpace=wrap;resizeWidth=1;align=left;spacing=10;" parent="OFvHK8oLk8vFniNFE01D-218" vertex="1">
          <mxGeometry x="400" y="361" width="200" height="30" as="geometry" />
        </mxCell>
        <mxCell id="OFvHK8oLk8vFniNFE01D-169" value="JoinNodesModule" style="strokeColor=inherit;fillColor=inherit;gradientColor=inherit;fontColor=inherit;html=1;shadow=0;dashed=0;perimeter=none;whiteSpace=wrap;resizeWidth=1;align=left;spacing=10;" parent="OFvHK8oLk8vFniNFE01D-218" vertex="1">
          <mxGeometry y="391" width="200" height="30" as="geometry" />
        </mxCell>
        <mxCell id="OFvHK8oLk8vFniNFE01D-170" value="DeleteClusterModule" style="strokeColor=inherit;fillColor=inherit;gradientColor=inherit;fontColor=inherit;html=1;shadow=0;dashed=0;perimeter=none;whiteSpace=wrap;resizeWidth=1;align=left;spacing=10;" parent="OFvHK8oLk8vFniNFE01D-218" vertex="1">
          <mxGeometry x="200" y="391" width="200" height="30" as="geometry" />
        </mxCell>
        <mxCell id="OFvHK8oLk8vFniNFE01D-171" value="SaveKubeConfigModule" style="strokeColor=inherit;fillColor=inherit;gradientColor=inherit;fontColor=inherit;html=1;shadow=0;dashed=0;perimeter=none;whiteSpace=wrap;resizeWidth=1;align=left;spacing=10;" parent="OFvHK8oLk8vFniNFE01D-218" vertex="1">
          <mxGeometry x="400" y="391" width="200" height="30" as="geometry" />
        </mxCell>
        <mxCell id="OFvHK8oLk8vFniNFE01D-172" value="StatusModule-K8e" style="strokeColor=inherit;fillColor=inherit;gradientColor=inherit;fontColor=inherit;html=1;shadow=0;dashed=0;perimeter=none;whiteSpace=wrap;resizeWidth=1;align=left;spacing=10;" parent="OFvHK8oLk8vFniNFE01D-218" vertex="1">
          <mxGeometry y="421" width="200" height="30" as="geometry" />
        </mxCell>
        <mxCell id="OFvHK8oLk8vFniNFE01D-173" value="InstallKubeBinariesModule" style="strokeColor=inherit;fillColor=inherit;gradientColor=inherit;fontColor=inherit;html=1;shadow=0;dashed=0;perimeter=none;whiteSpace=wrap;resizeWidth=1;align=left;spacing=10;" parent="OFvHK8oLk8vFniNFE01D-218" vertex="1">
          <mxGeometry x="200" y="421" width="200" height="30" as="geometry" />
        </mxCell>
        <mxCell id="OFvHK8oLk8vFniNFE01D-174" value="InitKubernetesModule" style="strokeColor=inherit;fillColor=inherit;gradientColor=inherit;fontColor=inherit;html=1;shadow=0;dashed=0;perimeter=none;whiteSpace=wrap;resizeWidth=1;align=left;spacing=10;" parent="OFvHK8oLk8vFniNFE01D-218" vertex="1">
          <mxGeometry x="400" y="421" width="200" height="30" as="geometry" />
        </mxCell>
        <mxCell id="OFvHK8oLk8vFniNFE01D-175" value="JoinNodesModule" style="strokeColor=inherit;fillColor=inherit;gradientColor=inherit;fontColor=inherit;html=1;shadow=0;dashed=0;perimeter=none;whiteSpace=wrap;resizeWidth=1;align=left;spacing=10;" parent="OFvHK8oLk8vFniNFE01D-218" vertex="1">
          <mxGeometry y="451" width="200" height="30" as="geometry" />
        </mxCell>
        <mxCell id="OFvHK8oLk8vFniNFE01D-176" value="ResetClusterModule" style="strokeColor=inherit;fillColor=inherit;gradientColor=inherit;fontColor=inherit;html=1;shadow=0;dashed=0;perimeter=none;whiteSpace=wrap;resizeWidth=1;align=left;spacing=10;" parent="OFvHK8oLk8vFniNFE01D-218" vertex="1">
          <mxGeometry x="200" y="451" width="200" height="30" as="geometry" />
        </mxCell>
        <mxCell id="OFvHK8oLk8vFniNFE01D-177" value="CompareConfigAndClusterInfoModule" style="strokeColor=inherit;fillColor=inherit;gradientColor=inherit;fontColor=inherit;html=1;shadow=0;dashed=0;perimeter=none;whiteSpace=wrap;resizeWidth=1;align=left;spacing=10;" parent="OFvHK8oLk8vFniNFE01D-218" vertex="1">
          <mxGeometry x="400" y="451" width="200" height="30" as="geometry" />
        </mxCell>
        <mxCell id="OFvHK8oLk8vFniNFE01D-178" value="DeleteKubeNodeModule" style="strokeColor=inherit;fillColor=inherit;gradientColor=inherit;fontColor=inherit;html=1;shadow=0;dashed=0;perimeter=none;whiteSpace=wrap;resizeWidth=1;align=left;spacing=10;" parent="OFvHK8oLk8vFniNFE01D-218" vertex="1">
          <mxGeometry y="481" width="200" height="30" as="geometry" />
        </mxCell>
        <mxCell id="OFvHK8oLk8vFniNFE01D-179" value="SetUpgradePlanModule" style="strokeColor=inherit;fillColor=inherit;gradientColor=inherit;fontColor=inherit;html=1;shadow=0;dashed=0;perimeter=none;whiteSpace=wrap;resizeWidth=1;align=left;spacing=10;" parent="OFvHK8oLk8vFniNFE01D-218" vertex="1">
          <mxGeometry x="200" y="481" width="200" height="30" as="geometry" />
        </mxCell>
        <mxCell id="OFvHK8oLk8vFniNFE01D-180" value="ProgressiveUpgradeModule" style="strokeColor=inherit;fillColor=inherit;gradientColor=inherit;fontColor=inherit;html=1;shadow=0;dashed=0;perimeter=none;whiteSpace=wrap;resizeWidth=1;align=left;spacing=10;" parent="OFvHK8oLk8vFniNFE01D-218" vertex="1">
          <mxGeometry x="400" y="481" width="200" height="30" as="geometry" />
        </mxCell>
        <mxCell id="OFvHK8oLk8vFniNFE01D-181" value="SaveKubeConfigModule" style="strokeColor=inherit;fillColor=inherit;gradientColor=inherit;fontColor=inherit;html=1;shadow=0;dashed=0;perimeter=none;whiteSpace=wrap;resizeWidth=1;align=left;spacing=10;" parent="OFvHK8oLk8vFniNFE01D-218" vertex="1">
          <mxGeometry y="511" width="200" height="30" as="geometry" />
        </mxCell>
        <mxCell id="OFvHK8oLk8vFniNFE01D-182" value="ConfigureKubernetesModule" style="strokeColor=inherit;fillColor=inherit;gradientColor=inherit;fontColor=inherit;html=1;shadow=0;dashed=0;perimeter=none;whiteSpace=wrap;resizeWidth=1;align=left;spacing=10;" parent="OFvHK8oLk8vFniNFE01D-218" vertex="1">
          <mxGeometry x="200" y="511" width="200" height="30" as="geometry" />
        </mxCell>
        <mxCell id="OFvHK8oLk8vFniNFE01D-183" value="SecurityEnhancementModule" style="strokeColor=inherit;fillColor=inherit;gradientColor=inherit;fontColor=inherit;html=1;shadow=0;dashed=0;perimeter=none;whiteSpace=wrap;resizeWidth=1;align=left;spacing=10;" parent="OFvHK8oLk8vFniNFE01D-218" vertex="1">
          <mxGeometry x="400" y="511" width="200" height="30" as="geometry" />
        </mxCell>
        <mxCell id="OFvHK8oLk8vFniNFE01D-184" value="DeployModule" style="strokeColor=inherit;fillColor=inherit;gradientColor=inherit;fontColor=inherit;html=1;shadow=0;dashed=0;perimeter=none;whiteSpace=wrap;resizeWidth=1;align=left;spacing=10;" parent="OFvHK8oLk8vFniNFE01D-218" vertex="1">
          <mxGeometry y="541" width="200" height="30" as="geometry" />
        </mxCell>
        <mxCell id="OFvHK8oLk8vFniNFE01D-185" value="CheckResultModule" style="strokeColor=inherit;fillColor=inherit;gradientColor=inherit;fontColor=inherit;html=1;shadow=0;dashed=0;perimeter=none;whiteSpace=wrap;resizeWidth=1;align=left;spacing=10;" parent="OFvHK8oLk8vFniNFE01D-218" vertex="1">
          <mxGeometry x="200" y="541" width="200" height="30" as="geometry" />
        </mxCell>
        <mxCell id="OFvHK8oLk8vFniNFE01D-186" value="CleanClusterConfigurationModule" style="strokeColor=inherit;fillColor=inherit;gradientColor=inherit;fontColor=inherit;html=1;shadow=0;dashed=0;perimeter=none;whiteSpace=wrap;resizeWidth=1;align=left;spacing=10;" parent="OFvHK8oLk8vFniNFE01D-218" vertex="1">
          <mxGeometry x="400" y="541" width="200" height="30" as="geometry" />
        </mxCell>
        <mxCell id="OFvHK8oLk8vFniNFE01D-187" value="ConvertModule" style="strokeColor=inherit;fillColor=inherit;gradientColor=inherit;fontColor=inherit;html=1;shadow=0;dashed=0;perimeter=none;whiteSpace=wrap;resizeWidth=1;align=left;spacing=10;" parent="OFvHK8oLk8vFniNFE01D-218" vertex="1">
          <mxGeometry y="571" width="200" height="30" as="geometry" />
        </mxCell>
        <mxCell id="OFvHK8oLk8vFniNFE01D-188" value="HaproxyModule" style="strokeColor=inherit;fillColor=inherit;gradientColor=inherit;fontColor=inherit;html=1;shadow=0;dashed=0;perimeter=none;whiteSpace=wrap;resizeWidth=1;align=left;spacing=10;" parent="OFvHK8oLk8vFniNFE01D-218" vertex="1">
          <mxGeometry x="200" y="571" width="200" height="30" as="geometry" />
        </mxCell>
        <mxCell id="OFvHK8oLk8vFniNFE01D-189" value="KubevipModule" style="strokeColor=inherit;fillColor=inherit;gradientColor=inherit;fontColor=inherit;html=1;shadow=0;dashed=0;perimeter=none;whiteSpace=wrap;resizeWidth=1;align=left;spacing=10;" parent="OFvHK8oLk8vFniNFE01D-218" vertex="1">
          <mxGeometry x="400" y="571" width="200" height="30" as="geometry" />
        </mxCell>
        <mxCell id="OFvHK8oLk8vFniNFE01D-190" value="K3sHaproxyModule" style="strokeColor=inherit;fillColor=inherit;gradientColor=inherit;fontColor=inherit;html=1;shadow=0;dashed=0;perimeter=none;whiteSpace=wrap;resizeWidth=1;align=left;spacing=10;" parent="OFvHK8oLk8vFniNFE01D-218" vertex="1">
          <mxGeometry y="601" width="200" height="30" as="geometry" />
        </mxCell>
        <mxCell id="OFvHK8oLk8vFniNFE01D-191" value="K3sKubevipModule" style="strokeColor=inherit;fillColor=inherit;gradientColor=inherit;fontColor=inherit;html=1;shadow=0;dashed=0;perimeter=none;whiteSpace=wrap;resizeWidth=1;align=left;spacing=10;" parent="OFvHK8oLk8vFniNFE01D-218" vertex="1">
          <mxGeometry x="200" y="601" width="200" height="30" as="geometry" />
        </mxCell>
        <mxCell id="OFvHK8oLk8vFniNFE01D-192" value="DeleteVIPModule" style="strokeColor=inherit;fillColor=inherit;gradientColor=inherit;fontColor=inherit;html=1;shadow=0;dashed=0;perimeter=none;whiteSpace=wrap;resizeWidth=1;align=left;spacing=10;" parent="OFvHK8oLk8vFniNFE01D-218" vertex="1">
          <mxGeometry x="400" y="601" width="200" height="30" as="geometry" />
        </mxCell>
        <mxCell id="OFvHK8oLk8vFniNFE01D-193" value="SyncBinaryModule" style="strokeColor=inherit;fillColor=inherit;gradientColor=inherit;fontColor=inherit;html=1;shadow=0;dashed=0;perimeter=none;whiteSpace=wrap;resizeWidth=1;align=left;spacing=10;" parent="OFvHK8oLk8vFniNFE01D-218" vertex="1">
          <mxGeometry y="631" width="200" height="30" as="geometry" />
        </mxCell>
        <mxCell id="OFvHK8oLk8vFniNFE01D-194" value="UpgradeK8sConfirmModule" style="strokeColor=inherit;fillColor=inherit;gradientColor=inherit;fontColor=inherit;html=1;shadow=0;dashed=0;perimeter=none;whiteSpace=wrap;resizeWidth=1;align=left;spacing=10;" parent="OFvHK8oLk8vFniNFE01D-218" vertex="1">
          <mxGeometry x="200" y="631" width="200" height="30" as="geometry" />
        </mxCell>
        <mxCell id="OFvHK8oLk8vFniNFE01D-195" value="UpgradeKsConfirmModule" style="strokeColor=inherit;fillColor=inherit;gradientColor=inherit;fontColor=inherit;html=1;shadow=0;dashed=0;perimeter=none;whiteSpace=wrap;resizeWidth=1;align=left;spacing=10;" parent="OFvHK8oLk8vFniNFE01D-218" vertex="1">
          <mxGeometry x="400" y="631" width="200" height="30" as="geometry" />
        </mxCell>
        <mxCell id="OFvHK8oLk8vFniNFE01D-196" value="CreateK8sConfirmModule" style="strokeColor=inherit;fillColor=inherit;gradientColor=inherit;fontColor=inherit;html=1;shadow=0;dashed=0;perimeter=none;whiteSpace=wrap;resizeWidth=1;align=left;spacing=10;" parent="OFvHK8oLk8vFniNFE01D-218" vertex="1">
          <mxGeometry y="661" width="200" height="30" as="geometry" />
        </mxCell>
        <mxCell id="OFvHK8oLk8vFniNFE01D-197" value="CreateKsConfirmModule" style="strokeColor=inherit;fillColor=inherit;gradientColor=inherit;fontColor=inherit;html=1;shadow=0;dashed=0;perimeter=none;whiteSpace=wrap;resizeWidth=1;align=left;spacing=10;" parent="OFvHK8oLk8vFniNFE01D-218" vertex="1">
          <mxGeometry x="200" y="661" width="200" height="30" as="geometry" />
        </mxCell>
        <mxCell id="OFvHK8oLk8vFniNFE01D-198" value="PreCheckModule" style="strokeColor=inherit;fillColor=inherit;gradientColor=inherit;fontColor=inherit;html=1;shadow=0;dashed=0;perimeter=none;whiteSpace=wrap;resizeWidth=1;align=left;spacing=10;" parent="OFvHK8oLk8vFniNFE01D-218" vertex="1">
          <mxGeometry x="400" y="661" width="200" height="30" as="geometry" />
        </mxCell>
        <mxCell id="OFvHK8oLk8vFniNFE01D-199" value="UpgradeImagesModule" style="strokeColor=inherit;fillColor=inherit;gradientColor=inherit;fontColor=inherit;html=1;shadow=0;dashed=0;perimeter=none;whiteSpace=wrap;resizeWidth=1;align=left;spacing=10;" parent="OFvHK8oLk8vFniNFE01D-218" vertex="1">
          <mxGeometry y="691" width="200" height="30" as="geometry" />
        </mxCell>
        <mxCell id="OFvHK8oLk8vFniNFE01D-200" value="setBinaryCacheModule" style="strokeColor=inherit;fillColor=inherit;gradientColor=inherit;fontColor=inherit;html=1;shadow=0;dashed=0;perimeter=none;whiteSpace=wrap;resizeWidth=1;align=left;spacing=10;" parent="OFvHK8oLk8vFniNFE01D-218" vertex="1">
          <mxGeometry x="200" y="691" width="200" height="30" as="geometry" />
        </mxCell>
        <mxCell id="OFvHK8oLk8vFniNFE01D-201" value="InstallKubeletModule" style="strokeColor=inherit;fillColor=inherit;gradientColor=inherit;fontColor=inherit;html=1;shadow=0;dashed=0;perimeter=none;whiteSpace=wrap;resizeWidth=1;align=left;spacing=10;" parent="OFvHK8oLk8vFniNFE01D-218" vertex="1">
          <mxGeometry x="400" y="691" width="200" height="30" as="geometry" />
        </mxCell>
        <mxCell id="OFvHK8oLk8vFniNFE01D-202" value="UpgradeNodesModule" style="strokeColor=inherit;fillColor=inherit;gradientColor=inherit;fontColor=inherit;html=1;shadow=0;dashed=0;perimeter=none;whiteSpace=wrap;resizeWidth=1;align=left;spacing=10;" parent="OFvHK8oLk8vFniNFE01D-218" vertex="1">
          <mxGeometry y="721" width="200" height="30" as="geometry" />
        </mxCell>
        <mxCell id="OFvHK8oLk8vFniNFE01D-203" value="UpgradePreCheckModule" style="strokeColor=inherit;fillColor=inherit;gradientColor=inherit;fontColor=inherit;html=1;shadow=0;dashed=0;perimeter=none;whiteSpace=wrap;resizeWidth=1;align=left;spacing=10;" parent="OFvHK8oLk8vFniNFE01D-218" vertex="1">
          <mxGeometry x="200" y="721" width="200" height="30" as="geometry" />
        </mxCell>
        <mxCell id="OFvHK8oLk8vFniNFE01D-204" value="UpgradeKubeSpherePreCheckModule" style="strokeColor=inherit;fillColor=inherit;gradientColor=inherit;fontColor=inherit;html=1;shadow=0;dashed=0;perimeter=none;whiteSpace=wrap;resizeWidth=1;align=left;spacing=10;" parent="OFvHK8oLk8vFniNFE01D-218" vertex="1">
          <mxGeometry x="400" y="721" width="200" height="30" as="geometry" />
        </mxCell>
        <mxCell id="OFvHK8oLk8vFniNFE01D-205" value="UpgradeksPhaseDependencyCheckModule" style="strokeColor=inherit;fillColor=inherit;gradientColor=inherit;fontColor=inherit;html=1;shadow=0;dashed=0;perimeter=none;whiteSpace=wrap;resizeWidth=1;align=left;spacing=10;" parent="OFvHK8oLk8vFniNFE01D-218" vertex="1">
          <mxGeometry y="751" width="200" height="30" as="geometry" />
        </mxCell>
        <mxCell id="OFvHK8oLk8vFniNFE01D-206" value="ClusterDNSModule" style="strokeColor=inherit;fillColor=inherit;gradientColor=inherit;fontColor=inherit;html=1;shadow=0;dashed=0;perimeter=none;whiteSpace=wrap;resizeWidth=1;align=left;spacing=10;" parent="OFvHK8oLk8vFniNFE01D-218" vertex="1">
          <mxGeometry x="200" y="751" width="200" height="30" as="geometry" />
        </mxCell>
        <mxCell id="OFvHK8oLk8vFniNFE01D-207" value="DeployPluginsModule" style="strokeColor=inherit;fillColor=inherit;gradientColor=inherit;fontColor=inherit;html=1;shadow=0;dashed=0;perimeter=none;whiteSpace=wrap;resizeWidth=1;align=left;spacing=10;" parent="OFvHK8oLk8vFniNFE01D-218" vertex="1">
          <mxGeometry x="400" y="751" width="200" height="30" as="geometry" />
        </mxCell>
        <mxCell id="OFvHK8oLk8vFniNFE01D-211" value="DeployNetworkPluginModule" style="strokeColor=inherit;fillColor=inherit;gradientColor=inherit;fontColor=inherit;html=1;shadow=0;dashed=0;perimeter=none;whiteSpace=wrap;resizeWidth=1;align=left;spacing=10;" parent="OFvHK8oLk8vFniNFE01D-218" vertex="1">
          <mxGeometry y="781" width="200" height="30" as="geometry" />
        </mxCell>
        <mxCell id="OFvHK8oLk8vFniNFE01D-212" value="DeployLocalVolumeModule" style="strokeColor=inherit;fillColor=inherit;gradientColor=inherit;fontColor=inherit;html=1;shadow=0;dashed=0;perimeter=none;whiteSpace=wrap;resizeWidth=1;align=left;spacing=10;" parent="OFvHK8oLk8vFniNFE01D-218" vertex="1">
          <mxGeometry x="200" y="781" width="200" height="30" as="geometry" />
        </mxCell>
        <mxCell id="OFvHK8oLk8vFniNFE01D-213" value="UnArchiveModule" style="strokeColor=inherit;fillColor=inherit;gradientColor=inherit;fontColor=inherit;html=1;shadow=0;dashed=0;perimeter=none;whiteSpace=wrap;resizeWidth=1;align=left;spacing=10;" parent="OFvHK8oLk8vFniNFE01D-218" vertex="1">
          <mxGeometry x="200" y="1" width="200" height="30" as="geometry" />
        </mxCell>
      </root>
    </mxGraphModel>
  </diagram>
  <diagram id="V3mMFFbiYjzkIFgd1ADA" name="task">
    <mxGraphModel dx="808" dy="-484" grid="1" gridSize="10" guides="1" tooltips="1" connect="1" arrows="1" fold="1" page="1" pageScale="1" pageWidth="827" pageHeight="1169" background="#ffffff" math="0" shadow="0">
      <root>
        <mxCell id="0" />
        <mxCell id="1" parent="0" />
        <mxCell id="_2VV7HISji7NtBxnm5yi-1" value="Task" style="swimlane;childLayout=stackLayout;horizontal=1;fillColor=none;horizontalStack=1;resizeParent=1;resizeParentMax=0;resizeLast=0;collapsible=0;strokeColor=none;stackBorder=10;stackSpacing=-12;resizable=1;align=center;points=[];whiteSpace=wrap;html=1;" parent="1" vertex="1">
          <mxGeometry x="200" y="1320" width="384" height="100" as="geometry" />
        </mxCell>
        <mxCell id="_2VV7HISji7NtBxnm5yi-2" value="Init" style="shape=step;perimeter=stepPerimeter;fixedSize=1;points=[];whiteSpace=wrap;html=1;" parent="_2VV7HISji7NtBxnm5yi-1" vertex="1">
          <mxGeometry x="10" y="33" width="100" height="57" as="geometry" />
        </mxCell>
        <mxCell id="_2VV7HISji7NtBxnm5yi-3" value="GetDesc" style="shape=step;perimeter=stepPerimeter;fixedSize=1;points=[];whiteSpace=wrap;html=1;" parent="_2VV7HISji7NtBxnm5yi-1" vertex="1">
          <mxGeometry x="98" y="33" width="100" height="57" as="geometry" />
        </mxCell>
        <mxCell id="_2VV7HISji7NtBxnm5yi-4" value="Execute" style="shape=step;perimeter=stepPerimeter;fixedSize=1;points=[];whiteSpace=wrap;html=1;" parent="_2VV7HISji7NtBxnm5yi-1" vertex="1">
          <mxGeometry x="186" y="33" width="100" height="57" as="geometry" />
        </mxCell>
        <mxCell id="_2VV7HISji7NtBxnm5yi-5" value="ExecuteRollback" style="shape=step;perimeter=stepPerimeter;fixedSize=1;points=[];whiteSpace=wrap;html=1;" parent="_2VV7HISji7NtBxnm5yi-1" vertex="1">
          <mxGeometry x="274" y="33" width="100" height="57" as="geometry" />
        </mxCell>
        <mxCell id="eMB9HuW2Fb0xIjqryYv6-51" value="" style="shape=table;startSize=0;container=1;collapsible=0;childLayout=tableLayout;fontSize=12;" parent="1" vertex="1">
          <mxGeometry x="41" y="1521" width="900" height="1640" as="geometry" />
        </mxCell>
        <mxCell id="eMB9HuW2Fb0xIjqryYv6-52" value="" style="shape=tableRow;horizontal=0;startSize=0;swimlaneHead=0;swimlaneBody=0;strokeColor=inherit;top=0;left=0;bottom=0;right=0;collapsible=0;dropTarget=0;fillColor=none;points=[[0,0.5],[1,0.5]];portConstraint=eastwest;fontSize=12;" parent="eMB9HuW2Fb0xIjqryYv6-51" vertex="1">
          <mxGeometry width="900" height="40" as="geometry" />
        </mxCell>
        <mxCell id="eMB9HuW2Fb0xIjqryYv6-53" value="&lt;font style=&quot;font-size: 12px;&quot;&gt;AddInstallerConfig&lt;/font&gt;" style="shape=partialRectangle;html=1;whiteSpace=wrap;connectable=0;strokeColor=inherit;overflow=hidden;fillColor=none;top=0;left=0;bottom=0;right=0;pointerEvents=1;fontSize=12;" parent="eMB9HuW2Fb0xIjqryYv6-52" vertex="1">
          <mxGeometry width="180" height="40" as="geometry">
            <mxRectangle width="180" height="40" as="alternateBounds" />
          </mxGeometry>
        </mxCell>
        <mxCell id="eMB9HuW2Fb0xIjqryYv6-54" value="&lt;font style=&quot;font-size: 12px;&quot;&gt;AddLocalRepository&lt;/font&gt;" style="shape=partialRectangle;html=1;whiteSpace=wrap;connectable=0;strokeColor=inherit;overflow=hidden;fillColor=none;top=0;left=0;bottom=0;right=0;pointerEvents=1;fontSize=12;" parent="eMB9HuW2Fb0xIjqryYv6-52" vertex="1">
          <mxGeometry x="180" width="180" height="40" as="geometry">
            <mxRectangle width="180" height="40" as="alternateBounds" />
          </mxGeometry>
        </mxCell>
        <mxCell id="eMB9HuW2Fb0xIjqryYv6-55" value="&lt;font style=&quot;font-size: 12px;&quot;&gt;AddMasterTaint-k3s&lt;/font&gt;" style="shape=partialRectangle;html=1;whiteSpace=wrap;connectable=0;strokeColor=inherit;overflow=hidden;fillColor=none;top=0;left=0;bottom=0;right=0;pointerEvents=1;fontSize=12;" parent="eMB9HuW2Fb0xIjqryYv6-52" vertex="1">
          <mxGeometry x="360" width="180" height="40" as="geometry">
            <mxRectangle width="180" height="40" as="alternateBounds" />
          </mxGeometry>
        </mxCell>
        <mxCell id="eMB9HuW2Fb0xIjqryYv6-64" value="&lt;font style=&quot;font-size: 12px;&quot;&gt;AddMasterTaint-k8e&lt;/font&gt;" style="shape=partialRectangle;html=1;whiteSpace=wrap;connectable=0;strokeColor=inherit;overflow=hidden;fillColor=none;top=0;left=0;bottom=0;right=0;pointerEvents=1;fontSize=12;" parent="eMB9HuW2Fb0xIjqryYv6-52" vertex="1">
          <mxGeometry x="540" width="180" height="40" as="geometry">
            <mxRectangle width="180" height="40" as="alternateBounds" />
          </mxGeometry>
        </mxCell>
        <mxCell id="eMB9HuW2Fb0xIjqryYv6-67" value="AddWorkerLabel-k3s" style="shape=partialRectangle;html=1;whiteSpace=wrap;connectable=0;strokeColor=inherit;overflow=hidden;fillColor=none;top=0;left=0;bottom=0;right=0;pointerEvents=1;fontSize=12;" parent="eMB9HuW2Fb0xIjqryYv6-52" vertex="1">
          <mxGeometry x="720" width="180" height="40" as="geometry">
            <mxRectangle width="180" height="40" as="alternateBounds" />
          </mxGeometry>
        </mxCell>
        <mxCell id="eMB9HuW2Fb0xIjqryYv6-56" value="" style="shape=tableRow;horizontal=0;startSize=0;swimlaneHead=0;swimlaneBody=0;strokeColor=inherit;top=0;left=0;bottom=0;right=0;collapsible=0;dropTarget=0;fillColor=none;points=[[0,0.5],[1,0.5]];portConstraint=eastwest;fontSize=12;" parent="eMB9HuW2Fb0xIjqryYv6-51" vertex="1">
          <mxGeometry y="40" width="900" height="40" as="geometry" />
        </mxCell>
        <mxCell id="eMB9HuW2Fb0xIjqryYv6-57" value="AddWorkerLabel-k8e" style="shape=partialRectangle;html=1;whiteSpace=wrap;connectable=0;strokeColor=inherit;overflow=hidden;fillColor=none;top=0;left=0;bottom=0;right=0;pointerEvents=1;fontSize=12;" parent="eMB9HuW2Fb0xIjqryYv6-56" vertex="1">
          <mxGeometry width="180" height="40" as="geometry">
            <mxRectangle width="180" height="40" as="alternateBounds" />
          </mxGeometry>
        </mxCell>
        <mxCell id="eMB9HuW2Fb0xIjqryYv6-58" value="AddworkerLabel-k8s" style="shape=partialRectangle;html=1;whiteSpace=wrap;connectable=0;strokeColor=inherit;overflow=hidden;fillColor=none;top=0;left=0;bottom=0;right=0;pointerEvents=1;fontSize=12;" parent="eMB9HuW2Fb0xIjqryYv6-56" vertex="1">
          <mxGeometry x="180" width="180" height="40" as="geometry">
            <mxRectangle width="180" height="40" as="alternateBounds" />
          </mxGeometry>
        </mxCell>
        <mxCell id="eMB9HuW2Fb0xIjqryYv6-59" value="Apply" style="shape=partialRectangle;html=1;whiteSpace=wrap;connectable=0;strokeColor=inherit;overflow=hidden;fillColor=none;top=0;left=0;bottom=0;right=0;pointerEvents=1;fontSize=12;" parent="eMB9HuW2Fb0xIjqryYv6-56" vertex="1">
          <mxGeometry x="360" width="180" height="40" as="geometry">
            <mxRectangle width="180" height="40" as="alternateBounds" />
          </mxGeometry>
        </mxCell>
        <mxCell id="eMB9HuW2Fb0xIjqryYv6-65" value="ApplyKataDeployManifests" style="shape=partialRectangle;html=1;whiteSpace=wrap;connectable=0;strokeColor=inherit;overflow=hidden;fillColor=none;top=0;left=0;bottom=0;right=0;pointerEvents=1;fontSize=12;" parent="eMB9HuW2Fb0xIjqryYv6-56" vertex="1">
          <mxGeometry x="540" width="180" height="40" as="geometry">
            <mxRectangle width="180" height="40" as="alternateBounds" />
          </mxGeometry>
        </mxCell>
        <mxCell id="eMB9HuW2Fb0xIjqryYv6-68" value="ApplyNodeFeatureDiscoveryManifests" style="shape=partialRectangle;html=1;whiteSpace=wrap;connectable=0;strokeColor=inherit;overflow=hidden;fillColor=none;top=0;left=0;bottom=0;right=0;pointerEvents=1;fontSize=12;" parent="eMB9HuW2Fb0xIjqryYv6-56" vertex="1">
          <mxGeometry x="720" width="180" height="40" as="geometry">
            <mxRectangle width="180" height="40" as="alternateBounds" />
          </mxGeometry>
        </mxCell>
        <mxCell id="eMB9HuW2Fb0xIjqryYv6-60" value="" style="shape=tableRow;horizontal=0;startSize=0;swimlaneHead=0;swimlaneBody=0;strokeColor=inherit;top=0;left=0;bottom=0;right=0;collapsible=0;dropTarget=0;fillColor=none;points=[[0,0.5],[1,0.5]];portConstraint=eastwest;fontSize=12;" parent="eMB9HuW2Fb0xIjqryYv6-51" vertex="1">
          <mxGeometry y="80" width="900" height="40" as="geometry" />
        </mxCell>
        <mxCell id="eMB9HuW2Fb0xIjqryYv6-61" value="ApplyNodeLocalDNSConfigMap" style="shape=partialRectangle;html=1;whiteSpace=wrap;connectable=0;strokeColor=inherit;overflow=hidden;fillColor=none;top=0;left=0;bottom=0;right=0;pointerEvents=1;fontSize=12;" parent="eMB9HuW2Fb0xIjqryYv6-60" vertex="1">
          <mxGeometry width="180" height="40" as="geometry">
            <mxRectangle width="180" height="40" as="alternateBounds" />
          </mxGeometry>
        </mxCell>
        <mxCell id="eMB9HuW2Fb0xIjqryYv6-62" value="ArchiveDependencies" style="shape=partialRectangle;html=1;whiteSpace=wrap;connectable=0;strokeColor=inherit;overflow=hidden;fillColor=none;top=0;left=0;bottom=0;right=0;pointerEvents=1;fontSize=12;" parent="eMB9HuW2Fb0xIjqryYv6-60" vertex="1">
          <mxGeometry x="180" width="180" height="40" as="geometry">
            <mxRectangle width="180" height="40" as="alternateBounds" />
          </mxGeometry>
        </mxCell>
        <mxCell id="eMB9HuW2Fb0xIjqryYv6-63" value="ArtifactAction" style="shape=partialRectangle;html=1;whiteSpace=wrap;connectable=0;strokeColor=inherit;overflow=hidden;fillColor=none;top=0;left=0;bottom=0;right=0;pointerEvents=1;fontSize=12;" parent="eMB9HuW2Fb0xIjqryYv6-60" vertex="1">
          <mxGeometry x="360" width="180" height="40" as="geometry">
            <mxRectangle width="180" height="40" as="alternateBounds" />
          </mxGeometry>
        </mxCell>
        <mxCell id="eMB9HuW2Fb0xIjqryYv6-66" value="ArtifactDownload" style="shape=partialRectangle;html=1;whiteSpace=wrap;connectable=0;strokeColor=inherit;overflow=hidden;fillColor=none;top=0;left=0;bottom=0;right=0;pointerEvents=1;fontSize=12;" parent="eMB9HuW2Fb0xIjqryYv6-60" vertex="1">
          <mxGeometry x="540" width="180" height="40" as="geometry">
            <mxRectangle width="180" height="40" as="alternateBounds" />
          </mxGeometry>
        </mxCell>
        <mxCell id="eMB9HuW2Fb0xIjqryYv6-69" value="BackupETCD" style="shape=partialRectangle;html=1;whiteSpace=wrap;connectable=0;strokeColor=inherit;overflow=hidden;fillColor=none;top=0;left=0;bottom=0;right=0;pointerEvents=1;fontSize=12;" parent="eMB9HuW2Fb0xIjqryYv6-60" vertex="1">
          <mxGeometry x="720" width="180" height="40" as="geometry">
            <mxRectangle width="180" height="40" as="alternateBounds" />
          </mxGeometry>
        </mxCell>
        <mxCell id="eMB9HuW2Fb0xIjqryYv6-70" value="" style="shape=tableRow;horizontal=0;startSize=0;swimlaneHead=0;swimlaneBody=0;strokeColor=inherit;top=0;left=0;bottom=0;right=0;collapsible=0;dropTarget=0;fillColor=none;points=[[0,0.5],[1,0.5]];portConstraint=eastwest;fontSize=12;" parent="eMB9HuW2Fb0xIjqryYv6-51" vertex="1">
          <mxGeometry y="120" width="900" height="40" as="geometry" />
        </mxCell>
        <mxCell id="eMB9HuW2Fb0xIjqryYv6-71" value="BackupOriginalRespository" style="shape=partialRectangle;html=1;whiteSpace=wrap;connectable=0;strokeColor=inherit;overflow=hidden;fillColor=none;top=0;left=0;bottom=0;right=0;pointerEvents=1;fontSize=12;" parent="eMB9HuW2Fb0xIjqryYv6-70" vertex="1">
          <mxGeometry width="180" height="40" as="geometry">
            <mxRectangle width="180" height="40" as="alternateBounds" />
          </mxGeometry>
        </mxCell>
        <mxCell id="eMB9HuW2Fb0xIjqryYv6-72" value="BaseAction" style="shape=partialRectangle;html=1;whiteSpace=wrap;connectable=0;strokeColor=inherit;overflow=hidden;fillColor=none;top=0;left=0;bottom=0;right=0;pointerEvents=1;fontSize=12;" parent="eMB9HuW2Fb0xIjqryYv6-70" vertex="1">
          <mxGeometry x="180" width="180" height="40" as="geometry">
            <mxRectangle width="180" height="40" as="alternateBounds" />
          </mxGeometry>
        </mxCell>
        <mxCell id="eMB9HuW2Fb0xIjqryYv6-73" value="CalculateMaxK8sVersion" style="shape=partialRectangle;html=1;whiteSpace=wrap;connectable=0;strokeColor=inherit;overflow=hidden;fillColor=none;top=0;left=0;bottom=0;right=0;pointerEvents=1;fontSize=12;" parent="eMB9HuW2Fb0xIjqryYv6-70" vertex="1">
          <mxGeometry x="360" width="180" height="40" as="geometry">
            <mxRectangle width="180" height="40" as="alternateBounds" />
          </mxGeometry>
        </mxCell>
        <mxCell id="eMB9HuW2Fb0xIjqryYv6-74" value="CalculateMinK8sVersion" style="shape=partialRectangle;html=1;whiteSpace=wrap;connectable=0;strokeColor=inherit;overflow=hidden;fillColor=none;top=0;left=0;bottom=0;right=0;pointerEvents=1;fontSize=12;" parent="eMB9HuW2Fb0xIjqryYv6-70" vertex="1">
          <mxGeometry x="540" width="180" height="40" as="geometry">
            <mxRectangle width="180" height="40" as="alternateBounds" />
          </mxGeometry>
        </mxCell>
        <mxCell id="eMB9HuW2Fb0xIjqryYv6-75" value="CalculateNextVersion" style="shape=partialRectangle;html=1;whiteSpace=wrap;connectable=0;strokeColor=inherit;overflow=hidden;fillColor=none;top=0;left=0;bottom=0;right=0;pointerEvents=1;fontSize=12;" parent="eMB9HuW2Fb0xIjqryYv6-70" vertex="1">
          <mxGeometry x="720" width="180" height="40" as="geometry">
            <mxRectangle width="180" height="40" as="alternateBounds" />
          </mxGeometry>
        </mxCell>
        <mxCell id="eMB9HuW2Fb0xIjqryYv6-76" value="" style="shape=tableRow;horizontal=0;startSize=0;swimlaneHead=0;swimlaneBody=0;strokeColor=inherit;top=0;left=0;bottom=0;right=0;collapsible=0;dropTarget=0;fillColor=none;points=[[0,0.5],[1,0.5]];portConstraint=eastwest;fontSize=12;" parent="eMB9HuW2Fb0xIjqryYv6-51" vertex="1">
          <mxGeometry y="160" width="900" height="40" as="geometry" />
        </mxCell>
        <mxCell id="eMB9HuW2Fb0xIjqryYv6-77" value="Check" style="shape=partialRectangle;html=1;whiteSpace=wrap;connectable=0;strokeColor=inherit;overflow=hidden;fillColor=none;top=0;left=0;bottom=0;right=0;pointerEvents=1;fontSize=12;" parent="eMB9HuW2Fb0xIjqryYv6-76" vertex="1">
          <mxGeometry width="180" height="40" as="geometry">
            <mxRectangle width="180" height="40" as="alternateBounds" />
          </mxGeometry>
        </mxCell>
        <mxCell id="eMB9HuW2Fb0xIjqryYv6-78" value="CheckDesiredK8sVersion" style="shape=partialRectangle;html=1;whiteSpace=wrap;connectable=0;strokeColor=inherit;overflow=hidden;fillColor=none;top=0;left=0;bottom=0;right=0;pointerEvents=1;fontSize=12;" parent="eMB9HuW2Fb0xIjqryYv6-76" vertex="1">
          <mxGeometry x="180" width="180" height="40" as="geometry">
            <mxRectangle width="180" height="40" as="alternateBounds" />
          </mxGeometry>
        </mxCell>
        <mxCell id="eMB9HuW2Fb0xIjqryYv6-79" value="CheckFile" style="shape=partialRectangle;html=1;whiteSpace=wrap;connectable=0;strokeColor=inherit;overflow=hidden;fillColor=none;top=0;left=0;bottom=0;right=0;pointerEvents=1;fontSize=12;" parent="eMB9HuW2Fb0xIjqryYv6-76" vertex="1">
          <mxGeometry x="360" width="180" height="40" as="geometry">
            <mxRectangle width="180" height="40" as="alternateBounds" />
          </mxGeometry>
        </mxCell>
        <mxCell id="eMB9HuW2Fb0xIjqryYv6-80" value="CheckMember" style="shape=partialRectangle;html=1;whiteSpace=wrap;connectable=0;strokeColor=inherit;overflow=hidden;fillColor=none;top=0;left=0;bottom=0;right=0;pointerEvents=1;fontSize=12;" parent="eMB9HuW2Fb0xIjqryYv6-76" vertex="1">
          <mxGeometry x="540" width="180" height="40" as="geometry">
            <mxRectangle width="180" height="40" as="alternateBounds" />
          </mxGeometry>
        </mxCell>
        <mxCell id="eMB9HuW2Fb0xIjqryYv6-81" value="CheckUpgradeK8sVersion" style="shape=partialRectangle;html=1;whiteSpace=wrap;connectable=0;strokeColor=inherit;overflow=hidden;fillColor=none;top=0;left=0;bottom=0;right=0;pointerEvents=1;fontSize=12;" parent="eMB9HuW2Fb0xIjqryYv6-76" vertex="1">
          <mxGeometry x="720" width="180" height="40" as="geometry">
            <mxRectangle width="180" height="40" as="alternateBounds" />
          </mxGeometry>
        </mxCell>
        <mxCell id="eMB9HuW2Fb0xIjqryYv6-82" value="" style="shape=tableRow;horizontal=0;startSize=0;swimlaneHead=0;swimlaneBody=0;strokeColor=inherit;top=0;left=0;bottom=0;right=0;collapsible=0;dropTarget=0;fillColor=none;points=[[0,0.5],[1,0.5]];portConstraint=eastwest;fontSize=12;" parent="eMB9HuW2Fb0xIjqryYv6-51" vertex="1">
          <mxGeometry y="200" width="900" height="40" as="geometry" />
        </mxCell>
        <mxCell id="eMB9HuW2Fb0xIjqryYv6-83" value="CheckVIPAddress" style="shape=partialRectangle;html=1;whiteSpace=wrap;connectable=0;strokeColor=inherit;overflow=hidden;fillColor=none;top=0;left=0;bottom=0;right=0;pointerEvents=1;fontSize=12;" parent="eMB9HuW2Fb0xIjqryYv6-82" vertex="1">
          <mxGeometry width="180" height="40" as="geometry">
            <mxRectangle width="180" height="40" as="alternateBounds" />
          </mxGeometry>
        </mxCell>
        <mxCell id="eMB9HuW2Fb0xIjqryYv6-84" value="ChmodKubectlKo" style="shape=partialRectangle;html=1;whiteSpace=wrap;connectable=0;strokeColor=inherit;overflow=hidden;fillColor=none;top=0;left=0;bottom=0;right=0;pointerEvents=1;fontSize=12;" parent="eMB9HuW2Fb0xIjqryYv6-82" vertex="1">
          <mxGeometry x="180" width="180" height="40" as="geometry">
            <mxRectangle width="180" height="40" as="alternateBounds" />
          </mxGeometry>
        </mxCell>
        <mxCell id="eMB9HuW2Fb0xIjqryYv6-85" value="ChmodKubelet" style="shape=partialRectangle;html=1;whiteSpace=wrap;connectable=0;strokeColor=inherit;overflow=hidden;fillColor=none;top=0;left=0;bottom=0;right=0;pointerEvents=1;fontSize=12;" parent="eMB9HuW2Fb0xIjqryYv6-82" vertex="1">
          <mxGeometry x="360" width="180" height="40" as="geometry">
            <mxRectangle width="180" height="40" as="alternateBounds" />
          </mxGeometry>
        </mxCell>
        <mxCell id="eMB9HuW2Fb0xIjqryYv6-86" value="ChmodScript-k3s" style="shape=partialRectangle;html=1;whiteSpace=wrap;connectable=0;strokeColor=inherit;overflow=hidden;fillColor=none;top=0;left=0;bottom=0;right=0;pointerEvents=1;fontSize=12;" parent="eMB9HuW2Fb0xIjqryYv6-82" vertex="1">
          <mxGeometry x="540" width="180" height="40" as="geometry">
            <mxRectangle width="180" height="40" as="alternateBounds" />
          </mxGeometry>
        </mxCell>
        <mxCell id="eMB9HuW2Fb0xIjqryYv6-87" value="ChmodScript-k8e" style="shape=partialRectangle;html=1;whiteSpace=wrap;connectable=0;strokeColor=inherit;overflow=hidden;fillColor=none;top=0;left=0;bottom=0;right=0;pointerEvents=1;fontSize=12;" parent="eMB9HuW2Fb0xIjqryYv6-82" vertex="1">
          <mxGeometry x="720" width="180" height="40" as="geometry">
            <mxRectangle width="180" height="40" as="alternateBounds" />
          </mxGeometry>
        </mxCell>
        <mxCell id="eMB9HuW2Fb0xIjqryYv6-89" value="" style="shape=tableRow;horizontal=0;startSize=0;swimlaneHead=0;swimlaneBody=0;strokeColor=inherit;top=0;left=0;bottom=0;right=0;collapsible=0;dropTarget=0;fillColor=none;points=[[0,0.5],[1,0.5]];portConstraint=eastwest;fontSize=12;" parent="eMB9HuW2Fb0xIjqryYv6-51" vertex="1">
          <mxGeometry y="240" width="900" height="40" as="geometry" />
        </mxCell>
        <mxCell id="eMB9HuW2Fb0xIjqryYv6-90" value="ChownFileAndDir" style="shape=partialRectangle;html=1;whiteSpace=wrap;connectable=0;strokeColor=inherit;overflow=hidden;fillColor=none;top=0;left=0;bottom=0;right=0;pointerEvents=1;fontSize=12;" parent="eMB9HuW2Fb0xIjqryYv6-89" vertex="1">
          <mxGeometry width="180" height="40" as="geometry">
            <mxRectangle width="180" height="40" as="alternateBounds" />
          </mxGeometry>
        </mxCell>
        <mxCell id="eMB9HuW2Fb0xIjqryYv6-91" value="CleanCC" style="shape=partialRectangle;html=1;whiteSpace=wrap;connectable=0;strokeColor=inherit;overflow=hidden;fillColor=none;top=0;left=0;bottom=0;right=0;pointerEvents=1;fontSize=12;" parent="eMB9HuW2Fb0xIjqryYv6-89" vertex="1">
          <mxGeometry x="180" width="180" height="40" as="geometry">
            <mxRectangle width="180" height="40" as="alternateBounds" />
          </mxGeometry>
        </mxCell>
        <mxCell id="eMB9HuW2Fb0xIjqryYv6-92" value="ConfigureKubernetes" style="shape=partialRectangle;html=1;whiteSpace=wrap;connectable=0;strokeColor=inherit;overflow=hidden;fillColor=none;top=0;left=0;bottom=0;right=0;pointerEvents=1;fontSize=12;" parent="eMB9HuW2Fb0xIjqryYv6-89" vertex="1">
          <mxGeometry x="360" width="180" height="40" as="geometry">
            <mxRectangle width="180" height="40" as="alternateBounds" />
          </mxGeometry>
        </mxCell>
        <mxCell id="eMB9HuW2Fb0xIjqryYv6-93" value="ConvertV2ToV3" style="shape=partialRectangle;html=1;whiteSpace=wrap;connectable=0;strokeColor=inherit;overflow=hidden;fillColor=none;top=0;left=0;bottom=0;right=0;pointerEvents=1;fontSize=12;" parent="eMB9HuW2Fb0xIjqryYv6-89" vertex="1">
          <mxGeometry x="540" width="180" height="40" as="geometry">
            <mxRectangle width="180" height="40" as="alternateBounds" />
          </mxGeometry>
        </mxCell>
        <mxCell id="eMB9HuW2Fb0xIjqryYv6-94" value="CopyImagesToRegistry" style="shape=partialRectangle;html=1;whiteSpace=wrap;connectable=0;strokeColor=inherit;overflow=hidden;fillColor=none;top=0;left=0;bottom=0;right=0;pointerEvents=1;fontSize=12;" parent="eMB9HuW2Fb0xIjqryYv6-89" vertex="1">
          <mxGeometry x="720" width="180" height="40" as="geometry">
            <mxRectangle width="180" height="40" as="alternateBounds" />
          </mxGeometry>
        </mxCell>
        <mxCell id="eMB9HuW2Fb0xIjqryYv6-95" value="" style="shape=tableRow;horizontal=0;startSize=0;swimlaneHead=0;swimlaneBody=0;strokeColor=inherit;top=0;left=0;bottom=0;right=0;collapsible=0;dropTarget=0;fillColor=none;points=[[0,0.5],[1,0.5]];portConstraint=eastwest;fontSize=12;" parent="eMB9HuW2Fb0xIjqryYv6-51" vertex="1">
          <mxGeometry y="280" width="900" height="40" as="geometry" />
        </mxCell>
        <mxCell id="eMB9HuW2Fb0xIjqryYv6-96" value="CopyImagesToRegistry" style="shape=partialRectangle;html=1;whiteSpace=wrap;connectable=0;strokeColor=inherit;overflow=hidden;fillColor=none;top=0;left=0;bottom=0;right=0;pointerEvents=1;fontSize=12;" parent="eMB9HuW2Fb0xIjqryYv6-95" vertex="1">
          <mxGeometry width="180" height="40" as="geometry">
            <mxRectangle width="180" height="40" as="alternateBounds" />
          </mxGeometry>
        </mxCell>
        <mxCell id="eMB9HuW2Fb0xIjqryYv6-97" value="CopyK8eKubeConfig" style="shape=partialRectangle;html=1;whiteSpace=wrap;connectable=0;strokeColor=inherit;overflow=hidden;fillColor=none;top=0;left=0;bottom=0;right=0;pointerEvents=1;fontSize=12;" parent="eMB9HuW2Fb0xIjqryYv6-95" vertex="1">
          <mxGeometry x="180" width="180" height="40" as="geometry">
            <mxRectangle width="180" height="40" as="alternateBounds" />
          </mxGeometry>
        </mxCell>
        <mxCell id="eMB9HuW2Fb0xIjqryYv6-98" value="CopyKubeConfigForControlPlane" style="shape=partialRectangle;html=1;whiteSpace=wrap;connectable=0;strokeColor=inherit;overflow=hidden;fillColor=none;top=0;left=0;bottom=0;right=0;pointerEvents=1;fontSize=12;" parent="eMB9HuW2Fb0xIjqryYv6-95" vertex="1">
          <mxGeometry x="360" width="180" height="40" as="geometry">
            <mxRectangle width="180" height="40" as="alternateBounds" />
          </mxGeometry>
        </mxCell>
        <mxCell id="eMB9HuW2Fb0xIjqryYv6-99" value="CordonNode" style="shape=partialRectangle;html=1;whiteSpace=wrap;connectable=0;strokeColor=inherit;overflow=hidden;fillColor=none;top=0;left=0;bottom=0;right=0;pointerEvents=1;fontSize=12;" parent="eMB9HuW2Fb0xIjqryYv6-95" vertex="1">
          <mxGeometry x="540" width="180" height="40" as="geometry">
            <mxRectangle width="180" height="40" as="alternateBounds" />
          </mxGeometry>
        </mxCell>
        <mxCell id="eMB9HuW2Fb0xIjqryYv6-100" value="CreateK8sConfirm" style="shape=partialRectangle;html=1;whiteSpace=wrap;connectable=0;strokeColor=inherit;overflow=hidden;fillColor=none;top=0;left=0;bottom=0;right=0;pointerEvents=1;fontSize=12;" parent="eMB9HuW2Fb0xIjqryYv6-95" vertex="1">
          <mxGeometry x="720" width="180" height="40" as="geometry">
            <mxRectangle width="180" height="40" as="alternateBounds" />
          </mxGeometry>
        </mxCell>
        <mxCell id="eMB9HuW2Fb0xIjqryYv6-101" value="" style="shape=tableRow;horizontal=0;startSize=0;swimlaneHead=0;swimlaneBody=0;strokeColor=inherit;top=0;left=0;bottom=0;right=0;collapsible=0;dropTarget=0;fillColor=none;points=[[0,0.5],[1,0.5]];portConstraint=eastwest;fontSize=12;" parent="eMB9HuW2Fb0xIjqryYv6-51" vertex="1">
          <mxGeometry y="320" width="900" height="40" as="geometry" />
        </mxCell>
        <mxCell id="eMB9HuW2Fb0xIjqryYv6-102" value="CreateKsConfirm" style="shape=partialRectangle;html=1;whiteSpace=wrap;connectable=0;strokeColor=inherit;overflow=hidden;fillColor=none;top=0;left=0;bottom=0;right=0;pointerEvents=1;fontSize=12;" parent="eMB9HuW2Fb0xIjqryYv6-101" vertex="1">
          <mxGeometry width="180" height="40" as="geometry">
            <mxRectangle width="180" height="40" as="alternateBounds" />
          </mxGeometry>
        </mxCell>
        <mxCell id="eMB9HuW2Fb0xIjqryYv6-103" value="CreateManifestsFolder" style="shape=partialRectangle;html=1;whiteSpace=wrap;connectable=0;strokeColor=inherit;overflow=hidden;fillColor=none;top=0;left=0;bottom=0;right=0;pointerEvents=1;fontSize=12;" parent="eMB9HuW2Fb0xIjqryYv6-101" vertex="1">
          <mxGeometry x="180" width="180" height="40" as="geometry">
            <mxRectangle width="180" height="40" as="alternateBounds" />
          </mxGeometry>
        </mxCell>
        <mxCell id="eMB9HuW2Fb0xIjqryYv6-104" value="CreateMd5File" style="shape=partialRectangle;html=1;whiteSpace=wrap;connectable=0;strokeColor=inherit;overflow=hidden;fillColor=none;top=0;left=0;bottom=0;right=0;pointerEvents=1;fontSize=12;" parent="eMB9HuW2Fb0xIjqryYv6-101" vertex="1">
          <mxGeometry x="360" width="180" height="40" as="geometry">
            <mxRectangle width="180" height="40" as="alternateBounds" />
          </mxGeometry>
        </mxCell>
        <mxCell id="eMB9HuW2Fb0xIjqryYv6-105" value="CreateNamespace" style="shape=partialRectangle;html=1;whiteSpace=wrap;connectable=0;strokeColor=inherit;overflow=hidden;fillColor=none;top=0;left=0;bottom=0;right=0;pointerEvents=1;fontSize=12;" parent="eMB9HuW2Fb0xIjqryYv6-101" vertex="1">
          <mxGeometry x="540" width="180" height="40" as="geometry">
            <mxRectangle width="180" height="40" as="alternateBounds" />
          </mxGeometry>
        </mxCell>
        <mxCell id="eMB9HuW2Fb0xIjqryYv6-106" value="CriDownload" style="shape=partialRectangle;html=1;whiteSpace=wrap;connectable=0;strokeColor=inherit;overflow=hidden;fillColor=none;top=0;left=0;bottom=0;right=0;pointerEvents=1;fontSize=12;" parent="eMB9HuW2Fb0xIjqryYv6-101" vertex="1">
          <mxGeometry x="720" width="180" height="40" as="geometry">
            <mxRectangle width="180" height="40" as="alternateBounds" />
          </mxGeometry>
        </mxCell>
        <mxCell id="eMB9HuW2Fb0xIjqryYv6-107" value="" style="shape=tableRow;horizontal=0;startSize=0;swimlaneHead=0;swimlaneBody=0;strokeColor=inherit;top=0;left=0;bottom=0;right=0;collapsible=0;dropTarget=0;fillColor=none;points=[[0,0.5],[1,0.5]];portConstraint=eastwest;fontSize=12;" parent="eMB9HuW2Fb0xIjqryYv6-51" vertex="1">
          <mxGeometry y="360" width="900" height="40" as="geometry" />
        </mxCell>
        <mxCell id="eMB9HuW2Fb0xIjqryYv6-108" value="CustomScriptTask" style="shape=partialRectangle;html=1;whiteSpace=wrap;connectable=0;strokeColor=inherit;overflow=hidden;fillColor=none;top=0;left=0;bottom=0;right=0;pointerEvents=1;fontSize=12;" parent="eMB9HuW2Fb0xIjqryYv6-107" vertex="1">
          <mxGeometry width="180" height="40" as="geometry">
            <mxRectangle width="180" height="40" as="alternateBounds" />
          </mxGeometry>
        </mxCell>
        <mxCell id="eMB9HuW2Fb0xIjqryYv6-109" value="DaemonReload" style="shape=partialRectangle;html=1;whiteSpace=wrap;connectable=0;strokeColor=inherit;overflow=hidden;fillColor=none;top=0;left=0;bottom=0;right=0;pointerEvents=1;fontSize=12;" parent="eMB9HuW2Fb0xIjqryYv6-107" vertex="1">
          <mxGeometry x="180" width="180" height="40" as="geometry">
            <mxRectangle width="180" height="40" as="alternateBounds" />
          </mxGeometry>
        </mxCell>
        <mxCell id="eMB9HuW2Fb0xIjqryYv6-110" value="DeleteConfirm" style="shape=partialRectangle;html=1;whiteSpace=wrap;connectable=0;strokeColor=inherit;overflow=hidden;fillColor=none;top=0;left=0;bottom=0;right=0;pointerEvents=1;fontSize=12;" parent="eMB9HuW2Fb0xIjqryYv6-107" vertex="1">
          <mxGeometry x="360" width="180" height="40" as="geometry">
            <mxRectangle width="180" height="40" as="alternateBounds" />
          </mxGeometry>
        </mxCell>
        <mxCell id="eMB9HuW2Fb0xIjqryYv6-111" value="DeleteVIP" style="shape=partialRectangle;html=1;whiteSpace=wrap;connectable=0;strokeColor=inherit;overflow=hidden;fillColor=none;top=0;left=0;bottom=0;right=0;pointerEvents=1;fontSize=12;" parent="eMB9HuW2Fb0xIjqryYv6-107" vertex="1">
          <mxGeometry x="540" width="180" height="40" as="geometry">
            <mxRectangle width="180" height="40" as="alternateBounds" />
          </mxGeometry>
        </mxCell>
        <mxCell id="eMB9HuW2Fb0xIjqryYv6-112" value="DependencyCheck" style="shape=partialRectangle;html=1;whiteSpace=wrap;connectable=0;strokeColor=inherit;overflow=hidden;fillColor=none;top=0;left=0;bottom=0;right=0;pointerEvents=1;fontSize=12;" parent="eMB9HuW2Fb0xIjqryYv6-107" vertex="1">
          <mxGeometry x="720" width="180" height="40" as="geometry">
            <mxRectangle width="180" height="40" as="alternateBounds" />
          </mxGeometry>
        </mxCell>
        <mxCell id="eMB9HuW2Fb0xIjqryYv6-305" value="" style="shape=tableRow;horizontal=0;startSize=0;swimlaneHead=0;swimlaneBody=0;strokeColor=inherit;top=0;left=0;bottom=0;right=0;collapsible=0;dropTarget=0;fillColor=none;points=[[0,0.5],[1,0.5]];portConstraint=eastwest;fontSize=12;" parent="eMB9HuW2Fb0xIjqryYv6-51" vertex="1">
          <mxGeometry y="400" width="900" height="40" as="geometry" />
        </mxCell>
        <mxCell id="eMB9HuW2Fb0xIjqryYv6-306" value="DeployCilium" style="shape=partialRectangle;html=1;whiteSpace=wrap;connectable=0;strokeColor=inherit;overflow=hidden;fillColor=none;top=0;left=0;bottom=0;right=0;pointerEvents=1;fontSize=12;" parent="eMB9HuW2Fb0xIjqryYv6-305" vertex="1">
          <mxGeometry width="180" height="40" as="geometry">
            <mxRectangle width="180" height="40" as="alternateBounds" />
          </mxGeometry>
        </mxCell>
        <mxCell id="eMB9HuW2Fb0xIjqryYv6-307" value="DeployKubeovnPlugin" style="shape=partialRectangle;html=1;whiteSpace=wrap;connectable=0;strokeColor=inherit;overflow=hidden;fillColor=none;top=0;left=0;bottom=0;right=0;pointerEvents=1;fontSize=12;" parent="eMB9HuW2Fb0xIjqryYv6-305" vertex="1">
          <mxGeometry x="180" width="180" height="40" as="geometry">
            <mxRectangle width="180" height="40" as="alternateBounds" />
          </mxGeometry>
        </mxCell>
        <mxCell id="eMB9HuW2Fb0xIjqryYv6-308" value="DeployLocalVolume" style="shape=partialRectangle;html=1;whiteSpace=wrap;connectable=0;strokeColor=inherit;overflow=hidden;fillColor=none;top=0;left=0;bottom=0;right=0;pointerEvents=1;fontSize=12;" parent="eMB9HuW2Fb0xIjqryYv6-305" vertex="1">
          <mxGeometry x="360" width="180" height="40" as="geometry">
            <mxRectangle width="180" height="40" as="alternateBounds" />
          </mxGeometry>
        </mxCell>
        <mxCell id="eMB9HuW2Fb0xIjqryYv6-309" value="DeployNetworkMultusPlugin" style="shape=partialRectangle;html=1;whiteSpace=wrap;connectable=0;strokeColor=inherit;overflow=hidden;fillColor=none;top=0;left=0;bottom=0;right=0;pointerEvents=1;fontSize=12;" parent="eMB9HuW2Fb0xIjqryYv6-305" vertex="1">
          <mxGeometry x="540" width="180" height="40" as="geometry">
            <mxRectangle width="180" height="40" as="alternateBounds" />
          </mxGeometry>
        </mxCell>
        <mxCell id="eMB9HuW2Fb0xIjqryYv6-310" value="DeployNetworkPlugin" style="shape=partialRectangle;html=1;whiteSpace=wrap;connectable=0;strokeColor=inherit;overflow=hidden;fillColor=none;top=0;left=0;bottom=0;right=0;pointerEvents=1;fontSize=12;" parent="eMB9HuW2Fb0xIjqryYv6-305" vertex="1">
          <mxGeometry x="720" width="180" height="40" as="geometry">
            <mxRectangle width="180" height="40" as="alternateBounds" />
          </mxGeometry>
        </mxCell>
        <mxCell id="eMB9HuW2Fb0xIjqryYv6-113" value="" style="shape=tableRow;horizontal=0;startSize=0;swimlaneHead=0;swimlaneBody=0;strokeColor=inherit;top=0;left=0;bottom=0;right=0;collapsible=0;dropTarget=0;fillColor=none;points=[[0,0.5],[1,0.5]];portConstraint=eastwest;fontSize=12;" parent="eMB9HuW2Fb0xIjqryYv6-51" vertex="1">
          <mxGeometry y="440" width="900" height="40" as="geometry" />
        </mxCell>
        <mxCell id="eMB9HuW2Fb0xIjqryYv6-114" value="DeployNodeLocalDNS" style="shape=partialRectangle;html=1;whiteSpace=wrap;connectable=0;strokeColor=inherit;overflow=hidden;fillColor=none;top=0;left=0;bottom=0;right=0;pointerEvents=1;fontSize=12;" parent="eMB9HuW2Fb0xIjqryYv6-113" vertex="1">
          <mxGeometry width="180" height="40" as="geometry">
            <mxRectangle width="180" height="40" as="alternateBounds" />
          </mxGeometry>
        </mxCell>
        <mxCell id="eMB9HuW2Fb0xIjqryYv6-115" value="DisableDocker" style="shape=partialRectangle;html=1;whiteSpace=wrap;connectable=0;strokeColor=inherit;overflow=hidden;fillColor=none;top=0;left=0;bottom=0;right=0;pointerEvents=1;fontSize=12;" parent="eMB9HuW2Fb0xIjqryYv6-113" vertex="1">
          <mxGeometry x="180" width="180" height="40" as="geometry">
            <mxRectangle width="180" height="40" as="alternateBounds" />
          </mxGeometry>
        </mxCell>
        <mxCell id="eMB9HuW2Fb0xIjqryYv6-116" value="DisplayForm" style="shape=partialRectangle;html=1;whiteSpace=wrap;connectable=0;strokeColor=inherit;overflow=hidden;fillColor=none;top=0;left=0;bottom=0;right=0;pointerEvents=1;fontSize=12;" parent="eMB9HuW2Fb0xIjqryYv6-113" vertex="1">
          <mxGeometry x="360" width="180" height="40" as="geometry">
            <mxRectangle width="180" height="40" as="alternateBounds" />
          </mxGeometry>
        </mxCell>
        <mxCell id="eMB9HuW2Fb0xIjqryYv6-117" value="DockerLoginRegistry" style="shape=partialRectangle;html=1;whiteSpace=wrap;connectable=0;strokeColor=inherit;overflow=hidden;fillColor=none;top=0;left=0;bottom=0;right=0;pointerEvents=1;fontSize=12;" parent="eMB9HuW2Fb0xIjqryYv6-113" vertex="1">
          <mxGeometry x="540" width="180" height="40" as="geometry">
            <mxRectangle width="180" height="40" as="alternateBounds" />
          </mxGeometry>
        </mxCell>
        <mxCell id="eMB9HuW2Fb0xIjqryYv6-118" value="Download" style="shape=partialRectangle;html=1;whiteSpace=wrap;connectable=0;strokeColor=inherit;overflow=hidden;fillColor=none;top=0;left=0;bottom=0;right=0;pointerEvents=1;fontSize=12;" parent="eMB9HuW2Fb0xIjqryYv6-113" vertex="1">
          <mxGeometry x="720" width="180" height="40" as="geometry">
            <mxRectangle width="180" height="40" as="alternateBounds" />
          </mxGeometry>
        </mxCell>
        <mxCell id="eMB9HuW2Fb0xIjqryYv6-119" value="" style="shape=tableRow;horizontal=0;startSize=0;swimlaneHead=0;swimlaneBody=0;strokeColor=inherit;top=0;left=0;bottom=0;right=0;collapsible=0;dropTarget=0;fillColor=none;points=[[0,0.5],[1,0.5]];portConstraint=eastwest;fontSize=12;" parent="eMB9HuW2Fb0xIjqryYv6-51" vertex="1">
          <mxGeometry y="480" width="900" height="40" as="geometry" />
        </mxCell>
        <mxCell id="eMB9HuW2Fb0xIjqryYv6-120" value="DownloadISOFile" style="shape=partialRectangle;html=1;whiteSpace=wrap;connectable=0;strokeColor=inherit;overflow=hidden;fillColor=none;top=0;left=0;bottom=0;right=0;pointerEvents=1;fontSize=12;" parent="eMB9HuW2Fb0xIjqryYv6-119" vertex="1">
          <mxGeometry width="180" height="40" as="geometry">
            <mxRectangle width="180" height="40" as="alternateBounds" />
          </mxGeometry>
        </mxCell>
        <mxCell id="eMB9HuW2Fb0xIjqryYv6-121" value="DrainNode-containerd" style="shape=partialRectangle;html=1;whiteSpace=wrap;connectable=0;strokeColor=inherit;overflow=hidden;fillColor=none;top=0;left=0;bottom=0;right=0;pointerEvents=1;fontSize=12;" parent="eMB9HuW2Fb0xIjqryYv6-119" vertex="1">
          <mxGeometry x="180" width="180" height="40" as="geometry">
            <mxRectangle width="180" height="40" as="alternateBounds" />
          </mxGeometry>
        </mxCell>
        <mxCell id="eMB9HuW2Fb0xIjqryYv6-122" value="DrainNode-k8s" style="shape=partialRectangle;html=1;whiteSpace=wrap;connectable=0;strokeColor=inherit;overflow=hidden;fillColor=none;top=0;left=0;bottom=0;right=0;pointerEvents=1;fontSize=12;" parent="eMB9HuW2Fb0xIjqryYv6-119" vertex="1">
          <mxGeometry x="360" width="180" height="40" as="geometry">
            <mxRectangle width="180" height="40" as="alternateBounds" />
          </mxGeometry>
        </mxCell>
        <mxCell id="eMB9HuW2Fb0xIjqryYv6-123" value="EditKubeletCri" style="shape=partialRectangle;html=1;whiteSpace=wrap;connectable=0;strokeColor=inherit;overflow=hidden;fillColor=none;top=0;left=0;bottom=0;right=0;pointerEvents=1;fontSize=12;" parent="eMB9HuW2Fb0xIjqryYv6-119" vertex="1">
          <mxGeometry x="540" width="180" height="40" as="geometry">
            <mxRectangle width="180" height="40" as="alternateBounds" />
          </mxGeometry>
        </mxCell>
        <mxCell id="eMB9HuW2Fb0xIjqryYv6-124" value="EnableBackupETCDServerice" style="shape=partialRectangle;html=1;whiteSpace=wrap;connectable=0;strokeColor=inherit;overflow=hidden;fillColor=none;top=0;left=0;bottom=0;right=0;pointerEvents=1;fontSize=12;" parent="eMB9HuW2Fb0xIjqryYv6-119" vertex="1">
          <mxGeometry x="720" width="180" height="40" as="geometry">
            <mxRectangle width="180" height="40" as="alternateBounds" />
          </mxGeometry>
        </mxCell>
        <mxCell id="eMB9HuW2Fb0xIjqryYv6-125" value="" style="shape=tableRow;horizontal=0;startSize=0;swimlaneHead=0;swimlaneBody=0;strokeColor=inherit;top=0;left=0;bottom=0;right=0;collapsible=0;dropTarget=0;fillColor=none;points=[[0,0.5],[1,0.5]];portConstraint=eastwest;fontSize=12;" parent="eMB9HuW2Fb0xIjqryYv6-51" vertex="1">
          <mxGeometry y="520" width="900" height="40" as="geometry" />
        </mxCell>
        <mxCell id="eMB9HuW2Fb0xIjqryYv6-126" value="EnableContainerd" style="shape=partialRectangle;html=1;whiteSpace=wrap;connectable=0;strokeColor=inherit;overflow=hidden;fillColor=none;top=0;left=0;bottom=0;right=0;pointerEvents=1;fontSize=12;" parent="eMB9HuW2Fb0xIjqryYv6-125" vertex="1">
          <mxGeometry width="180" height="40" as="geometry">
            <mxRectangle width="180" height="40" as="alternateBounds" />
          </mxGeometry>
        </mxCell>
        <mxCell id="eMB9HuW2Fb0xIjqryYv6-127" value="EnableDocker" style="shape=partialRectangle;html=1;whiteSpace=wrap;connectable=0;strokeColor=inherit;overflow=hidden;fillColor=none;top=0;left=0;bottom=0;right=0;pointerEvents=1;fontSize=12;" parent="eMB9HuW2Fb0xIjqryYv6-125" vertex="1">
          <mxGeometry x="180" width="180" height="40" as="geometry">
            <mxRectangle width="180" height="40" as="alternateBounds" />
          </mxGeometry>
        </mxCell>
        <mxCell id="eMB9HuW2Fb0xIjqryYv6-128" value="EnableK3sService" style="shape=partialRectangle;html=1;whiteSpace=wrap;connectable=0;strokeColor=inherit;overflow=hidden;fillColor=none;top=0;left=0;bottom=0;right=0;pointerEvents=1;fontSize=12;" parent="eMB9HuW2Fb0xIjqryYv6-125" vertex="1">
          <mxGeometry x="360" width="180" height="40" as="geometry">
            <mxRectangle width="180" height="40" as="alternateBounds" />
          </mxGeometry>
        </mxCell>
        <mxCell id="eMB9HuW2Fb0xIjqryYv6-129" value="EnableK8sService" style="shape=partialRectangle;html=1;whiteSpace=wrap;connectable=0;strokeColor=inherit;overflow=hidden;fillColor=none;top=0;left=0;bottom=0;right=0;pointerEvents=1;fontSize=12;" parent="eMB9HuW2Fb0xIjqryYv6-125" vertex="1">
          <mxGeometry x="540" width="180" height="40" as="geometry">
            <mxRectangle width="180" height="40" as="alternateBounds" />
          </mxGeometry>
        </mxCell>
        <mxCell id="eMB9HuW2Fb0xIjqryYv6-130" value="EnableKubelet" style="shape=partialRectangle;html=1;whiteSpace=wrap;connectable=0;strokeColor=inherit;overflow=hidden;fillColor=none;top=0;left=0;bottom=0;right=0;pointerEvents=1;fontSize=12;" parent="eMB9HuW2Fb0xIjqryYv6-125" vertex="1">
          <mxGeometry x="720" width="180" height="40" as="geometry">
            <mxRectangle width="180" height="40" as="alternateBounds" />
          </mxGeometry>
        </mxCell>
        <mxCell id="eMB9HuW2Fb0xIjqryYv6-131" value="" style="shape=tableRow;horizontal=0;startSize=0;swimlaneHead=0;swimlaneBody=0;strokeColor=inherit;top=0;left=0;bottom=0;right=0;collapsible=0;dropTarget=0;fillColor=none;points=[[0,0.5],[1,0.5]];portConstraint=eastwest;fontSize=12;" parent="eMB9HuW2Fb0xIjqryYv6-51" vertex="1">
          <mxGeometry y="560" width="900" height="40" as="geometry" />
        </mxCell>
        <mxCell id="eMB9HuW2Fb0xIjqryYv6-132" value="EnableRenewService" style="shape=partialRectangle;html=1;whiteSpace=wrap;connectable=0;strokeColor=inherit;overflow=hidden;fillColor=none;top=0;left=0;bottom=0;right=0;pointerEvents=1;fontSize=12;" parent="eMB9HuW2Fb0xIjqryYv6-131" vertex="1">
          <mxGeometry width="180" height="40" as="geometry">
            <mxRectangle width="180" height="40" as="alternateBounds" />
          </mxGeometry>
        </mxCell>
        <mxCell id="eMB9HuW2Fb0xIjqryYv6-133" value="EtcdSecurityEnhancemenAction" style="shape=partialRectangle;html=1;whiteSpace=wrap;connectable=0;strokeColor=inherit;overflow=hidden;fillColor=none;top=0;left=0;bottom=0;right=0;pointerEvents=1;fontSize=12;" parent="eMB9HuW2Fb0xIjqryYv6-131" vertex="1">
          <mxGeometry x="180" width="180" height="40" as="geometry">
            <mxRectangle width="180" height="40" as="alternateBounds" />
          </mxGeometry>
        </mxCell>
        <mxCell id="eMB9HuW2Fb0xIjqryYv6-134" value="ExecUninstallScript-k3s" style="shape=partialRectangle;html=1;whiteSpace=wrap;connectable=0;strokeColor=inherit;overflow=hidden;fillColor=none;top=0;left=0;bottom=0;right=0;pointerEvents=1;fontSize=12;" parent="eMB9HuW2Fb0xIjqryYv6-131" vertex="1">
          <mxGeometry x="360" width="180" height="40" as="geometry">
            <mxRectangle width="180" height="40" as="alternateBounds" />
          </mxGeometry>
        </mxCell>
        <mxCell id="eMB9HuW2Fb0xIjqryYv6-135" value="ExecUninstallScript-k8s" style="shape=partialRectangle;html=1;whiteSpace=wrap;connectable=0;strokeColor=inherit;overflow=hidden;fillColor=none;top=0;left=0;bottom=0;right=0;pointerEvents=1;fontSize=12;" parent="eMB9HuW2Fb0xIjqryYv6-131" vertex="1">
          <mxGeometry x="540" width="180" height="40" as="geometry">
            <mxRectangle width="180" height="40" as="alternateBounds" />
          </mxGeometry>
        </mxCell>
        <mxCell id="eMB9HuW2Fb0xIjqryYv6-136" value="FetchCerts-registry" style="shape=partialRectangle;html=1;whiteSpace=wrap;connectable=0;strokeColor=inherit;overflow=hidden;fillColor=none;top=0;left=0;bottom=0;right=0;pointerEvents=1;fontSize=12;" parent="eMB9HuW2Fb0xIjqryYv6-131" vertex="1">
          <mxGeometry x="720" width="180" height="40" as="geometry">
            <mxRectangle width="180" height="40" as="alternateBounds" />
          </mxGeometry>
        </mxCell>
        <mxCell id="eMB9HuW2Fb0xIjqryYv6-137" value="" style="shape=tableRow;horizontal=0;startSize=0;swimlaneHead=0;swimlaneBody=0;strokeColor=inherit;top=0;left=0;bottom=0;right=0;collapsible=0;dropTarget=0;fillColor=none;points=[[0,0.5],[1,0.5]];portConstraint=eastwest;fontSize=12;" parent="eMB9HuW2Fb0xIjqryYv6-51" vertex="1">
          <mxGeometry y="600" width="900" height="40" as="geometry" />
        </mxCell>
        <mxCell id="eMB9HuW2Fb0xIjqryYv6-138" value="FetchCerts-etcd" style="shape=partialRectangle;html=1;whiteSpace=wrap;connectable=0;strokeColor=inherit;overflow=hidden;fillColor=none;top=0;left=0;bottom=0;right=0;pointerEvents=1;fontSize=12;" parent="eMB9HuW2Fb0xIjqryYv6-137" vertex="1">
          <mxGeometry width="180" height="40" as="geometry">
            <mxRectangle width="180" height="40" as="alternateBounds" />
          </mxGeometry>
        </mxCell>
        <mxCell id="eMB9HuW2Fb0xIjqryYv6-139" value="FetchCertsForExternalEtcd" style="shape=partialRectangle;html=1;whiteSpace=wrap;connectable=0;strokeColor=inherit;overflow=hidden;fillColor=none;top=0;left=0;bottom=0;right=0;pointerEvents=1;fontSize=12;" parent="eMB9HuW2Fb0xIjqryYv6-137" vertex="1">
          <mxGeometry x="180" width="180" height="40" as="geometry">
            <mxRectangle width="180" height="40" as="alternateBounds" />
          </mxGeometry>
        </mxCell>
        <mxCell id="eMB9HuW2Fb0xIjqryYv6-140" value="FetchKubeConfig" style="shape=partialRectangle;html=1;whiteSpace=wrap;connectable=0;strokeColor=inherit;overflow=hidden;fillColor=none;top=0;left=0;bottom=0;right=0;pointerEvents=1;fontSize=12;" parent="eMB9HuW2Fb0xIjqryYv6-137" vertex="1">
          <mxGeometry x="360" width="180" height="40" as="geometry">
            <mxRectangle width="180" height="40" as="alternateBounds" />
          </mxGeometry>
        </mxCell>
        <mxCell id="eMB9HuW2Fb0xIjqryYv6-141" value="FindNode" style="shape=partialRectangle;html=1;whiteSpace=wrap;connectable=0;strokeColor=inherit;overflow=hidden;fillColor=none;top=0;left=0;bottom=0;right=0;pointerEvents=1;fontSize=12;" parent="eMB9HuW2Fb0xIjqryYv6-137" vertex="1">
          <mxGeometry x="540" width="180" height="40" as="geometry">
            <mxRectangle width="180" height="40" as="alternateBounds" />
          </mxGeometry>
        </mxCell>
        <mxCell id="eMB9HuW2Fb0xIjqryYv6-142" value="GenerateAccessAddress" style="shape=partialRectangle;html=1;whiteSpace=wrap;connectable=0;strokeColor=inherit;overflow=hidden;fillColor=none;top=0;left=0;bottom=0;right=0;pointerEvents=1;fontSize=12;" parent="eMB9HuW2Fb0xIjqryYv6-137" vertex="1">
          <mxGeometry x="720" width="180" height="40" as="geometry">
            <mxRectangle width="180" height="40" as="alternateBounds" />
          </mxGeometry>
        </mxCell>
        <mxCell id="eMB9HuW2Fb0xIjqryYv6-155" value="" style="shape=tableRow;horizontal=0;startSize=0;swimlaneHead=0;swimlaneBody=0;strokeColor=inherit;top=0;left=0;bottom=0;right=0;collapsible=0;dropTarget=0;fillColor=none;points=[[0,0.5],[1,0.5]];portConstraint=eastwest;fontSize=12;" parent="eMB9HuW2Fb0xIjqryYv6-51" vertex="1">
          <mxGeometry y="640" width="900" height="40" as="geometry" />
        </mxCell>
        <mxCell id="eMB9HuW2Fb0xIjqryYv6-156" value="GenerateCerts-registry" style="shape=partialRectangle;html=1;whiteSpace=wrap;connectable=0;strokeColor=inherit;overflow=hidden;fillColor=none;top=0;left=0;bottom=0;right=0;pointerEvents=1;fontSize=12;" parent="eMB9HuW2Fb0xIjqryYv6-155" vertex="1">
          <mxGeometry width="180" height="40" as="geometry">
            <mxRectangle width="180" height="40" as="alternateBounds" />
          </mxGeometry>
        </mxCell>
        <mxCell id="eMB9HuW2Fb0xIjqryYv6-157" value="CenerateCerts-etcd" style="shape=partialRectangle;html=1;whiteSpace=wrap;connectable=0;strokeColor=inherit;overflow=hidden;fillColor=none;top=0;left=0;bottom=0;right=0;pointerEvents=1;fontSize=12;" parent="eMB9HuW2Fb0xIjqryYv6-155" vertex="1">
          <mxGeometry x="180" width="180" height="40" as="geometry">
            <mxRectangle width="180" height="40" as="alternateBounds" />
          </mxGeometry>
        </mxCell>
        <mxCell id="eMB9HuW2Fb0xIjqryYv6-158" value="GenerateConfig" style="shape=partialRectangle;html=1;whiteSpace=wrap;connectable=0;strokeColor=inherit;overflow=hidden;fillColor=none;top=0;left=0;bottom=0;right=0;pointerEvents=1;fontSize=12;" parent="eMB9HuW2Fb0xIjqryYv6-155" vertex="1">
          <mxGeometry x="360" width="180" height="40" as="geometry">
            <mxRectangle width="180" height="40" as="alternateBounds" />
          </mxGeometry>
        </mxCell>
        <mxCell id="eMB9HuW2Fb0xIjqryYv6-159" value="GenerateHaproxyManifest" style="shape=partialRectangle;html=1;whiteSpace=wrap;connectable=0;strokeColor=inherit;overflow=hidden;fillColor=none;top=0;left=0;bottom=0;right=0;pointerEvents=1;fontSize=12;" parent="eMB9HuW2Fb0xIjqryYv6-155" vertex="1">
          <mxGeometry x="540" width="180" height="40" as="geometry">
            <mxRectangle width="180" height="40" as="alternateBounds" />
          </mxGeometry>
        </mxCell>
        <mxCell id="eMB9HuW2Fb0xIjqryYv6-160" value="GenerateK3sHaproxyManifest" style="shape=partialRectangle;html=1;whiteSpace=wrap;connectable=0;strokeColor=inherit;overflow=hidden;fillColor=none;top=0;left=0;bottom=0;right=0;pointerEvents=1;fontSize=12;" parent="eMB9HuW2Fb0xIjqryYv6-155" vertex="1">
          <mxGeometry x="720" width="180" height="40" as="geometry">
            <mxRectangle width="180" height="40" as="alternateBounds" />
          </mxGeometry>
        </mxCell>
        <mxCell id="eMB9HuW2Fb0xIjqryYv6-161" value="" style="shape=tableRow;horizontal=0;startSize=0;swimlaneHead=0;swimlaneBody=0;strokeColor=inherit;top=0;left=0;bottom=0;right=0;collapsible=0;dropTarget=0;fillColor=none;points=[[0,0.5],[1,0.5]];portConstraint=eastwest;fontSize=12;" parent="eMB9HuW2Fb0xIjqryYv6-51" vertex="1">
          <mxGeometry y="680" width="900" height="40" as="geometry" />
        </mxCell>
        <mxCell id="eMB9HuW2Fb0xIjqryYv6-162" value="GenerateK3sKubevipDaemonset" style="shape=partialRectangle;html=1;whiteSpace=wrap;connectable=0;strokeColor=inherit;overflow=hidden;fillColor=none;top=0;left=0;bottom=0;right=0;pointerEvents=1;fontSize=12;" parent="eMB9HuW2Fb0xIjqryYv6-161" vertex="1">
          <mxGeometry width="180" height="40" as="geometry">
            <mxRectangle width="180" height="40" as="alternateBounds" />
          </mxGeometry>
        </mxCell>
        <mxCell id="eMB9HuW2Fb0xIjqryYv6-163" value="GenerateK3sRegistryConfig" style="shape=partialRectangle;html=1;whiteSpace=wrap;connectable=0;strokeColor=inherit;overflow=hidden;fillColor=none;top=0;left=0;bottom=0;right=0;pointerEvents=1;fontSize=12;" parent="eMB9HuW2Fb0xIjqryYv6-161" vertex="1">
          <mxGeometry x="180" width="180" height="40" as="geometry">
            <mxRectangle width="180" height="40" as="alternateBounds" />
          </mxGeometry>
        </mxCell>
        <mxCell id="eMB9HuW2Fb0xIjqryYv6-164" value="GenerateK3sService" style="shape=partialRectangle;html=1;whiteSpace=wrap;connectable=0;strokeColor=inherit;overflow=hidden;fillColor=none;top=0;left=0;bottom=0;right=0;pointerEvents=1;fontSize=12;" parent="eMB9HuW2Fb0xIjqryYv6-161" vertex="1">
          <mxGeometry x="360" width="180" height="40" as="geometry">
            <mxRectangle width="180" height="40" as="alternateBounds" />
          </mxGeometry>
        </mxCell>
        <mxCell id="eMB9HuW2Fb0xIjqryYv6-165" value="GenerateK3sServiceEnv" style="shape=partialRectangle;html=1;whiteSpace=wrap;connectable=0;strokeColor=inherit;overflow=hidden;fillColor=none;top=0;left=0;bottom=0;right=0;pointerEvents=1;fontSize=12;" parent="eMB9HuW2Fb0xIjqryYv6-161" vertex="1">
          <mxGeometry x="540" width="180" height="40" as="geometry">
            <mxRectangle width="180" height="40" as="alternateBounds" />
          </mxGeometry>
        </mxCell>
        <mxCell id="eMB9HuW2Fb0xIjqryYv6-166" value="GenerateK8sService" style="shape=partialRectangle;html=1;whiteSpace=wrap;connectable=0;strokeColor=inherit;overflow=hidden;fillColor=none;top=0;left=0;bottom=0;right=0;pointerEvents=1;fontSize=12;" parent="eMB9HuW2Fb0xIjqryYv6-161" vertex="1">
          <mxGeometry x="720" width="180" height="40" as="geometry">
            <mxRectangle width="180" height="40" as="alternateBounds" />
          </mxGeometry>
        </mxCell>
        <mxCell id="eMB9HuW2Fb0xIjqryYv6-167" value="" style="shape=tableRow;horizontal=0;startSize=0;swimlaneHead=0;swimlaneBody=0;strokeColor=inherit;top=0;left=0;bottom=0;right=0;collapsible=0;dropTarget=0;fillColor=none;points=[[0,0.5],[1,0.5]];portConstraint=eastwest;fontSize=12;" parent="eMB9HuW2Fb0xIjqryYv6-51" vertex="1">
          <mxGeometry y="720" width="900" height="40" as="geometry" />
        </mxCell>
        <mxCell id="eMB9HuW2Fb0xIjqryYv6-168" value="GenerateK8sServiceEnv" style="shape=partialRectangle;html=1;whiteSpace=wrap;connectable=0;strokeColor=inherit;overflow=hidden;fillColor=none;top=0;left=0;bottom=0;right=0;pointerEvents=1;fontSize=12;" parent="eMB9HuW2Fb0xIjqryYv6-167" vertex="1">
          <mxGeometry width="180" height="40" as="geometry">
            <mxRectangle width="180" height="40" as="alternateBounds" />
          </mxGeometry>
        </mxCell>
        <mxCell id="eMB9HuW2Fb0xIjqryYv6-169" value="GenerateKubeOVN" style="shape=partialRectangle;html=1;whiteSpace=wrap;connectable=0;strokeColor=inherit;overflow=hidden;fillColor=none;top=0;left=0;bottom=0;right=0;pointerEvents=1;fontSize=12;" parent="eMB9HuW2Fb0xIjqryYv6-167" vertex="1">
          <mxGeometry x="180" width="180" height="40" as="geometry">
            <mxRectangle width="180" height="40" as="alternateBounds" />
          </mxGeometry>
        </mxCell>
        <mxCell id="eMB9HuW2Fb0xIjqryYv6-170" value="GenerateKubeadmConfig" style="shape=partialRectangle;html=1;whiteSpace=wrap;connectable=0;strokeColor=inherit;overflow=hidden;fillColor=none;top=0;left=0;bottom=0;right=0;pointerEvents=1;fontSize=12;" parent="eMB9HuW2Fb0xIjqryYv6-167" vertex="1">
          <mxGeometry x="360" width="180" height="40" as="geometry">
            <mxRectangle width="180" height="40" as="alternateBounds" />
          </mxGeometry>
        </mxCell>
        <mxCell id="eMB9HuW2Fb0xIjqryYv6-171" value="GenerateKubeletEnv" style="shape=partialRectangle;html=1;whiteSpace=wrap;connectable=0;strokeColor=inherit;overflow=hidden;fillColor=none;top=0;left=0;bottom=0;right=0;pointerEvents=1;fontSize=12;" parent="eMB9HuW2Fb0xIjqryYv6-167" vertex="1">
          <mxGeometry x="540" width="180" height="40" as="geometry">
            <mxRectangle width="180" height="40" as="alternateBounds" />
          </mxGeometry>
        </mxCell>
        <mxCell id="eMB9HuW2Fb0xIjqryYv6-172" value="GenerateKubevipManifest" style="shape=partialRectangle;html=1;whiteSpace=wrap;connectable=0;strokeColor=inherit;overflow=hidden;fillColor=none;top=0;left=0;bottom=0;right=0;pointerEvents=1;fontSize=12;" parent="eMB9HuW2Fb0xIjqryYv6-167" vertex="1">
          <mxGeometry x="720" width="180" height="40" as="geometry">
            <mxRectangle width="180" height="40" as="alternateBounds" />
          </mxGeometry>
        </mxCell>
        <mxCell id="eMB9HuW2Fb0xIjqryYv6-173" value="" style="shape=tableRow;horizontal=0;startSize=0;swimlaneHead=0;swimlaneBody=0;strokeColor=inherit;top=0;left=0;bottom=0;right=0;collapsible=0;dropTarget=0;fillColor=none;points=[[0,0.5],[1,0.5]];portConstraint=eastwest;fontSize=12;" parent="eMB9HuW2Fb0xIjqryYv6-51" vertex="1">
          <mxGeometry y="760" width="900" height="40" as="geometry" />
        </mxCell>
        <mxCell id="eMB9HuW2Fb0xIjqryYv6-174" value="GenerateNodeLocalDNSConfigMap" style="shape=partialRectangle;html=1;whiteSpace=wrap;connectable=0;strokeColor=inherit;overflow=hidden;fillColor=none;top=0;left=0;bottom=0;right=0;pointerEvents=1;fontSize=12;" parent="eMB9HuW2Fb0xIjqryYv6-173" vertex="1">
          <mxGeometry width="180" height="40" as="geometry">
            <mxRectangle width="180" height="40" as="alternateBounds" />
          </mxGeometry>
        </mxCell>
        <mxCell id="eMB9HuW2Fb0xIjqryYv6-175" value="GenerateSSL" style="shape=partialRectangle;html=1;whiteSpace=wrap;connectable=0;strokeColor=inherit;overflow=hidden;fillColor=none;top=0;left=0;bottom=0;right=0;pointerEvents=1;fontSize=12;" parent="eMB9HuW2Fb0xIjqryYv6-173" vertex="1">
          <mxGeometry x="180" width="180" height="40" as="geometry">
            <mxRectangle width="180" height="40" as="alternateBounds" />
          </mxGeometry>
        </mxCell>
        <mxCell id="eMB9HuW2Fb0xIjqryYv6-176" value="GetAllNodesK8sVersion-bootstrap" style="shape=partialRectangle;html=1;whiteSpace=wrap;connectable=0;strokeColor=inherit;overflow=hidden;fillColor=none;top=0;left=0;bottom=0;right=0;pointerEvents=1;fontSize=12;" parent="eMB9HuW2Fb0xIjqryYv6-173" vertex="1">
          <mxGeometry x="360" width="180" height="40" as="geometry">
            <mxRectangle width="180" height="40" as="alternateBounds" />
          </mxGeometry>
        </mxCell>
        <mxCell id="eMB9HuW2Fb0xIjqryYv6-177" value="GetAllNodesK8sversion-phase" style="shape=partialRectangle;html=1;whiteSpace=wrap;connectable=0;strokeColor=inherit;overflow=hidden;fillColor=none;top=0;left=0;bottom=0;right=0;pointerEvents=1;fontSize=12;" parent="eMB9HuW2Fb0xIjqryYv6-173" vertex="1">
          <mxGeometry x="540" width="180" height="40" as="geometry">
            <mxRectangle width="180" height="40" as="alternateBounds" />
          </mxGeometry>
        </mxCell>
        <mxCell id="eMB9HuW2Fb0xIjqryYv6-178" value="GetBinaryPath" style="shape=partialRectangle;html=1;whiteSpace=wrap;connectable=0;strokeColor=inherit;overflow=hidden;fillColor=none;top=0;left=0;bottom=0;right=0;pointerEvents=1;fontSize=12;" parent="eMB9HuW2Fb0xIjqryYv6-173" vertex="1">
          <mxGeometry x="720" width="180" height="40" as="geometry">
            <mxRectangle width="180" height="40" as="alternateBounds" />
          </mxGeometry>
        </mxCell>
        <mxCell id="eMB9HuW2Fb0xIjqryYv6-179" value="" style="shape=tableRow;horizontal=0;startSize=0;swimlaneHead=0;swimlaneBody=0;strokeColor=inherit;top=0;left=0;bottom=0;right=0;collapsible=0;dropTarget=0;fillColor=none;points=[[0,0.5],[1,0.5]];portConstraint=eastwest;fontSize=12;" parent="eMB9HuW2Fb0xIjqryYv6-51" vertex="1">
          <mxGeometry y="800" width="900" height="40" as="geometry" />
        </mxCell>
        <mxCell id="eMB9HuW2Fb0xIjqryYv6-180" value="GetChecksum" style="shape=partialRectangle;html=1;whiteSpace=wrap;connectable=0;strokeColor=inherit;overflow=hidden;fillColor=none;top=0;left=0;bottom=0;right=0;pointerEvents=1;fontSize=12;" parent="eMB9HuW2Fb0xIjqryYv6-179" vertex="1">
          <mxGeometry width="180" height="40" as="geometry">
            <mxRectangle width="180" height="40" as="alternateBounds" />
          </mxGeometry>
        </mxCell>
        <mxCell id="eMB9HuW2Fb0xIjqryYv6-181" value="GetClusterStatus-k3s" style="shape=partialRectangle;html=1;whiteSpace=wrap;connectable=0;strokeColor=inherit;overflow=hidden;fillColor=none;top=0;left=0;bottom=0;right=0;pointerEvents=1;fontSize=12;" parent="eMB9HuW2Fb0xIjqryYv6-179" vertex="1">
          <mxGeometry x="180" width="180" height="40" as="geometry">
            <mxRectangle width="180" height="40" as="alternateBounds" />
          </mxGeometry>
        </mxCell>
        <mxCell id="eMB9HuW2Fb0xIjqryYv6-182" value="GetClusterStatus-k8e" style="shape=partialRectangle;html=1;whiteSpace=wrap;connectable=0;strokeColor=inherit;overflow=hidden;fillColor=none;top=0;left=0;bottom=0;right=0;pointerEvents=1;fontSize=12;" parent="eMB9HuW2Fb0xIjqryYv6-179" vertex="1">
          <mxGeometry x="360" width="180" height="40" as="geometry">
            <mxRectangle width="180" height="40" as="alternateBounds" />
          </mxGeometry>
        </mxCell>
        <mxCell id="eMB9HuW2Fb0xIjqryYv6-183" value="GetClusterStatus-k8s" style="shape=partialRectangle;html=1;whiteSpace=wrap;connectable=0;strokeColor=inherit;overflow=hidden;fillColor=none;top=0;left=0;bottom=0;right=0;pointerEvents=1;fontSize=12;" parent="eMB9HuW2Fb0xIjqryYv6-179" vertex="1">
          <mxGeometry x="540" width="180" height="40" as="geometry">
            <mxRectangle width="180" height="40" as="alternateBounds" />
          </mxGeometry>
        </mxCell>
        <mxCell id="eMB9HuW2Fb0xIjqryYv6-184" value="GetInterfaceName" style="shape=partialRectangle;html=1;whiteSpace=wrap;connectable=0;strokeColor=inherit;overflow=hidden;fillColor=none;top=0;left=0;bottom=0;right=0;pointerEvents=1;fontSize=12;" parent="eMB9HuW2Fb0xIjqryYv6-179" vertex="1">
          <mxGeometry x="720" width="180" height="40" as="geometry">
            <mxRectangle width="180" height="40" as="alternateBounds" />
          </mxGeometry>
        </mxCell>
        <mxCell id="eMB9HuW2Fb0xIjqryYv6-185" value="" style="shape=tableRow;horizontal=0;startSize=0;swimlaneHead=0;swimlaneBody=0;strokeColor=inherit;top=0;left=0;bottom=0;right=0;collapsible=0;dropTarget=0;fillColor=none;points=[[0,0.5],[1,0.5]];portConstraint=eastwest;fontSize=12;" parent="eMB9HuW2Fb0xIjqryYv6-51" vertex="1">
          <mxGeometry y="840" width="900" height="40" as="geometry" />
        </mxCell>
        <mxCell id="eMB9HuW2Fb0xIjqryYv6-186" value="GetKubeConfig" style="shape=partialRectangle;html=1;whiteSpace=wrap;connectable=0;strokeColor=inherit;overflow=hidden;fillColor=none;top=0;left=0;bottom=0;right=0;pointerEvents=1;fontSize=12;" parent="eMB9HuW2Fb0xIjqryYv6-185" vertex="1">
          <mxGeometry width="180" height="40" as="geometry">
            <mxRectangle width="180" height="40" as="alternateBounds" />
          </mxGeometry>
        </mxCell>
        <mxCell id="eMB9HuW2Fb0xIjqryYv6-187" value="GetKubernetesNodesStatus" style="shape=partialRectangle;html=1;whiteSpace=wrap;connectable=0;strokeColor=inherit;overflow=hidden;fillColor=none;top=0;left=0;bottom=0;right=0;pointerEvents=1;fontSize=12;" parent="eMB9HuW2Fb0xIjqryYv6-185" vertex="1">
          <mxGeometry x="180" width="180" height="40" as="geometry">
            <mxRectangle width="180" height="40" as="alternateBounds" />
          </mxGeometry>
        </mxCell>
        <mxCell id="eMB9HuW2Fb0xIjqryYv6-188" value="GetMasterK8sVersion" style="shape=partialRectangle;html=1;whiteSpace=wrap;connectable=0;strokeColor=inherit;overflow=hidden;fillColor=none;top=0;left=0;bottom=0;right=0;pointerEvents=1;fontSize=12;" parent="eMB9HuW2Fb0xIjqryYv6-185" vertex="1">
          <mxGeometry x="360" width="180" height="40" as="geometry">
            <mxRectangle width="180" height="40" as="alternateBounds" />
          </mxGeometry>
        </mxCell>
        <mxCell id="eMB9HuW2Fb0xIjqryYv6-189" value="GetOSData" style="shape=partialRectangle;html=1;whiteSpace=wrap;connectable=0;strokeColor=inherit;overflow=hidden;fillColor=none;top=0;left=0;bottom=0;right=0;pointerEvents=1;fontSize=12;" parent="eMB9HuW2Fb0xIjqryYv6-185" vertex="1">
          <mxGeometry x="540" width="180" height="40" as="geometry">
            <mxRectangle width="180" height="40" as="alternateBounds" />
          </mxGeometry>
        </mxCell>
        <mxCell id="eMB9HuW2Fb0xIjqryYv6-190" value="GetStatus" style="shape=partialRectangle;html=1;whiteSpace=wrap;connectable=0;strokeColor=inherit;overflow=hidden;fillColor=none;top=0;left=0;bottom=0;right=0;pointerEvents=1;fontSize=12;" parent="eMB9HuW2Fb0xIjqryYv6-185" vertex="1">
          <mxGeometry x="720" width="180" height="40" as="geometry">
            <mxRectangle width="180" height="40" as="alternateBounds" />
          </mxGeometry>
        </mxCell>
        <mxCell id="eMB9HuW2Fb0xIjqryYv6-191" value="" style="shape=tableRow;horizontal=0;startSize=0;swimlaneHead=0;swimlaneBody=0;strokeColor=inherit;top=0;left=0;bottom=0;right=0;collapsible=0;dropTarget=0;fillColor=none;points=[[0,0.5],[1,0.5]];portConstraint=eastwest;fontSize=12;" parent="eMB9HuW2Fb0xIjqryYv6-51" vertex="1">
          <mxGeometry y="880" width="900" height="40" as="geometry" />
        </mxCell>
        <mxCell id="eMB9HuW2Fb0xIjqryYv6-192" value="GreetingsTask" style="shape=partialRectangle;html=1;whiteSpace=wrap;connectable=0;strokeColor=inherit;overflow=hidden;fillColor=none;top=0;left=0;bottom=0;right=0;pointerEvents=1;fontSize=12;" parent="eMB9HuW2Fb0xIjqryYv6-191" vertex="1">
          <mxGeometry width="180" height="40" as="geometry">
            <mxRectangle width="180" height="40" as="alternateBounds" />
          </mxGeometry>
        </mxCell>
        <mxCell id="eMB9HuW2Fb0xIjqryYv6-193" value="HealthCheck" style="shape=partialRectangle;html=1;whiteSpace=wrap;connectable=0;strokeColor=inherit;overflow=hidden;fillColor=none;top=0;left=0;bottom=0;right=0;pointerEvents=1;fontSize=12;" parent="eMB9HuW2Fb0xIjqryYv6-191" vertex="1">
          <mxGeometry x="180" width="180" height="40" as="geometry">
            <mxRectangle width="180" height="40" as="alternateBounds" />
          </mxGeometry>
        </mxCell>
        <mxCell id="eMB9HuW2Fb0xIjqryYv6-194" value="Install" style="shape=partialRectangle;html=1;whiteSpace=wrap;connectable=0;strokeColor=inherit;overflow=hidden;fillColor=none;top=0;left=0;bottom=0;right=0;pointerEvents=1;fontSize=12;" parent="eMB9HuW2Fb0xIjqryYv6-191" vertex="1">
          <mxGeometry x="360" width="180" height="40" as="geometry">
            <mxRectangle width="180" height="40" as="alternateBounds" />
          </mxGeometry>
        </mxCell>
        <mxCell id="eMB9HuW2Fb0xIjqryYv6-195" value="InstallDockerCompose" style="shape=partialRectangle;html=1;whiteSpace=wrap;connectable=0;strokeColor=inherit;overflow=hidden;fillColor=none;top=0;left=0;bottom=0;right=0;pointerEvents=1;fontSize=12;" parent="eMB9HuW2Fb0xIjqryYv6-191" vertex="1">
          <mxGeometry x="540" width="180" height="40" as="geometry">
            <mxRectangle width="180" height="40" as="alternateBounds" />
          </mxGeometry>
        </mxCell>
        <mxCell id="eMB9HuW2Fb0xIjqryYv6-196" value="InstallETCDBinary" style="shape=partialRectangle;html=1;whiteSpace=wrap;connectable=0;strokeColor=inherit;overflow=hidden;fillColor=none;top=0;left=0;bottom=0;right=0;pointerEvents=1;fontSize=12;" parent="eMB9HuW2Fb0xIjqryYv6-191" vertex="1">
          <mxGeometry x="720" width="180" height="40" as="geometry">
            <mxRectangle width="180" height="40" as="alternateBounds" />
          </mxGeometry>
        </mxCell>
        <mxCell id="eMB9HuW2Fb0xIjqryYv6-197" value="" style="shape=tableRow;horizontal=0;startSize=0;swimlaneHead=0;swimlaneBody=0;strokeColor=inherit;top=0;left=0;bottom=0;right=0;collapsible=0;dropTarget=0;fillColor=none;points=[[0,0.5],[1,0.5]];portConstraint=eastwest;fontSize=12;" parent="eMB9HuW2Fb0xIjqryYv6-51" vertex="1">
          <mxGeometry y="920" width="900" height="40" as="geometry" />
        </mxCell>
        <mxCell id="eMB9HuW2Fb0xIjqryYv6-198" value="InstallationConfirm" style="shape=partialRectangle;html=1;whiteSpace=wrap;connectable=0;strokeColor=inherit;overflow=hidden;fillColor=none;top=0;left=0;bottom=0;right=0;pointerEvents=1;fontSize=12;" parent="eMB9HuW2Fb0xIjqryYv6-197" vertex="1">
          <mxGeometry width="180" height="40" as="geometry">
            <mxRectangle width="180" height="40" as="alternateBounds" />
          </mxGeometry>
        </mxCell>
        <mxCell id="eMB9HuW2Fb0xIjqryYv6-199" value="JoinMember" style="shape=partialRectangle;html=1;whiteSpace=wrap;connectable=0;strokeColor=inherit;overflow=hidden;fillColor=none;top=0;left=0;bottom=0;right=0;pointerEvents=1;fontSize=12;" parent="eMB9HuW2Fb0xIjqryYv6-197" vertex="1">
          <mxGeometry x="180" width="180" height="40" as="geometry">
            <mxRectangle width="180" height="40" as="alternateBounds" />
          </mxGeometry>
        </mxCell>
        <mxCell id="eMB9HuW2Fb0xIjqryYv6-200" value="JoinNode" style="shape=partialRectangle;html=1;whiteSpace=wrap;connectable=0;strokeColor=inherit;overflow=hidden;fillColor=none;top=0;left=0;bottom=0;right=0;pointerEvents=1;fontSize=12;" parent="eMB9HuW2Fb0xIjqryYv6-197" vertex="1">
          <mxGeometry x="360" width="180" height="40" as="geometry">
            <mxRectangle width="180" height="40" as="alternateBounds" />
          </mxGeometry>
        </mxCell>
        <mxCell id="eMB9HuW2Fb0xIjqryYv6-201" value="K3sArtifactDownload" style="shape=partialRectangle;html=1;whiteSpace=wrap;connectable=0;strokeColor=inherit;overflow=hidden;fillColor=none;top=0;left=0;bottom=0;right=0;pointerEvents=1;fontSize=12;" parent="eMB9HuW2Fb0xIjqryYv6-197" vertex="1">
          <mxGeometry x="540" width="180" height="40" as="geometry">
            <mxRectangle width="180" height="40" as="alternateBounds" />
          </mxGeometry>
        </mxCell>
        <mxCell id="eMB9HuW2Fb0xIjqryYv6-202" value="K3sDownload" style="shape=partialRectangle;html=1;whiteSpace=wrap;connectable=0;strokeColor=inherit;overflow=hidden;fillColor=none;top=0;left=0;bottom=0;right=0;pointerEvents=1;fontSize=12;" parent="eMB9HuW2Fb0xIjqryYv6-197" vertex="1">
          <mxGeometry x="720" width="180" height="40" as="geometry">
            <mxRectangle width="180" height="40" as="alternateBounds" />
          </mxGeometry>
        </mxCell>
        <mxCell id="eMB9HuW2Fb0xIjqryYv6-203" value="" style="shape=tableRow;horizontal=0;startSize=0;swimlaneHead=0;swimlaneBody=0;strokeColor=inherit;top=0;left=0;bottom=0;right=0;collapsible=0;dropTarget=0;fillColor=none;points=[[0,0.5],[1,0.5]];portConstraint=eastwest;fontSize=12;" parent="eMB9HuW2Fb0xIjqryYv6-51" vertex="1">
          <mxGeometry y="960" width="900" height="40" as="geometry" />
        </mxCell>
        <mxCell id="eMB9HuW2Fb0xIjqryYv6-204" value="K8eArtifactDownload" style="shape=partialRectangle;html=1;whiteSpace=wrap;connectable=0;strokeColor=inherit;overflow=hidden;fillColor=none;top=0;left=0;bottom=0;right=0;pointerEvents=1;fontSize=12;" parent="eMB9HuW2Fb0xIjqryYv6-203" vertex="1">
          <mxGeometry width="180" height="40" as="geometry">
            <mxRectangle width="180" height="40" as="alternateBounds" />
          </mxGeometry>
        </mxCell>
        <mxCell id="eMB9HuW2Fb0xIjqryYv6-205" value="K8eDownload" style="shape=partialRectangle;html=1;whiteSpace=wrap;connectable=0;strokeColor=inherit;overflow=hidden;fillColor=none;top=0;left=0;bottom=0;right=0;pointerEvents=1;fontSize=12;" parent="eMB9HuW2Fb0xIjqryYv6-203" vertex="1">
          <mxGeometry x="180" width="180" height="40" as="geometry">
            <mxRectangle width="180" height="40" as="alternateBounds" />
          </mxGeometry>
        </mxCell>
        <mxCell id="eMB9HuW2Fb0xIjqryYv6-206" value="KsPhaseDependencyCheck" style="shape=partialRectangle;html=1;whiteSpace=wrap;connectable=0;strokeColor=inherit;overflow=hidden;fillColor=none;top=0;left=0;bottom=0;right=0;pointerEvents=1;fontSize=12;" parent="eMB9HuW2Fb0xIjqryYv6-203" vertex="1">
          <mxGeometry x="360" width="180" height="40" as="geometry">
            <mxRectangle width="180" height="40" as="alternateBounds" />
          </mxGeometry>
        </mxCell>
        <mxCell id="eMB9HuW2Fb0xIjqryYv6-207" value="KsVersionCheck" style="shape=partialRectangle;html=1;whiteSpace=wrap;connectable=0;strokeColor=inherit;overflow=hidden;fillColor=none;top=0;left=0;bottom=0;right=0;pointerEvents=1;fontSize=12;" parent="eMB9HuW2Fb0xIjqryYv6-203" vertex="1">
          <mxGeometry x="540" width="180" height="40" as="geometry">
            <mxRectangle width="180" height="40" as="alternateBounds" />
          </mxGeometry>
        </mxCell>
        <mxCell id="eMB9HuW2Fb0xIjqryYv6-208" value="KubeAction" style="shape=partialRectangle;html=1;whiteSpace=wrap;connectable=0;strokeColor=inherit;overflow=hidden;fillColor=none;top=0;left=0;bottom=0;right=0;pointerEvents=1;fontSize=12;" parent="eMB9HuW2Fb0xIjqryYv6-203" vertex="1">
          <mxGeometry x="720" width="180" height="40" as="geometry">
            <mxRectangle width="180" height="40" as="alternateBounds" />
          </mxGeometry>
        </mxCell>
        <mxCell id="eMB9HuW2Fb0xIjqryYv6-209" value="" style="shape=tableRow;horizontal=0;startSize=0;swimlaneHead=0;swimlaneBody=0;strokeColor=inherit;top=0;left=0;bottom=0;right=0;collapsible=0;dropTarget=0;fillColor=none;points=[[0,0.5],[1,0.5]];portConstraint=eastwest;fontSize=12;" parent="eMB9HuW2Fb0xIjqryYv6-51" vertex="1">
          <mxGeometry y="1000" width="900" height="40" as="geometry" />
        </mxCell>
        <mxCell id="eMB9HuW2Fb0xIjqryYv6-210" value="KubeadmInit" style="shape=partialRectangle;html=1;whiteSpace=wrap;connectable=0;strokeColor=inherit;overflow=hidden;fillColor=none;top=0;left=0;bottom=0;right=0;pointerEvents=1;fontSize=12;" parent="eMB9HuW2Fb0xIjqryYv6-209" vertex="1">
          <mxGeometry width="180" height="40" as="geometry">
            <mxRectangle width="180" height="40" as="alternateBounds" />
          </mxGeometry>
        </mxCell>
        <mxCell id="eMB9HuW2Fb0xIjqryYv6-211" value="KubeadmReset" style="shape=partialRectangle;html=1;whiteSpace=wrap;connectable=0;strokeColor=inherit;overflow=hidden;fillColor=none;top=0;left=0;bottom=0;right=0;pointerEvents=1;fontSize=12;" parent="eMB9HuW2Fb0xIjqryYv6-209" vertex="1">
          <mxGeometry x="180" width="180" height="40" as="geometry">
            <mxRectangle width="180" height="40" as="alternateBounds" />
          </mxGeometry>
        </mxCell>
        <mxCell id="eMB9HuW2Fb0xIjqryYv6-212" value="KubeadmUpgrade" style="shape=partialRectangle;html=1;whiteSpace=wrap;connectable=0;strokeColor=inherit;overflow=hidden;fillColor=none;top=0;left=0;bottom=0;right=0;pointerEvents=1;fontSize=12;" parent="eMB9HuW2Fb0xIjqryYv6-209" vertex="1">
          <mxGeometry x="360" width="180" height="40" as="geometry">
            <mxRectangle width="180" height="40" as="alternateBounds" />
          </mxGeometry>
        </mxCell>
        <mxCell id="eMB9HuW2Fb0xIjqryYv6-213" value="KubectlDeleteNode" style="shape=partialRectangle;html=1;whiteSpace=wrap;connectable=0;strokeColor=inherit;overflow=hidden;fillColor=none;top=0;left=0;bottom=0;right=0;pointerEvents=1;fontSize=12;" parent="eMB9HuW2Fb0xIjqryYv6-209" vertex="1">
          <mxGeometry x="540" width="180" height="40" as="geometry">
            <mxRectangle width="180" height="40" as="alternateBounds" />
          </mxGeometry>
        </mxCell>
        <mxCell id="eMB9HuW2Fb0xIjqryYv6-214" value="LabelNode" style="shape=partialRectangle;html=1;whiteSpace=wrap;connectable=0;strokeColor=inherit;overflow=hidden;fillColor=none;top=0;left=0;bottom=0;right=0;pointerEvents=1;fontSize=12;" parent="eMB9HuW2Fb0xIjqryYv6-209" vertex="1">
          <mxGeometry x="720" width="180" height="40" as="geometry">
            <mxRectangle width="180" height="40" as="alternateBounds" />
          </mxGeometry>
        </mxCell>
        <mxCell id="eMB9HuW2Fb0xIjqryYv6-215" value="" style="shape=tableRow;horizontal=0;startSize=0;swimlaneHead=0;swimlaneBody=0;strokeColor=inherit;top=0;left=0;bottom=0;right=0;collapsible=0;dropTarget=0;fillColor=none;points=[[0,0.5],[1,0.5]];portConstraint=eastwest;fontSize=12;" parent="eMB9HuW2Fb0xIjqryYv6-51" vertex="1">
          <mxGeometry y="1040" width="900" height="40" as="geometry" />
        </mxCell>
        <mxCell id="eMB9HuW2Fb0xIjqryYv6-216" value="ListClusterCerts" style="shape=partialRectangle;html=1;whiteSpace=wrap;connectable=0;strokeColor=inherit;overflow=hidden;fillColor=none;top=0;left=0;bottom=0;right=0;pointerEvents=1;fontSize=12;" parent="eMB9HuW2Fb0xIjqryYv6-215" vertex="1">
          <mxGeometry width="180" height="40" as="geometry">
            <mxRectangle width="180" height="40" as="alternateBounds" />
          </mxGeometry>
        </mxCell>
        <mxCell id="eMB9HuW2Fb0xIjqryYv6-217" value="LocalCopy" style="shape=partialRectangle;html=1;whiteSpace=wrap;connectable=0;strokeColor=inherit;overflow=hidden;fillColor=none;top=0;left=0;bottom=0;right=0;pointerEvents=1;fontSize=12;" parent="eMB9HuW2Fb0xIjqryYv6-215" vertex="1">
          <mxGeometry x="180" width="180" height="40" as="geometry">
            <mxRectangle width="180" height="40" as="alternateBounds" />
          </mxGeometry>
        </mxCell>
        <mxCell id="eMB9HuW2Fb0xIjqryYv6-218" value="LocalTaskChown" style="shape=partialRectangle;html=1;whiteSpace=wrap;connectable=0;strokeColor=inherit;overflow=hidden;fillColor=none;top=0;left=0;bottom=0;right=0;pointerEvents=1;fontSize=12;" parent="eMB9HuW2Fb0xIjqryYv6-215" vertex="1">
          <mxGeometry x="360" width="180" height="40" as="geometry">
            <mxRectangle width="180" height="40" as="alternateBounds" />
          </mxGeometry>
        </mxCell>
        <mxCell id="eMB9HuW2Fb0xIjqryYv6-219" value="MasterSecurityEnhancemenAction" style="shape=partialRectangle;html=1;whiteSpace=wrap;connectable=0;strokeColor=inherit;overflow=hidden;fillColor=none;top=0;left=0;bottom=0;right=0;pointerEvents=1;fontSize=12;" parent="eMB9HuW2Fb0xIjqryYv6-215" vertex="1">
          <mxGeometry x="540" width="180" height="40" as="geometry">
            <mxRectangle width="180" height="40" as="alternateBounds" />
          </mxGeometry>
        </mxCell>
        <mxCell id="eMB9HuW2Fb0xIjqryYv6-220" value="Md5Check" style="shape=partialRectangle;html=1;whiteSpace=wrap;connectable=0;strokeColor=inherit;overflow=hidden;fillColor=none;top=0;left=0;bottom=0;right=0;pointerEvents=1;fontSize=12;" parent="eMB9HuW2Fb0xIjqryYv6-215" vertex="1">
          <mxGeometry x="720" width="180" height="40" as="geometry">
            <mxRectangle width="180" height="40" as="alternateBounds" />
          </mxGeometry>
        </mxCell>
        <mxCell id="eMB9HuW2Fb0xIjqryYv6-221" value="" style="shape=tableRow;horizontal=0;startSize=0;swimlaneHead=0;swimlaneBody=0;strokeColor=inherit;top=0;left=0;bottom=0;right=0;collapsible=0;dropTarget=0;fillColor=none;points=[[0,0.5],[1,0.5]];portConstraint=eastwest;fontSize=12;" parent="eMB9HuW2Fb0xIjqryYv6-51" vertex="1">
          <mxGeometry y="1080" width="900" height="40" as="geometry" />
        </mxCell>
        <mxCell id="eMB9HuW2Fb0xIjqryYv6-222" value="MigrateCri" style="shape=partialRectangle;html=1;whiteSpace=wrap;connectable=0;strokeColor=inherit;overflow=hidden;fillColor=none;top=0;left=0;bottom=0;right=0;pointerEvents=1;fontSize=12;" parent="eMB9HuW2Fb0xIjqryYv6-221" vertex="1">
          <mxGeometry width="180" height="40" as="geometry">
            <mxRectangle width="180" height="40" as="alternateBounds" />
          </mxGeometry>
        </mxCell>
        <mxCell id="eMB9HuW2Fb0xIjqryYv6-223" value="MigrateSelfNodeCri" style="shape=partialRectangle;html=1;whiteSpace=wrap;connectable=0;strokeColor=inherit;overflow=hidden;fillColor=none;top=0;left=0;bottom=0;right=0;pointerEvents=1;fontSize=12;" parent="eMB9HuW2Fb0xIjqryYv6-221" vertex="1">
          <mxGeometry x="180" width="180" height="40" as="geometry">
            <mxRectangle width="180" height="40" as="alternateBounds" />
          </mxGeometry>
        </mxCell>
        <mxCell id="eMB9HuW2Fb0xIjqryYv6-224" value="MountISO" style="shape=partialRectangle;html=1;whiteSpace=wrap;connectable=0;strokeColor=inherit;overflow=hidden;fillColor=none;top=0;left=0;bottom=0;right=0;pointerEvents=1;fontSize=12;" parent="eMB9HuW2Fb0xIjqryYv6-221" vertex="1">
          <mxGeometry x="360" width="180" height="40" as="geometry">
            <mxRectangle width="180" height="40" as="alternateBounds" />
          </mxGeometry>
        </mxCell>
        <mxCell id="eMB9HuW2Fb0xIjqryYv6-225" value="NewRepoClient" style="shape=partialRectangle;html=1;whiteSpace=wrap;connectable=0;strokeColor=inherit;overflow=hidden;fillColor=none;top=0;left=0;bottom=0;right=0;pointerEvents=1;fontSize=12;" parent="eMB9HuW2Fb0xIjqryYv6-221" vertex="1">
          <mxGeometry x="540" width="180" height="40" as="geometry">
            <mxRectangle width="180" height="40" as="alternateBounds" />
          </mxGeometry>
        </mxCell>
        <mxCell id="eMB9HuW2Fb0xIjqryYv6-226" value="NodeConfigureNtpServer" style="shape=partialRectangle;html=1;whiteSpace=wrap;connectable=0;strokeColor=inherit;overflow=hidden;fillColor=none;top=0;left=0;bottom=0;right=0;pointerEvents=1;fontSize=12;" parent="eMB9HuW2Fb0xIjqryYv6-221" vertex="1">
          <mxGeometry x="720" width="180" height="40" as="geometry">
            <mxRectangle width="180" height="40" as="alternateBounds" />
          </mxGeometry>
        </mxCell>
        <mxCell id="eMB9HuW2Fb0xIjqryYv6-227" value="" style="shape=tableRow;horizontal=0;startSize=0;swimlaneHead=0;swimlaneBody=0;strokeColor=inherit;top=0;left=0;bottom=0;right=0;collapsible=0;dropTarget=0;fillColor=none;points=[[0,0.5],[1,0.5]];portConstraint=eastwest;fontSize=12;" parent="eMB9HuW2Fb0xIjqryYv6-51" vertex="1">
          <mxGeometry y="1120" width="900" height="40" as="geometry" />
        </mxCell>
        <mxCell id="eMB9HuW2Fb0xIjqryYv6-228" value="NodeConfigureOS" style="shape=partialRectangle;html=1;whiteSpace=wrap;connectable=0;strokeColor=inherit;overflow=hidden;fillColor=none;top=0;left=0;bottom=0;right=0;pointerEvents=1;fontSize=12;" parent="eMB9HuW2Fb0xIjqryYv6-227" vertex="1">
          <mxGeometry width="180" height="40" as="geometry">
            <mxRectangle width="180" height="40" as="alternateBounds" />
          </mxGeometry>
        </mxCell>
        <mxCell id="eMB9HuW2Fb0xIjqryYv6-229" value="NodeExecScript" style="shape=partialRectangle;html=1;whiteSpace=wrap;connectable=0;strokeColor=inherit;overflow=hidden;fillColor=none;top=0;left=0;bottom=0;right=0;pointerEvents=1;fontSize=12;" parent="eMB9HuW2Fb0xIjqryYv6-227" vertex="1">
          <mxGeometry x="180" width="180" height="40" as="geometry">
            <mxRectangle width="180" height="40" as="alternateBounds" />
          </mxGeometry>
        </mxCell>
        <mxCell id="eMB9HuW2Fb0xIjqryYv6-230" value="NodePreCheck" style="shape=partialRectangle;html=1;whiteSpace=wrap;connectable=0;strokeColor=inherit;overflow=hidden;fillColor=none;top=0;left=0;bottom=0;right=0;pointerEvents=1;fontSize=12;" parent="eMB9HuW2Fb0xIjqryYv6-227" vertex="1">
          <mxGeometry x="360" width="180" height="40" as="geometry">
            <mxRectangle width="180" height="40" as="alternateBounds" />
          </mxGeometry>
        </mxCell>
        <mxCell id="eMB9HuW2Fb0xIjqryYv6-231" value="NodesSecurityEnhancemenAction" style="shape=partialRectangle;html=1;whiteSpace=wrap;connectable=0;strokeColor=inherit;overflow=hidden;fillColor=none;top=0;left=0;bottom=0;right=0;pointerEvents=1;fontSize=12;" parent="eMB9HuW2Fb0xIjqryYv6-227" vertex="1">
          <mxGeometry x="540" width="180" height="40" as="geometry">
            <mxRectangle width="180" height="40" as="alternateBounds" />
          </mxGeometry>
        </mxCell>
        <mxCell id="eMB9HuW2Fb0xIjqryYv6-232" value="OverrideCoreDNS" style="shape=partialRectangle;html=1;whiteSpace=wrap;connectable=0;strokeColor=inherit;overflow=hidden;fillColor=none;top=0;left=0;bottom=0;right=0;pointerEvents=1;fontSize=12;" parent="eMB9HuW2Fb0xIjqryYv6-227" vertex="1">
          <mxGeometry x="720" width="180" height="40" as="geometry">
            <mxRectangle width="180" height="40" as="alternateBounds" />
          </mxGeometry>
        </mxCell>
        <mxCell id="eMB9HuW2Fb0xIjqryYv6-233" value="" style="shape=tableRow;horizontal=0;startSize=0;swimlaneHead=0;swimlaneBody=0;strokeColor=inherit;top=0;left=0;bottom=0;right=0;collapsible=0;dropTarget=0;fillColor=none;points=[[0,0.5],[1,0.5]];portConstraint=eastwest;fontSize=12;" parent="eMB9HuW2Fb0xIjqryYv6-51" vertex="1">
          <mxGeometry y="1160" width="900" height="40" as="geometry" />
        </mxCell>
        <mxCell id="eMB9HuW2Fb0xIjqryYv6-234" value="PullImage" style="shape=partialRectangle;html=1;whiteSpace=wrap;connectable=0;strokeColor=inherit;overflow=hidden;fillColor=none;top=0;left=0;bottom=0;right=0;pointerEvents=1;fontSize=12;" parent="eMB9HuW2Fb0xIjqryYv6-233" vertex="1">
          <mxGeometry width="180" height="40" as="geometry">
            <mxRectangle width="180" height="40" as="alternateBounds" />
          </mxGeometry>
        </mxCell>
        <mxCell id="eMB9HuW2Fb0xIjqryYv6-235" value="PushManifest" style="shape=partialRectangle;html=1;whiteSpace=wrap;connectable=0;strokeColor=inherit;overflow=hidden;fillColor=none;top=0;left=0;bottom=0;right=0;pointerEvents=1;fontSize=12;" parent="eMB9HuW2Fb0xIjqryYv6-233" vertex="1">
          <mxGeometry x="180" width="180" height="40" as="geometry">
            <mxRectangle width="180" height="40" as="alternateBounds" />
          </mxGeometry>
        </mxCell>
        <mxCell id="eMB9HuW2Fb0xIjqryYv6-236" value="ReconfigureDNS" style="shape=partialRectangle;html=1;whiteSpace=wrap;connectable=0;strokeColor=inherit;overflow=hidden;fillColor=none;top=0;left=0;bottom=0;right=0;pointerEvents=1;fontSize=12;" parent="eMB9HuW2Fb0xIjqryYv6-233" vertex="1">
          <mxGeometry x="360" width="180" height="40" as="geometry">
            <mxRectangle width="180" height="40" as="alternateBounds" />
          </mxGeometry>
        </mxCell>
        <mxCell id="eMB9HuW2Fb0xIjqryYv6-237" value="RefreshConfig" style="shape=partialRectangle;html=1;whiteSpace=wrap;connectable=0;strokeColor=inherit;overflow=hidden;fillColor=none;top=0;left=0;bottom=0;right=0;pointerEvents=1;fontSize=12;" parent="eMB9HuW2Fb0xIjqryYv6-233" vertex="1">
          <mxGeometry x="540" width="180" height="40" as="geometry">
            <mxRectangle width="180" height="40" as="alternateBounds" />
          </mxGeometry>
        </mxCell>
        <mxCell id="eMB9HuW2Fb0xIjqryYv6-238" value="RegistryPackageDownload" style="shape=partialRectangle;html=1;whiteSpace=wrap;connectable=0;strokeColor=inherit;overflow=hidden;fillColor=none;top=0;left=0;bottom=0;right=0;pointerEvents=1;fontSize=12;" parent="eMB9HuW2Fb0xIjqryYv6-233" vertex="1">
          <mxGeometry x="720" width="180" height="40" as="geometry">
            <mxRectangle width="180" height="40" as="alternateBounds" />
          </mxGeometry>
        </mxCell>
        <mxCell id="eMB9HuW2Fb0xIjqryYv6-239" value="" style="shape=tableRow;horizontal=0;startSize=0;swimlaneHead=0;swimlaneBody=0;strokeColor=inherit;top=0;left=0;bottom=0;right=0;collapsible=0;dropTarget=0;fillColor=none;points=[[0,0.5],[1,0.5]];portConstraint=eastwest;fontSize=12;" parent="eMB9HuW2Fb0xIjqryYv6-51" vertex="1">
          <mxGeometry y="1200" width="900" height="40" as="geometry" />
        </mxCell>
        <mxCell id="eMB9HuW2Fb0xIjqryYv6-240" value="ReleaseciliumChart" style="shape=partialRectangle;html=1;whiteSpace=wrap;connectable=0;strokeColor=inherit;overflow=hidden;fillColor=none;top=0;left=0;bottom=0;right=0;pointerEvents=1;fontSize=12;" parent="eMB9HuW2Fb0xIjqryYv6-239" vertex="1">
          <mxGeometry width="180" height="40" as="geometry">
            <mxRectangle width="180" height="40" as="alternateBounds" />
          </mxGeometry>
        </mxCell>
        <mxCell id="eMB9HuW2Fb0xIjqryYv6-241" value="RemoveFiles" style="shape=partialRectangle;html=1;whiteSpace=wrap;connectable=0;strokeColor=inherit;overflow=hidden;fillColor=none;top=0;left=0;bottom=0;right=0;pointerEvents=1;fontSize=12;" parent="eMB9HuW2Fb0xIjqryYv6-239" vertex="1">
          <mxGeometry x="180" width="180" height="40" as="geometry">
            <mxRectangle width="180" height="40" as="alternateBounds" />
          </mxGeometry>
        </mxCell>
        <mxCell id="eMB9HuW2Fb0xIjqryYv6-242" value="RemoveMasterTaint" style="shape=partialRectangle;html=1;whiteSpace=wrap;connectable=0;strokeColor=inherit;overflow=hidden;fillColor=none;top=0;left=0;bottom=0;right=0;pointerEvents=1;fontSize=12;" parent="eMB9HuW2Fb0xIjqryYv6-239" vertex="1">
          <mxGeometry x="360" width="180" height="40" as="geometry">
            <mxRectangle width="180" height="40" as="alternateBounds" />
          </mxGeometry>
        </mxCell>
        <mxCell id="eMB9HuW2Fb0xIjqryYv6-243" value="RemoveNodeFiles" style="shape=partialRectangle;html=1;whiteSpace=wrap;connectable=0;strokeColor=inherit;overflow=hidden;fillColor=none;top=0;left=0;bottom=0;right=0;pointerEvents=1;fontSize=12;" parent="eMB9HuW2Fb0xIjqryYv6-239" vertex="1">
          <mxGeometry x="540" width="180" height="40" as="geometry">
            <mxRectangle width="180" height="40" as="alternateBounds" />
          </mxGeometry>
        </mxCell>
        <mxCell id="eMB9HuW2Fb0xIjqryYv6-244" value="RenewCerts" style="shape=partialRectangle;html=1;whiteSpace=wrap;connectable=0;strokeColor=inherit;overflow=hidden;fillColor=none;top=0;left=0;bottom=0;right=0;pointerEvents=1;fontSize=12;" parent="eMB9HuW2Fb0xIjqryYv6-239" vertex="1">
          <mxGeometry x="720" width="180" height="40" as="geometry">
            <mxRectangle width="180" height="40" as="alternateBounds" />
          </mxGeometry>
        </mxCell>
        <mxCell id="eMB9HuW2Fb0xIjqryYv6-245" value="" style="shape=tableRow;horizontal=0;startSize=0;swimlaneHead=0;swimlaneBody=0;strokeColor=inherit;top=0;left=0;bottom=0;right=0;collapsible=0;dropTarget=0;fillColor=none;points=[[0,0.5],[1,0.5]];portConstraint=eastwest;fontSize=12;" parent="eMB9HuW2Fb0xIjqryYv6-51" vertex="1">
          <mxGeometry y="1240" width="900" height="40" as="geometry" />
        </mxCell>
        <mxCell id="eMB9HuW2Fb0xIjqryYv6-246" value="ResetNetworkConfig" style="shape=partialRectangle;html=1;whiteSpace=wrap;connectable=0;strokeColor=inherit;overflow=hidden;fillColor=none;top=0;left=0;bottom=0;right=0;pointerEvents=1;fontSize=12;" parent="eMB9HuW2Fb0xIjqryYv6-245" vertex="1">
          <mxGeometry width="180" height="40" as="geometry">
            <mxRectangle width="180" height="40" as="alternateBounds" />
          </mxGeometry>
        </mxCell>
        <mxCell id="eMB9HuW2Fb0xIjqryYv6-247" value="ResetRepository" style="shape=partialRectangle;html=1;whiteSpace=wrap;connectable=0;strokeColor=inherit;overflow=hidden;fillColor=none;top=0;left=0;bottom=0;right=0;pointerEvents=1;fontSize=12;" parent="eMB9HuW2Fb0xIjqryYv6-245" vertex="1">
          <mxGeometry x="180" width="180" height="40" as="geometry">
            <mxRectangle width="180" height="40" as="alternateBounds" />
          </mxGeometry>
        </mxCell>
        <mxCell id="eMB9HuW2Fb0xIjqryYv6-248" value="RestartCri" style="shape=partialRectangle;html=1;whiteSpace=wrap;connectable=0;strokeColor=inherit;overflow=hidden;fillColor=none;top=0;left=0;bottom=0;right=0;pointerEvents=1;fontSize=12;" parent="eMB9HuW2Fb0xIjqryYv6-245" vertex="1">
          <mxGeometry x="360" width="180" height="40" as="geometry">
            <mxRectangle width="180" height="40" as="alternateBounds" />
          </mxGeometry>
        </mxCell>
        <mxCell id="eMB9HuW2Fb0xIjqryYv6-249" value="RestartETCD" style="shape=partialRectangle;html=1;whiteSpace=wrap;connectable=0;strokeColor=inherit;overflow=hidden;fillColor=none;top=0;left=0;bottom=0;right=0;pointerEvents=1;fontSize=12;" parent="eMB9HuW2Fb0xIjqryYv6-245" vertex="1">
          <mxGeometry x="540" width="180" height="40" as="geometry">
            <mxRectangle width="180" height="40" as="alternateBounds" />
          </mxGeometry>
        </mxCell>
        <mxCell id="eMB9HuW2Fb0xIjqryYv6-250" value="RestartKubeletNode" style="shape=partialRectangle;html=1;whiteSpace=wrap;connectable=0;strokeColor=inherit;overflow=hidden;fillColor=none;top=0;left=0;bottom=0;right=0;pointerEvents=1;fontSize=12;" parent="eMB9HuW2Fb0xIjqryYv6-245" vertex="1">
          <mxGeometry x="720" width="180" height="40" as="geometry">
            <mxRectangle width="180" height="40" as="alternateBounds" />
          </mxGeometry>
        </mxCell>
        <mxCell id="eMB9HuW2Fb0xIjqryYv6-251" value="" style="shape=tableRow;horizontal=0;startSize=0;swimlaneHead=0;swimlaneBody=0;strokeColor=inherit;top=0;left=0;bottom=0;right=0;collapsible=0;dropTarget=0;fillColor=none;points=[[0,0.5],[1,0.5]];portConstraint=eastwest;fontSize=12;" parent="eMB9HuW2Fb0xIjqryYv6-51" vertex="1">
          <mxGeometry y="1280" width="900" height="40" as="geometry" />
        </mxCell>
        <mxCell id="eMB9HuW2Fb0xIjqryYv6-252" value="SaveImages" style="shape=partialRectangle;html=1;whiteSpace=wrap;connectable=0;strokeColor=inherit;overflow=hidden;fillColor=none;top=0;left=0;bottom=0;right=0;pointerEvents=1;fontSize=12;" parent="eMB9HuW2Fb0xIjqryYv6-251" vertex="1">
          <mxGeometry width="180" height="40" as="geometry">
            <mxRectangle width="180" height="40" as="alternateBounds" />
          </mxGeometry>
        </mxCell>
        <mxCell id="eMB9HuW2Fb0xIjqryYv6-253" value="SaveKubeConfig-k3s" style="shape=partialRectangle;html=1;whiteSpace=wrap;connectable=0;strokeColor=inherit;overflow=hidden;fillColor=none;top=0;left=0;bottom=0;right=0;pointerEvents=1;fontSize=12;" parent="eMB9HuW2Fb0xIjqryYv6-251" vertex="1">
          <mxGeometry x="180" width="180" height="40" as="geometry">
            <mxRectangle width="180" height="40" as="alternateBounds" />
          </mxGeometry>
        </mxCell>
        <mxCell id="eMB9HuW2Fb0xIjqryYv6-254" value="SaveKubeConfig-k8e" style="shape=partialRectangle;html=1;whiteSpace=wrap;connectable=0;strokeColor=inherit;overflow=hidden;fillColor=none;top=0;left=0;bottom=0;right=0;pointerEvents=1;fontSize=12;" parent="eMB9HuW2Fb0xIjqryYv6-251" vertex="1">
          <mxGeometry x="360" width="180" height="40" as="geometry">
            <mxRectangle width="180" height="40" as="alternateBounds" />
          </mxGeometry>
        </mxCell>
        <mxCell id="eMB9HuW2Fb0xIjqryYv6-255" value="SaveKubeConfig-k8s" style="shape=partialRectangle;html=1;whiteSpace=wrap;connectable=0;strokeColor=inherit;overflow=hidden;fillColor=none;top=0;left=0;bottom=0;right=0;pointerEvents=1;fontSize=12;" parent="eMB9HuW2Fb0xIjqryYv6-251" vertex="1">
          <mxGeometry x="540" width="180" height="40" as="geometry">
            <mxRectangle width="180" height="40" as="alternateBounds" />
          </mxGeometry>
        </mxCell>
        <mxCell id="eMB9HuW2Fb0xIjqryYv6-256" value="SetCurrentK8sVersion" style="shape=partialRectangle;html=1;whiteSpace=wrap;connectable=0;strokeColor=inherit;overflow=hidden;fillColor=none;top=0;left=0;bottom=0;right=0;pointerEvents=1;fontSize=12;" parent="eMB9HuW2Fb0xIjqryYv6-251" vertex="1">
          <mxGeometry x="720" width="180" height="40" as="geometry">
            <mxRectangle width="180" height="40" as="alternateBounds" />
          </mxGeometry>
        </mxCell>
        <mxCell id="eMB9HuW2Fb0xIjqryYv6-257" value="" style="shape=tableRow;horizontal=0;startSize=0;swimlaneHead=0;swimlaneBody=0;strokeColor=inherit;top=0;left=0;bottom=0;right=0;collapsible=0;dropTarget=0;fillColor=none;points=[[0,0.5],[1,0.5]];portConstraint=eastwest;fontSize=12;" parent="eMB9HuW2Fb0xIjqryYv6-51" vertex="1">
          <mxGeometry y="1320" width="900" height="40" as="geometry" />
        </mxCell>
        <mxCell id="eMB9HuW2Fb0xIjqryYv6-258" value="SetUpgradePlan" style="shape=partialRectangle;html=1;whiteSpace=wrap;connectable=0;strokeColor=inherit;overflow=hidden;fillColor=none;top=0;left=0;bottom=0;right=0;pointerEvents=1;fontSize=12;" parent="eMB9HuW2Fb0xIjqryYv6-257" vertex="1">
          <mxGeometry width="180" height="40" as="geometry">
            <mxRectangle width="180" height="40" as="alternateBounds" />
          </mxGeometry>
        </mxCell>
        <mxCell id="eMB9HuW2Fb0xIjqryYv6-259" value="Setup" style="shape=partialRectangle;html=1;whiteSpace=wrap;connectable=0;strokeColor=inherit;overflow=hidden;fillColor=none;top=0;left=0;bottom=0;right=0;pointerEvents=1;fontSize=12;" parent="eMB9HuW2Fb0xIjqryYv6-257" vertex="1">
          <mxGeometry x="180" width="180" height="40" as="geometry">
            <mxRectangle width="180" height="40" as="alternateBounds" />
          </mxGeometry>
        </mxCell>
        <mxCell id="eMB9HuW2Fb0xIjqryYv6-260" value="StartHarbor" style="shape=partialRectangle;html=1;whiteSpace=wrap;connectable=0;strokeColor=inherit;overflow=hidden;fillColor=none;top=0;left=0;bottom=0;right=0;pointerEvents=1;fontSize=12;" parent="eMB9HuW2Fb0xIjqryYv6-257" vertex="1">
          <mxGeometry x="360" width="180" height="40" as="geometry">
            <mxRectangle width="180" height="40" as="alternateBounds" />
          </mxGeometry>
        </mxCell>
        <mxCell id="eMB9HuW2Fb0xIjqryYv6-261" value="StartRegistryService" style="shape=partialRectangle;html=1;whiteSpace=wrap;connectable=0;strokeColor=inherit;overflow=hidden;fillColor=none;top=0;left=0;bottom=0;right=0;pointerEvents=1;fontSize=12;" parent="eMB9HuW2Fb0xIjqryYv6-257" vertex="1">
          <mxGeometry x="540" width="180" height="40" as="geometry">
            <mxRectangle width="180" height="40" as="alternateBounds" />
          </mxGeometry>
        </mxCell>
        <mxCell id="eMB9HuW2Fb0xIjqryYv6-262" value="SyncCertsFile-registry" style="shape=partialRectangle;html=1;whiteSpace=wrap;connectable=0;strokeColor=inherit;overflow=hidden;fillColor=none;top=0;left=0;bottom=0;right=0;pointerEvents=1;fontSize=12;" parent="eMB9HuW2Fb0xIjqryYv6-257" vertex="1">
          <mxGeometry x="720" width="180" height="40" as="geometry">
            <mxRectangle width="180" height="40" as="alternateBounds" />
          </mxGeometry>
        </mxCell>
        <mxCell id="eMB9HuW2Fb0xIjqryYv6-263" value="" style="shape=tableRow;horizontal=0;startSize=0;swimlaneHead=0;swimlaneBody=0;strokeColor=inherit;top=0;left=0;bottom=0;right=0;collapsible=0;dropTarget=0;fillColor=none;points=[[0,0.5],[1,0.5]];portConstraint=eastwest;fontSize=12;" parent="eMB9HuW2Fb0xIjqryYv6-51" vertex="1">
          <mxGeometry y="1360" width="900" height="40" as="geometry" />
        </mxCell>
        <mxCell id="eMB9HuW2Fb0xIjqryYv6-264" value="SyncCertsFile-etcd" style="shape=partialRectangle;html=1;whiteSpace=wrap;connectable=0;strokeColor=inherit;overflow=hidden;fillColor=none;top=0;left=0;bottom=0;right=0;pointerEvents=1;fontSize=12;" parent="eMB9HuW2Fb0xIjqryYv6-263" vertex="1">
          <mxGeometry width="180" height="40" as="geometry">
            <mxRectangle width="180" height="40" as="alternateBounds" />
          </mxGeometry>
        </mxCell>
        <mxCell id="eMB9HuW2Fb0xIjqryYv6-265" value="SyncCertsToAllNodes" style="shape=partialRectangle;html=1;whiteSpace=wrap;connectable=0;strokeColor=inherit;overflow=hidden;fillColor=none;top=0;left=0;bottom=0;right=0;pointerEvents=1;fontSize=12;" parent="eMB9HuW2Fb0xIjqryYv6-263" vertex="1">
          <mxGeometry x="180" width="180" height="40" as="geometry">
            <mxRectangle width="180" height="40" as="alternateBounds" />
          </mxGeometry>
        </mxCell>
        <mxCell id="eMB9HuW2Fb0xIjqryYv6-266" value="SyncCiliumChart" style="shape=partialRectangle;html=1;whiteSpace=wrap;connectable=0;strokeColor=inherit;overflow=hidden;fillColor=none;top=0;left=0;bottom=0;right=0;pointerEvents=1;fontSize=12;" parent="eMB9HuW2Fb0xIjqryYv6-263" vertex="1">
          <mxGeometry x="360" width="180" height="40" as="geometry">
            <mxRectangle width="180" height="40" as="alternateBounds" />
          </mxGeometry>
        </mxCell>
        <mxCell id="eMB9HuW2Fb0xIjqryYv6-267" value="SyncContainerd" style="shape=partialRectangle;html=1;whiteSpace=wrap;connectable=0;strokeColor=inherit;overflow=hidden;fillColor=none;top=0;left=0;bottom=0;right=0;pointerEvents=1;fontSize=12;" parent="eMB9HuW2Fb0xIjqryYv6-263" vertex="1">
          <mxGeometry x="540" width="180" height="40" as="geometry">
            <mxRectangle width="180" height="40" as="alternateBounds" />
          </mxGeometry>
        </mxCell>
        <mxCell id="eMB9HuW2Fb0xIjqryYv6-268" value="SyncCrictlBinaries" style="shape=partialRectangle;html=1;whiteSpace=wrap;connectable=0;strokeColor=inherit;overflow=hidden;fillColor=none;top=0;left=0;bottom=0;right=0;pointerEvents=1;fontSize=12;" parent="eMB9HuW2Fb0xIjqryYv6-263" vertex="1">
          <mxGeometry x="720" width="180" height="40" as="geometry">
            <mxRectangle width="180" height="40" as="alternateBounds" />
          </mxGeometry>
        </mxCell>
        <mxCell id="eMB9HuW2Fb0xIjqryYv6-269" value="" style="shape=tableRow;horizontal=0;startSize=0;swimlaneHead=0;swimlaneBody=0;strokeColor=inherit;top=0;left=0;bottom=0;right=0;collapsible=0;dropTarget=0;fillColor=none;points=[[0,0.5],[1,0.5]];portConstraint=eastwest;fontSize=12;" parent="eMB9HuW2Fb0xIjqryYv6-51" vertex="1">
          <mxGeometry y="1400" width="900" height="40" as="geometry" />
        </mxCell>
        <mxCell id="eMB9HuW2Fb0xIjqryYv6-270" value="SyncDockerBinaries" style="shape=partialRectangle;html=1;whiteSpace=wrap;connectable=0;strokeColor=inherit;overflow=hidden;fillColor=none;top=0;left=0;bottom=0;right=0;pointerEvents=1;fontSize=12;" parent="eMB9HuW2Fb0xIjqryYv6-269" vertex="1">
          <mxGeometry width="180" height="40" as="geometry">
            <mxRectangle width="180" height="40" as="alternateBounds" />
          </mxGeometry>
        </mxCell>
        <mxCell id="eMB9HuW2Fb0xIjqryYv6-271" value="SyncHarborPackage" style="shape=partialRectangle;html=1;whiteSpace=wrap;connectable=0;strokeColor=inherit;overflow=hidden;fillColor=none;top=0;left=0;bottom=0;right=0;pointerEvents=1;fontSize=12;" parent="eMB9HuW2Fb0xIjqryYv6-269" vertex="1">
          <mxGeometry x="180" width="180" height="40" as="geometry">
            <mxRectangle width="180" height="40" as="alternateBounds" />
          </mxGeometry>
        </mxCell>
        <mxCell id="eMB9HuW2Fb0xIjqryYv6-272" value="SyncKubeBinary-k3s" style="shape=partialRectangle;html=1;whiteSpace=wrap;connectable=0;strokeColor=inherit;overflow=hidden;fillColor=none;top=0;left=0;bottom=0;right=0;pointerEvents=1;fontSize=12;" parent="eMB9HuW2Fb0xIjqryYv6-269" vertex="1">
          <mxGeometry x="360" width="180" height="40" as="geometry">
            <mxRectangle width="180" height="40" as="alternateBounds" />
          </mxGeometry>
        </mxCell>
        <mxCell id="eMB9HuW2Fb0xIjqryYv6-273" value="SyncKubeBinary-k8e" style="shape=partialRectangle;html=1;whiteSpace=wrap;connectable=0;strokeColor=inherit;overflow=hidden;fillColor=none;top=0;left=0;bottom=0;right=0;pointerEvents=1;fontSize=12;" parent="eMB9HuW2Fb0xIjqryYv6-269" vertex="1">
          <mxGeometry x="540" width="180" height="40" as="geometry">
            <mxRectangle width="180" height="40" as="alternateBounds" />
          </mxGeometry>
        </mxCell>
        <mxCell id="eMB9HuW2Fb0xIjqryYv6-274" value="SyncKubeBinary-k8s" style="shape=partialRectangle;html=1;whiteSpace=wrap;connectable=0;strokeColor=inherit;overflow=hidden;fillColor=none;top=0;left=0;bottom=0;right=0;pointerEvents=1;fontSize=12;" parent="eMB9HuW2Fb0xIjqryYv6-269" vertex="1">
          <mxGeometry x="720" width="180" height="40" as="geometry">
            <mxRectangle width="180" height="40" as="alternateBounds" />
          </mxGeometry>
        </mxCell>
        <mxCell id="eMB9HuW2Fb0xIjqryYv6-275" value="" style="shape=tableRow;horizontal=0;startSize=0;swimlaneHead=0;swimlaneBody=0;strokeColor=inherit;top=0;left=0;bottom=0;right=0;collapsible=0;dropTarget=0;fillColor=none;points=[[0,0.5],[1,0.5]];portConstraint=eastwest;fontSize=12;" parent="eMB9HuW2Fb0xIjqryYv6-51" vertex="1">
          <mxGeometry y="1440" width="900" height="40" as="geometry" />
        </mxCell>
        <mxCell id="eMB9HuW2Fb0xIjqryYv6-276" value="SyncRepositoryFile" style="shape=partialRectangle;html=1;whiteSpace=wrap;connectable=0;strokeColor=inherit;overflow=hidden;fillColor=none;top=0;left=0;bottom=0;right=0;pointerEvents=1;fontSize=12;" parent="eMB9HuW2Fb0xIjqryYv6-275" vertex="1">
          <mxGeometry width="180" height="40" as="geometry">
            <mxRectangle width="180" height="40" as="alternateBounds" />
          </mxGeometry>
        </mxCell>
        <mxCell id="eMB9HuW2Fb0xIjqryYv6-277" value="SyncKubeConfigToWorker" style="shape=partialRectangle;html=1;whiteSpace=wrap;connectable=0;strokeColor=inherit;overflow=hidden;fillColor=none;top=0;left=0;bottom=0;right=0;pointerEvents=1;fontSize=12;" parent="eMB9HuW2Fb0xIjqryYv6-275" vertex="1">
          <mxGeometry x="180" width="180" height="40" as="geometry">
            <mxRectangle width="180" height="40" as="alternateBounds" />
          </mxGeometry>
        </mxCell>
        <mxCell id="eMB9HuW2Fb0xIjqryYv6-278" value="Template" style="shape=partialRectangle;html=1;whiteSpace=wrap;connectable=0;strokeColor=inherit;overflow=hidden;fillColor=none;top=0;left=0;bottom=0;right=0;pointerEvents=1;fontSize=12;" parent="eMB9HuW2Fb0xIjqryYv6-275" vertex="1">
          <mxGeometry x="360" width="180" height="40" as="geometry">
            <mxRectangle width="180" height="40" as="alternateBounds" />
          </mxGeometry>
        </mxCell>
        <mxCell id="eMB9HuW2Fb0xIjqryYv6-279" value="UmountISO" style="shape=partialRectangle;html=1;whiteSpace=wrap;connectable=0;strokeColor=inherit;overflow=hidden;fillColor=none;top=0;left=0;bottom=0;right=0;pointerEvents=1;fontSize=12;" parent="eMB9HuW2Fb0xIjqryYv6-275" vertex="1">
          <mxGeometry x="540" width="180" height="40" as="geometry">
            <mxRectangle width="180" height="40" as="alternateBounds" />
          </mxGeometry>
        </mxCell>
        <mxCell id="eMB9HuW2Fb0xIjqryYv6-280" value="UnArchive" style="shape=partialRectangle;html=1;whiteSpace=wrap;connectable=0;strokeColor=inherit;overflow=hidden;fillColor=none;top=0;left=0;bottom=0;right=0;pointerEvents=1;fontSize=12;" parent="eMB9HuW2Fb0xIjqryYv6-275" vertex="1">
          <mxGeometry x="720" width="180" height="40" as="geometry">
            <mxRectangle width="180" height="40" as="alternateBounds" />
          </mxGeometry>
        </mxCell>
        <mxCell id="eMB9HuW2Fb0xIjqryYv6-281" value="" style="shape=tableRow;horizontal=0;startSize=0;swimlaneHead=0;swimlaneBody=0;strokeColor=inherit;top=0;left=0;bottom=0;right=0;collapsible=0;dropTarget=0;fillColor=none;points=[[0,0.5],[1,0.5]];portConstraint=eastwest;fontSize=12;" parent="eMB9HuW2Fb0xIjqryYv6-51" vertex="1">
          <mxGeometry y="1480" width="900" height="40" as="geometry" />
        </mxCell>
        <mxCell id="eMB9HuW2Fb0xIjqryYv6-282" value="UnCordonNode" style="shape=partialRectangle;html=1;whiteSpace=wrap;connectable=0;strokeColor=inherit;overflow=hidden;fillColor=none;top=0;left=0;bottom=0;right=0;pointerEvents=1;fontSize=12;" parent="eMB9HuW2Fb0xIjqryYv6-281" vertex="1">
          <mxGeometry width="180" height="40" as="geometry">
            <mxRectangle width="180" height="40" as="alternateBounds" />
          </mxGeometry>
        </mxCell>
        <mxCell id="eMB9HuW2Fb0xIjqryYv6-283" value="UninstallAutoRenewCerts" style="shape=partialRectangle;html=1;whiteSpace=wrap;connectable=0;strokeColor=inherit;overflow=hidden;fillColor=none;top=0;left=0;bottom=0;right=0;pointerEvents=1;fontSize=12;" parent="eMB9HuW2Fb0xIjqryYv6-281" vertex="1">
          <mxGeometry x="180" width="180" height="40" as="geometry">
            <mxRectangle width="180" height="40" as="alternateBounds" />
          </mxGeometry>
        </mxCell>
        <mxCell id="eMB9HuW2Fb0xIjqryYv6-284" value="UninstallETCD" style="shape=partialRectangle;html=1;whiteSpace=wrap;connectable=0;strokeColor=inherit;overflow=hidden;fillColor=none;top=0;left=0;bottom=0;right=0;pointerEvents=1;fontSize=12;" parent="eMB9HuW2Fb0xIjqryYv6-281" vertex="1">
          <mxGeometry x="360" width="180" height="40" as="geometry">
            <mxRectangle width="180" height="40" as="alternateBounds" />
          </mxGeometry>
        </mxCell>
        <mxCell id="eMB9HuW2Fb0xIjqryYv6-285" value="UpdateHosts" style="shape=partialRectangle;html=1;whiteSpace=wrap;connectable=0;strokeColor=inherit;overflow=hidden;fillColor=none;top=0;left=0;bottom=0;right=0;pointerEvents=1;fontSize=12;" parent="eMB9HuW2Fb0xIjqryYv6-281" vertex="1">
          <mxGeometry x="540" width="180" height="40" as="geometry">
            <mxRectangle width="180" height="40" as="alternateBounds" />
          </mxGeometry>
        </mxCell>
        <mxCell id="eMB9HuW2Fb0xIjqryYv6-286" value="UpdateK3s" style="shape=partialRectangle;html=1;whiteSpace=wrap;connectable=0;strokeColor=inherit;overflow=hidden;fillColor=none;top=0;left=0;bottom=0;right=0;pointerEvents=1;fontSize=12;" parent="eMB9HuW2Fb0xIjqryYv6-281" vertex="1">
          <mxGeometry x="720" width="180" height="40" as="geometry">
            <mxRectangle width="180" height="40" as="alternateBounds" />
          </mxGeometry>
        </mxCell>
        <mxCell id="eMB9HuW2Fb0xIjqryYv6-287" value="" style="shape=tableRow;horizontal=0;startSize=0;swimlaneHead=0;swimlaneBody=0;strokeColor=inherit;top=0;left=0;bottom=0;right=0;collapsible=0;dropTarget=0;fillColor=none;points=[[0,0.5],[1,0.5]];portConstraint=eastwest;fontSize=12;" parent="eMB9HuW2Fb0xIjqryYv6-51" vertex="1">
          <mxGeometry y="1520" width="900" height="40" as="geometry" />
        </mxCell>
        <mxCell id="eMB9HuW2Fb0xIjqryYv6-288" value="UpdateKubeProxy" style="shape=partialRectangle;html=1;whiteSpace=wrap;connectable=0;strokeColor=inherit;overflow=hidden;fillColor=none;top=0;left=0;bottom=0;right=0;pointerEvents=1;fontSize=12;" parent="eMB9HuW2Fb0xIjqryYv6-287" vertex="1">
          <mxGeometry width="180" height="40" as="geometry">
            <mxRectangle width="180" height="40" as="alternateBounds" />
          </mxGeometry>
        </mxCell>
        <mxCell id="eMB9HuW2Fb0xIjqryYv6-289" value="UpdateKubelet" style="shape=partialRectangle;html=1;whiteSpace=wrap;connectable=0;strokeColor=inherit;overflow=hidden;fillColor=none;top=0;left=0;bottom=0;right=0;pointerEvents=1;fontSize=12;" parent="eMB9HuW2Fb0xIjqryYv6-287" vertex="1">
          <mxGeometry x="180" width="180" height="40" as="geometry">
            <mxRectangle width="180" height="40" as="alternateBounds" />
          </mxGeometry>
        </mxCell>
        <mxCell id="eMB9HuW2Fb0xIjqryYv6-290" value="UpgradeConfirm" style="shape=partialRectangle;html=1;whiteSpace=wrap;connectable=0;strokeColor=inherit;overflow=hidden;fillColor=none;top=0;left=0;bottom=0;right=0;pointerEvents=1;fontSize=12;" parent="eMB9HuW2Fb0xIjqryYv6-287" vertex="1">
          <mxGeometry x="360" width="180" height="40" as="geometry">
            <mxRectangle width="180" height="40" as="alternateBounds" />
          </mxGeometry>
        </mxCell>
        <mxCell id="eMB9HuW2Fb0xIjqryYv6-291" value="UpgradeK8sConfirm" style="shape=partialRectangle;html=1;whiteSpace=wrap;connectable=0;strokeColor=inherit;overflow=hidden;fillColor=none;top=0;left=0;bottom=0;right=0;pointerEvents=1;fontSize=12;" parent="eMB9HuW2Fb0xIjqryYv6-287" vertex="1">
          <mxGeometry x="540" width="180" height="40" as="geometry">
            <mxRectangle width="180" height="40" as="alternateBounds" />
          </mxGeometry>
        </mxCell>
        <mxCell id="eMB9HuW2Fb0xIjqryYv6-292" value="UpgradeKsConfirm" style="shape=partialRectangle;html=1;whiteSpace=wrap;connectable=0;strokeColor=inherit;overflow=hidden;fillColor=none;top=0;left=0;bottom=0;right=0;pointerEvents=1;fontSize=12;" parent="eMB9HuW2Fb0xIjqryYv6-287" vertex="1">
          <mxGeometry x="720" width="180" height="40" as="geometry">
            <mxRectangle width="180" height="40" as="alternateBounds" />
          </mxGeometry>
        </mxCell>
        <mxCell id="eMB9HuW2Fb0xIjqryYv6-293" value="" style="shape=tableRow;horizontal=0;startSize=0;swimlaneHead=0;swimlaneBody=0;strokeColor=inherit;top=0;left=0;bottom=0;right=0;collapsible=0;dropTarget=0;fillColor=none;points=[[0,0.5],[1,0.5]];portConstraint=eastwest;fontSize=12;" parent="eMB9HuW2Fb0xIjqryYv6-51" vertex="1">
          <mxGeometry y="1560" width="900" height="40" as="geometry" />
        </mxCell>
        <mxCell id="eMB9HuW2Fb0xIjqryYv6-294" value="UpgradeKubeMaster" style="shape=partialRectangle;html=1;whiteSpace=wrap;connectable=0;strokeColor=inherit;overflow=hidden;fillColor=none;top=0;left=0;bottom=0;right=0;pointerEvents=1;fontSize=12;" parent="eMB9HuW2Fb0xIjqryYv6-293" vertex="1">
          <mxGeometry width="180" height="40" as="geometry">
            <mxRectangle width="180" height="40" as="alternateBounds" />
          </mxGeometry>
        </mxCell>
        <mxCell id="eMB9HuW2Fb0xIjqryYv6-295" value="UpgradeKubeWorker" style="shape=partialRectangle;html=1;whiteSpace=wrap;connectable=0;strokeColor=inherit;overflow=hidden;fillColor=none;top=0;left=0;bottom=0;right=0;pointerEvents=1;fontSize=12;" parent="eMB9HuW2Fb0xIjqryYv6-293" vertex="1">
          <mxGeometry x="180" width="180" height="40" as="geometry">
            <mxRectangle width="180" height="40" as="alternateBounds" />
          </mxGeometry>
        </mxCell>
        <mxCell id="eMB9HuW2Fb0xIjqryYv6-296" value="CopyK3sKubeConfig" style="shape=partialRectangle;html=1;whiteSpace=wrap;connectable=0;strokeColor=inherit;overflow=hidden;fillColor=none;top=0;left=0;bottom=0;right=0;pointerEvents=1;fontSize=12;" parent="eMB9HuW2Fb0xIjqryYv6-293" vertex="1">
          <mxGeometry x="360" width="180" height="40" as="geometry">
            <mxRectangle width="180" height="40" as="alternateBounds" />
          </mxGeometry>
        </mxCell>
        <mxCell id="eMB9HuW2Fb0xIjqryYv6-297" value="DisableContainerd" style="shape=partialRectangle;html=1;whiteSpace=wrap;connectable=0;strokeColor=inherit;overflow=hidden;fillColor=none;top=0;left=0;bottom=0;right=0;pointerEvents=1;fontSize=12;" parent="eMB9HuW2Fb0xIjqryYv6-293" vertex="1">
          <mxGeometry x="540" width="180" height="40" as="geometry">
            <mxRectangle width="180" height="40" as="alternateBounds" />
          </mxGeometry>
        </mxCell>
        <mxCell id="eMB9HuW2Fb0xIjqryYv6-298" value="InstallPackage" style="shape=partialRectangle;html=1;whiteSpace=wrap;connectable=0;strokeColor=inherit;overflow=hidden;fillColor=none;top=0;left=0;bottom=0;right=0;pointerEvents=1;fontSize=12;" parent="eMB9HuW2Fb0xIjqryYv6-293" vertex="1">
          <mxGeometry x="720" width="180" height="40" as="geometry">
            <mxRectangle width="180" height="40" as="alternateBounds" />
          </mxGeometry>
        </mxCell>
        <mxCell id="eMB9HuW2Fb0xIjqryYv6-311" value="" style="shape=tableRow;horizontal=0;startSize=0;swimlaneHead=0;swimlaneBody=0;strokeColor=inherit;top=0;left=0;bottom=0;right=0;collapsible=0;dropTarget=0;fillColor=none;points=[[0,0.5],[1,0.5]];portConstraint=eastwest;fontSize=12;" parent="eMB9HuW2Fb0xIjqryYv6-51" vertex="1">
          <mxGeometry y="1600" width="900" height="40" as="geometry" />
        </mxCell>
        <mxCell id="eMB9HuW2Fb0xIjqryYv6-312" value="InstallRegistryBinary" style="shape=partialRectangle;html=1;whiteSpace=wrap;connectable=0;strokeColor=inherit;overflow=hidden;fillColor=none;top=0;left=0;bottom=0;right=0;pointerEvents=1;fontSize=12;" parent="eMB9HuW2Fb0xIjqryYv6-311" vertex="1">
          <mxGeometry width="180" height="40" as="geometry">
            <mxRectangle width="180" height="40" as="alternateBounds" />
          </mxGeometry>
        </mxCell>
        <mxCell id="eMB9HuW2Fb0xIjqryYv6-313" value="" style="shape=partialRectangle;html=1;whiteSpace=wrap;connectable=0;strokeColor=inherit;overflow=hidden;fillColor=none;top=0;left=0;bottom=0;right=0;pointerEvents=1;fontSize=12;" parent="eMB9HuW2Fb0xIjqryYv6-311" vertex="1">
          <mxGeometry x="180" width="180" height="40" as="geometry">
            <mxRectangle width="180" height="40" as="alternateBounds" />
          </mxGeometry>
        </mxCell>
        <mxCell id="eMB9HuW2Fb0xIjqryYv6-314" value="" style="shape=partialRectangle;html=1;whiteSpace=wrap;connectable=0;strokeColor=inherit;overflow=hidden;fillColor=none;top=0;left=0;bottom=0;right=0;pointerEvents=1;fontSize=12;" parent="eMB9HuW2Fb0xIjqryYv6-311" vertex="1">
          <mxGeometry x="360" width="180" height="40" as="geometry">
            <mxRectangle width="180" height="40" as="alternateBounds" />
          </mxGeometry>
        </mxCell>
        <mxCell id="eMB9HuW2Fb0xIjqryYv6-315" value="" style="shape=partialRectangle;html=1;whiteSpace=wrap;connectable=0;strokeColor=inherit;overflow=hidden;fillColor=none;top=0;left=0;bottom=0;right=0;pointerEvents=1;fontSize=12;" parent="eMB9HuW2Fb0xIjqryYv6-311" vertex="1">
          <mxGeometry x="540" width="180" height="40" as="geometry">
            <mxRectangle width="180" height="40" as="alternateBounds" />
          </mxGeometry>
        </mxCell>
        <mxCell id="eMB9HuW2Fb0xIjqryYv6-316" value="" style="shape=partialRectangle;html=1;whiteSpace=wrap;connectable=0;strokeColor=inherit;overflow=hidden;fillColor=none;top=0;left=0;bottom=0;right=0;pointerEvents=1;fontSize=12;" parent="eMB9HuW2Fb0xIjqryYv6-311" vertex="1">
          <mxGeometry x="720" width="180" height="40" as="geometry">
            <mxRectangle width="180" height="40" as="alternateBounds" />
          </mxGeometry>
        </mxCell>
      </root>
    </mxGraphModel>
  </diagram>
  <diagram id="f_CCzmLRLPnDvRpy_HXS" name="pluginCmd">
    <mxGraphModel dx="808" dy="685" grid="1" gridSize="10" guides="1" tooltips="1" connect="1" arrows="1" fold="1" page="1" pageScale="1" pageWidth="827" pageHeight="1169" background="#ffffff" math="0" shadow="0">
      <root>
        <mxCell id="0" />
        <mxCell id="1" parent="0" />
        <mxCell id="nXICC9jPdmTG0YfEKqbZ-3" value="" style="edgeStyle=orthogonalEdgeStyle;rounded=0;orthogonalLoop=1;jettySize=auto;html=1;" parent="1" source="nXICC9jPdmTG0YfEKqbZ-1" target="nXICC9jPdmTG0YfEKqbZ-2" edge="1">
          <mxGeometry relative="1" as="geometry" />
        </mxCell>
        <mxCell id="nXICC9jPdmTG0YfEKqbZ-1" value="项目启动" style="rounded=1;whiteSpace=wrap;html=1;" parent="1" vertex="1">
          <mxGeometry x="20" y="570" width="120" height="60" as="geometry" />
        </mxCell>
        <mxCell id="nXICC9jPdmTG0YfEKqbZ-5" value="" style="edgeStyle=orthogonalEdgeStyle;rounded=0;orthogonalLoop=1;jettySize=auto;html=1;" parent="1" source="nXICC9jPdmTG0YfEKqbZ-2" target="nXICC9jPdmTG0YfEKqbZ-4" edge="1">
          <mxGeometry relative="1" as="geometry" />
        </mxCell>
        <mxCell id="nXICC9jPdmTG0YfEKqbZ-6" value="在cobra.Command中定义" style="edgeLabel;html=1;align=center;verticalAlign=middle;resizable=0;points=[];" parent="nXICC9jPdmTG0YfEKqbZ-5" vertex="1" connectable="0">
          <mxGeometry x="-0.1" y="3" relative="1" as="geometry">
            <mxPoint as="offset" />
          </mxGeometry>
        </mxCell>
        <mxCell id="nXICC9jPdmTG0YfEKqbZ-8" value="" style="edgeStyle=orthogonalEdgeStyle;rounded=0;orthogonalLoop=1;jettySize=auto;html=1;" parent="1" source="nXICC9jPdmTG0YfEKqbZ-2" target="nXICC9jPdmTG0YfEKqbZ-10" edge="1">
          <mxGeometry relative="1" as="geometry">
            <mxPoint x="290" y="730" as="targetPoint" />
          </mxGeometry>
        </mxCell>
        <mxCell id="nXICC9jPdmTG0YfEKqbZ-9" value="未知" style="edgeLabel;html=1;align=center;verticalAlign=middle;resizable=0;points=[];" parent="nXICC9jPdmTG0YfEKqbZ-8" vertex="1" connectable="0">
          <mxGeometry x="-0.2444" y="-2" relative="1" as="geometry">
            <mxPoint as="offset" />
          </mxGeometry>
        </mxCell>
        <mxCell id="nXICC9jPdmTG0YfEKqbZ-2" value="输入参数是否已知" style="rhombus;whiteSpace=wrap;html=1;rounded=1;" parent="1" vertex="1">
          <mxGeometry x="260" y="560" width="80" height="80" as="geometry" />
        </mxCell>
        <mxCell id="nXICC9jPdmTG0YfEKqbZ-4" value="cobra.Command命令执行" style="whiteSpace=wrap;html=1;rounded=1;" parent="1" vertex="1">
          <mxGeometry x="240" y="730" width="120" height="60" as="geometry" />
        </mxCell>
        <mxCell id="nXICC9jPdmTG0YfEKqbZ-12" value="" style="edgeStyle=orthogonalEdgeStyle;rounded=0;orthogonalLoop=1;jettySize=auto;html=1;" parent="1" source="nXICC9jPdmTG0YfEKqbZ-10" target="nXICC9jPdmTG0YfEKqbZ-11" edge="1">
          <mxGeometry relative="1" as="geometry" />
        </mxCell>
        <mxCell id="nXICC9jPdmTG0YfEKqbZ-13" value="help/__complete/__completeNoDesc" style="edgeLabel;html=1;align=center;verticalAlign=middle;resizable=0;points=[];" parent="nXICC9jPdmTG0YfEKqbZ-12" vertex="1" connectable="0">
          <mxGeometry x="-0.3333" y="-1" relative="1" as="geometry">
            <mxPoint x="37" y="-1" as="offset" />
          </mxGeometry>
        </mxCell>
        <mxCell id="nXICC9jPdmTG0YfEKqbZ-15" value="" style="edgeStyle=orthogonalEdgeStyle;rounded=0;orthogonalLoop=1;jettySize=auto;html=1;" parent="1" source="nXICC9jPdmTG0YfEKqbZ-10" target="nXICC9jPdmTG0YfEKqbZ-14" edge="1">
          <mxGeometry relative="1" as="geometry" />
        </mxCell>
        <mxCell id="nXICC9jPdmTG0YfEKqbZ-16" value="非内置" style="edgeLabel;html=1;align=center;verticalAlign=middle;resizable=0;points=[];" parent="nXICC9jPdmTG0YfEKqbZ-15" vertex="1" connectable="0">
          <mxGeometry x="-0.2286" y="1" relative="1" as="geometry">
            <mxPoint as="offset" />
          </mxGeometry>
        </mxCell>
        <mxCell id="nXICC9jPdmTG0YfEKqbZ-10" value="输入参数是否内置" style="rhombus;whiteSpace=wrap;html=1;rounded=1;" parent="1" vertex="1">
          <mxGeometry x="460" y="560" width="80" height="80" as="geometry" />
        </mxCell>
        <mxCell id="nXICC9jPdmTG0YfEKqbZ-11" value="cobra.Command框架处理" style="whiteSpace=wrap;html=1;rounded=1;" parent="1" vertex="1">
          <mxGeometry x="440" y="730" width="120" height="60" as="geometry" />
        </mxCell>
        <mxCell id="nXICC9jPdmTG0YfEKqbZ-18" value="" style="edgeStyle=orthogonalEdgeStyle;rounded=0;orthogonalLoop=1;jettySize=auto;html=1;" parent="1" source="nXICC9jPdmTG0YfEKqbZ-14" target="nXICC9jPdmTG0YfEKqbZ-17" edge="1">
          <mxGeometry relative="1" as="geometry" />
        </mxCell>
        <mxCell id="nXICC9jPdmTG0YfEKqbZ-14" value="&lt;div style=&quot;font-family: &amp;quot;JetBrains Mono&amp;quot;, monospace; font-size: 9.8pt;&quot;&gt;&lt;span style=&quot;background-color: rgb(255, 255, 255);&quot;&gt;HandlePluginCommand&lt;/span&gt;&lt;/div&gt;" style="whiteSpace=wrap;html=1;rounded=1;" parent="1" vertex="1">
          <mxGeometry x="660" y="570" width="120" height="60" as="geometry" />
        </mxCell>
        <mxCell id="nXICC9jPdmTG0YfEKqbZ-20" value="" style="edgeStyle=orthogonalEdgeStyle;rounded=0;orthogonalLoop=1;jettySize=auto;html=1;" parent="1" source="nXICC9jPdmTG0YfEKqbZ-17" target="nXICC9jPdmTG0YfEKqbZ-19" edge="1">
          <mxGeometry relative="1" as="geometry" />
        </mxCell>
        <mxCell id="nXICC9jPdmTG0YfEKqbZ-17" value="Lookup" style="whiteSpace=wrap;html=1;rounded=1;" parent="1" vertex="1">
          <mxGeometry x="660" y="690" width="120" height="60" as="geometry" />
        </mxCell>
        <mxCell id="nXICC9jPdmTG0YfEKqbZ-19" value="Execute" style="whiteSpace=wrap;html=1;rounded=1;" parent="1" vertex="1">
          <mxGeometry x="660" y="810" width="120" height="60" as="geometry" />
        </mxCell>
        <mxCell id="BuTgoLDq8N4N90Af4eLa-3" value="" style="edgeStyle=orthogonalEdgeStyle;rounded=0;orthogonalLoop=1;jettySize=auto;html=1;" edge="1" parent="1" source="BuTgoLDq8N4N90Af4eLa-1" target="BuTgoLDq8N4N90Af4eLa-2">
          <mxGeometry relative="1" as="geometry" />
        </mxCell>
        <mxCell id="BuTgoLDq8N4N90Af4eLa-1" value="遍历路径" style="rounded=1;whiteSpace=wrap;html=1;" vertex="1" parent="1">
          <mxGeometry x="33" y="240" width="120" height="60" as="geometry" />
        </mxCell>
        <mxCell id="O0XK-5HW4RsCX3uSF8cT-2" value="" style="edgeStyle=orthogonalEdgeStyle;rounded=0;orthogonalLoop=1;jettySize=auto;html=1;" edge="1" parent="1" source="BuTgoLDq8N4N90Af4eLa-2" target="O0XK-5HW4RsCX3uSF8cT-1">
          <mxGeometry relative="1" as="geometry" />
        </mxCell>
        <mxCell id="BuTgoLDq8N4N90Af4eLa-2" value="遍历路径下文件" style="whiteSpace=wrap;html=1;rounded=1;" vertex="1" parent="1">
          <mxGeometry x="194" y="240" width="120" height="60" as="geometry" />
        </mxCell>
        <mxCell id="O0XK-5HW4RsCX3uSF8cT-4" value="" style="edgeStyle=orthogonalEdgeStyle;rounded=0;orthogonalLoop=1;jettySize=auto;html=1;" edge="1" parent="1" source="O0XK-5HW4RsCX3uSF8cT-1" target="O0XK-5HW4RsCX3uSF8cT-15">
          <mxGeometry relative="1" as="geometry" />
        </mxCell>
        <mxCell id="O0XK-5HW4RsCX3uSF8cT-1" value="校验文件前缀" style="whiteSpace=wrap;html=1;rounded=1;" vertex="1" parent="1">
          <mxGeometry x="354" y="240" width="120" height="60" as="geometry" />
        </mxCell>
        <mxCell id="O0XK-5HW4RsCX3uSF8cT-3" value="校验文件名称" style="whiteSpace=wrap;html=1;rounded=1;" vertex="1" parent="1">
          <mxGeometry x="674" y="240" width="120" height="60" as="geometry" />
        </mxCell>
        <mxCell id="O0XK-5HW4RsCX3uSF8cT-6" style="edgeStyle=orthogonalEdgeStyle;rounded=0;orthogonalLoop=1;jettySize=auto;html=1;dashed=1;" edge="1" parent="1" source="O0XK-5HW4RsCX3uSF8cT-5" target="BuTgoLDq8N4N90Af4eLa-1">
          <mxGeometry relative="1" as="geometry" />
        </mxCell>
        <mxCell id="O0XK-5HW4RsCX3uSF8cT-5" value="PluginListOption.PluginPaths" style="ellipse;whiteSpace=wrap;html=1;" vertex="1" parent="1">
          <mxGeometry x="33" y="60" width="120" height="80" as="geometry" />
        </mxCell>
        <mxCell id="O0XK-5HW4RsCX3uSF8cT-8" value="" style="edgeStyle=orthogonalEdgeStyle;rounded=0;orthogonalLoop=1;jettySize=auto;html=1;dashed=1;" edge="1" parent="1" source="O0XK-5HW4RsCX3uSF8cT-7" target="O0XK-5HW4RsCX3uSF8cT-1">
          <mxGeometry relative="1" as="geometry" />
        </mxCell>
        <mxCell id="O0XK-5HW4RsCX3uSF8cT-7" value="ValidPluginFilenamePrefixes" style="ellipse;whiteSpace=wrap;html=1;" vertex="1" parent="1">
          <mxGeometry x="354" y="60" width="120" height="80" as="geometry" />
        </mxCell>
        <mxCell id="O0XK-5HW4RsCX3uSF8cT-10" value="" style="edgeStyle=orthogonalEdgeStyle;rounded=0;orthogonalLoop=1;jettySize=auto;html=1;dashed=1;" edge="1" parent="1" source="O0XK-5HW4RsCX3uSF8cT-9" target="O0XK-5HW4RsCX3uSF8cT-3">
          <mxGeometry relative="1" as="geometry" />
        </mxCell>
        <mxCell id="O0XK-5HW4RsCX3uSF8cT-9" value="PluginListOption.Verifer" style="ellipse;whiteSpace=wrap;html=1;" vertex="1" parent="1">
          <mxGeometry x="674" y="60" width="120" height="80" as="geometry" />
        </mxCell>
        <mxCell id="O0XK-5HW4RsCX3uSF8cT-16" value="" style="edgeStyle=orthogonalEdgeStyle;rounded=0;orthogonalLoop=1;jettySize=auto;html=1;" edge="1" parent="1" source="O0XK-5HW4RsCX3uSF8cT-15" target="O0XK-5HW4RsCX3uSF8cT-3">
          <mxGeometry relative="1" as="geometry" />
        </mxCell>
        <mxCell id="O0XK-5HW4RsCX3uSF8cT-15" value="输出可执行文件名称" style="whiteSpace=wrap;html=1;rounded=1;" vertex="1" parent="1">
          <mxGeometry x="514" y="240" width="120" height="60" as="geometry" />
        </mxCell>
        <mxCell id="O0XK-5HW4RsCX3uSF8cT-18" value="" style="edgeStyle=orthogonalEdgeStyle;rounded=0;orthogonalLoop=1;jettySize=auto;html=1;dashed=1;" edge="1" parent="1" source="O0XK-5HW4RsCX3uSF8cT-17" target="O0XK-5HW4RsCX3uSF8cT-15">
          <mxGeometry relative="1" as="geometry" />
        </mxCell>
        <mxCell id="O0XK-5HW4RsCX3uSF8cT-17" value="PluginListOption.NameOnly" style="ellipse;whiteSpace=wrap;html=1;" vertex="1" parent="1">
          <mxGeometry x="514" y="60" width="120" height="80" as="geometry" />
        </mxCell>
      </root>
    </mxGraphModel>
  </diagram>
</mxfile>
